<?xml version="1.0" encoding="utf-8"?>
<!-- Generator: Adobe Illustrator 16.0.0, SVG Export Plug-In . SVG Version: 6.00 Build 0)  -->
<!DOCTYPE svg PUBLIC "-//W3C//DTD SVG 1.1//EN" "http://www.w3.org/Graphics/SVG/1.1/DTD/svg11.dtd">
<svg version="1.1" id="Layer_1" xmlns="http://www.w3.org/2000/svg" xmlns:xlink="http://www.w3.org/1999/xlink" x="0px" y="0px"
	 width="580.667px" height="366.667px" viewBox="0 0 580.667 366.667" enable-background="new 0 0 580.667 366.667"
	 xml:space="preserve">
<path fill-rule="evenodd" clip-rule="evenodd" fill="#007297" d="M490.804,310.683c0.053,15.325,0.006,30.652,0.235,45.976
	c0.052,3.499-1.081,4.798-4.457,4.348c-0.792-0.105-1.611-0.015-2.418-0.015c-138.36,0-276.72-0.037-415.08,0.133
	c-5.745,0.007-7.501-1.23-7.327-7.199c0.43-14.707,0.042-29.437-0.016-44.159c0.562-0.63,1.265-0.961,2.106-1.002
	c43.943,0.436,87.931,1.319,131.822-0.162c47.361-1.597,94.678-0.567,142.014-0.875c1.008-0.006,2.015-0.028,3.022-0.085
	c36.258,2.321,72.556,0.495,108.831,1.031c10.887,0.162,21.778-0.022,32.667,0.057C485.182,308.751,488.327,308.332,490.804,310.683
	z"/>
<path fill-rule="evenodd" clip-rule="evenodd" fill="#298EC1" d="M490.804,310.683c-41.166-0.027-82.331-0.046-123.497-0.09
	c-8.845-0.009-17.715,0.487-26.489-1.157c-10.934-4.05-22.278-4.298-33.784-4.211c-31.201,0.236-62.405,0.112-93.608,0.04
	c-3.315-0.008-6.936,0.799-9.658-2.121c1.785-3.959,5.438-2.636,8.339-2.646c34.299-0.118,68.598-0.063,102.897-0.092
	c2.195-0.002,4.429,0.351,7.569-0.683c-14.87-16.732-21.972-36.877-27.81-57.611c-0.31-1.012-0.45-2.056-0.611-3.094
	c-10.999-49.984-10.115-99.48,6.07-148.348c0.351-0.892,0.756-1.768,1.182-2.624c0.226-0.554,0.497-1.096,0.767-1.63
	c0.342-0.806,0.68-1.62,0.963-2.455c5.493-14.389,12.585-27.711,25.051-37.441c5.356-3.842,10.94-7.382,17.798-7.233
	c2.558,0.056,0.8-2.352,2.19-2.593c2.912,1.869,2.306-1.039,2.621-2.117c2.373-8.117,4.804-16.225,6.812-24.437
	c0.89-3.642,2.575-4.669,6.234-4.657c37.533,0.131,75.067,0.13,112.6,0.002c3.655-0.013,5.316,1.002,6.225,4.672
	c2.613,10.548,5.655,20.991,8.528,31.475c1.138,1.693,1.079,3.353-0.139,4.979c-16.533,3.038-25.681,14.723-32.738,28.496
	c-13.685,26.706-18.696,55.519-19.984,85.17c0.289,0.759,0.254,1.485-0.214,2.169c-1.353,28.935,1.163,57.441,9.467,85.304
	c0.59,0.702,1.072,1.444,0.932,2.428c4.124,15.911,10.987,30.439,22.105,42.693c5.409,5.963,12.381,9.272,20.322,10.532
	c1.629,1.99,1.675,4.028,0.187,6.113C491.023,309.905,490.913,310.294,490.804,310.683z"/>
<path fill-rule="evenodd" clip-rule="evenodd" fill="#005DA5" d="M348.174,36.694c-0.622,1.261,1.628,3.739-1.857,3.828
	c-6.883,0.173-12.404,3.853-17.946,7.394c-3.405,1.473-6.986,1.655-10.642,1.651c-35.248-0.034-70.499,0.211-105.743-0.156
	c-11.219-0.117-19.304,4.575-25.861,12.914c-11.979,15.236-18.229,33.03-22.599,51.6c-1.938,8.235-3.285,16.593-4.361,24.988
	c-0.166,1.009-0.497,1.981-0.687,2.985c-1.766,15.631-2.051,31.362-1.246,47.006c1.541,29.908,6.075,59.252,20.411,86.212
	c5.586,10.507,12.357,19.813,23.659,24.854c1.111,0.496,2.071,1.242,2.526,2.458c2.077,1.866,4.616,1.056,6.942,1.06
	c35.424,0.053,70.851,0.271,106.27-0.131c8.729-0.098,16.564,1.239,23.776,6.079c-44.195,0.007-88.424-1.034-132.579,0.313
	c-45.982,1.401-91.937,0.183-137.897,0.861c-2.338,0.034-4.867,0.781-7.011-0.937c1.752-2.181,4.284-2.088,6.665-2.094
	c40.141-0.096,80.281-0.097,120.422-0.008c1.195,0.002,2.419,0.021,3.53,0.605c-5.175-2.632-10.73-2.893-16.404-2.883
	c-35.299,0.058-70.599,0.059-105.899-0.015c-3.314-0.007-6.957,0.818-9.638-2.198c2.072-4.049,5.938-2.597,9.033-2.608
	c34.281-0.135,68.563-0.072,102.844-0.108c2.167-0.002,4.399,0.476,6.405-0.371c0.345-0.433,0.393-0.831,0.089-1.189
	c-19.265-22.748-26.557-50.24-31.413-78.755c-2.274-13.354-2.878-26.856-3.607-40.308c-0.652-12.042,0.8-24.124,2.129-36.133
	c0.068-0.67,0.132-1.344,0.165-2.014c0.008-0.654,0.05-1.313,0.098-1.966c2.482-17.531,5.803-34.87,12.095-51.514
	c4.859-12.854,10.733-25.105,20.11-35.411c1.909-2.097,3.959-3.975,6.124-5.767c6.463-4.609,13.105-8.745,21.568-7.892
	c2.82-9.604,5.763-19.173,8.395-28.83c0.924-3.392,2.309-4.754,6.111-4.738c37.699,0.166,75.4,0.14,113.1,0.033
	c3.388-0.01,4.964,0.886,5.787,4.377C343.161,18.886,345.764,27.767,348.174,36.694z"/>
<path fill-rule="evenodd" clip-rule="evenodd" fill="#103A71" d="M62.29,302.556c1.981,1.513,4.286,0.83,6.437,0.833
	c37.501,0.043,75.004,0.16,112.505-0.094c6.418-0.044,11.599,1.993,18.191,6.377c-46.471,0-91.282,0-136.093,0.002
	c-0.53,0.032-1.06,0.062-1.589,0.091c-12.277-2.306-20.521-10.201-27.534-19.827c-9.079-12.462-13.948-26.864-19.042-41.168
	c-1.18-0.372-0.858-1.076-0.399-1.811c-7.226-28.688-9.636-57.832-8.401-87.345c0.581-13.894,2.851-27.573,4.766-41.304
	c-0.631-0.641-0.55-1.173,0.243-1.597c4.453-16.312,8.75-32.681,17.216-47.537c4.418-7.755,9.502-14.985,16.471-20.717
	c3.934-3.235,8.187-6.564,13.21-6.915c7.322-0.51,9.392-4.703,10.676-10.884c1.472-7.082,3.827-13.976,5.626-20.997
	c0.748-2.917,1.997-4.178,5.318-4.167c37.95,0.132,75.902,0.131,113.853,0.007c3.509-0.012,4.842,1.13,5.703,4.488
	c2.496,9.746,5.434,19.377,8.199,29.054c-7.404,1.9-14.595,4.304-20.891,8.828c-3.332,1.862-6.987,1.673-10.613,1.673
	c-35.48,0-70.961,0.194-106.437-0.118c-10.75-0.095-18.57,4.494-24.92,12.396c-12.834,15.97-18.919,34.929-23.681,54.437
	c-0.209,1.031-0.677,1.997-0.707,3.071c-3.87,21.489-5.583,43.123-4.981,64.971c0.569,20.65,3.44,40.929,8.775,60.865
	c0.298,0.935,0.508,1.896,0.678,2.857c4.087,15.242,10.591,29.318,20.503,41.687c3.419,4.266,7.634,7.62,12.754,9.746
	C59.75,300.135,61.626,300.555,62.29,302.556z"/>
<path fill-rule="evenodd" clip-rule="evenodd" fill="#C0DEED" d="M525.733,66.857c-0.011,1.119-0.579,1.9-1.572,2.316
	c-1.319,0.555-2.228-0.014-3.034-1.111c-2.84-3.859-5.734-7.678-8.616-11.505c-0.857-1.138-0.833-2.198,0.256-3.153
	c0.828-0.725,1.798-0.794,2.8-0.428C517.248,53.592,525.752,65.223,525.733,66.857z"/>
<path fill-rule="evenodd" clip-rule="evenodd" fill="#C0DEED" d="M546.909,128.279c-0.611,2.277,0.889,5.105-2.344,5.2
	c-2.324,0.068-2.455-2.097-2.756-3.941c-0.606-3.735-1.383-7.441-2.09-11.158c-0.347-1.815,0.137-3.265,2.059-3.713
	c1.894-0.441,2.39,1.013,2.707,2.44C545.35,120.991,546.176,124.886,546.909,128.279z"/>
<path fill-rule="evenodd" clip-rule="evenodd" fill="#C0DEED" d="M546.917,221.76c-0.776,3.512-1.669,7.573-2.572,11.633
	c-0.367,1.658-1.46,2.364-3.069,2.026c-1.816-0.379-1.928-1.815-1.65-3.281c0.702-3.7,1.563-7.375,2.169-11.091
	c0.323-1.979,0.114-4.506,2.772-4.503C547.747,216.548,546.324,219.423,546.917,221.76z"/>
<path fill-rule="evenodd" clip-rule="evenodd" fill="#C0DDED" d="M525.699,283.264c0.128,2.288-8.675,13.582-10.891,13.966
	c-1.04,0.18-2.123,0.122-2.738-0.787c-0.611-0.903-0.36-1.935,0.311-2.801c2.952-3.811,5.897-7.63,8.883-11.414
	c0.809-1.025,1.851-1.56,3.155-0.789C525.117,281.852,525.833,282.262,525.699,283.264z"/>
<path fill-rule="evenodd" clip-rule="evenodd" fill="#C0DEED" d="M532.39,81.791c3.813,2.974,4.131,8.053,6.006,12.28
	c0.894,2.014,1.95,4.25-0.189,6.069c-1.436,1.221-2.745,0.282-3.313-1.184c-1.734-4.477-3.406-8.981-4.919-13.536
	C529.46,83.877,529.459,82.135,532.39,81.791z"/>
<path fill-rule="evenodd" clip-rule="evenodd" fill="#C1DEED" d="M491.131,309.517c-0.063-2.037-0.125-4.075-0.187-6.113
	c3.056,1.156,8.669-2.437,9.015,2.206C500.26,309.646,494.225,308.206,491.131,309.517z"/>
<path fill-rule="evenodd" clip-rule="evenodd" fill="#C0DEED" d="M491.055,46.612c0.046-1.659,0.093-3.318,0.139-4.979
	c2.179,0.172,4.39,0.169,6.521,0.578c1.313,0.25,2.887,0.984,2.651,2.725c-0.252,1.862-1.947,1.66-3.326,1.676
	C495.046,46.635,493.05,46.614,491.055,46.612z"/>
<path fill-rule="evenodd" clip-rule="evenodd" fill="#BEDBE4" d="M75.51,334.717c20.299,0,40.598,0,60.897,0
	c0.002,0.508,0.004,1.016,0.006,1.523c-20.306,0-40.612,0-60.918,0C75.143,335.729,75.166,335.222,75.51,334.717z"/>
<path fill-rule="evenodd" clip-rule="evenodd" fill="#BEDBE4" d="M75.51,334.717c-0.004,0.508-0.009,1.016-0.015,1.523
	c-0.221,0.906-0.174,2.344-0.713,2.613c-1.437,0.719-1.356-0.751-1.458-1.589c-0.118-0.962-0.112-1.954-0.025-2.922
	c0.093-1.041-0.396-2.822,1.25-2.634C75.92,331.864,75.272,333.65,75.51,334.717z"/>
<path fill-rule="evenodd" clip-rule="evenodd" fill="#FEFEFE" d="M364.87,189.835c4.8,0.09,6.593-1.328,6.231-6.13
	c-0.317-4.208-0.093-8.459-0.057-12.69c0.06-6.904,0.403-7.306,7.063-7.335c7.857-0.033,15.717-0.099,23.556,0.046
	c2.786,1.248,5.577,4.273,8.44,0.061c6.755,0.114,13.526-0.878,20.226,0.592c-0.106,19.854,0.304,39.69,3.757,59.307
	c1.524,8.664,3.577,17.236,5.389,25.852c-3.185,2.734-6.989,0.603-9.945,1.34c3.151,0.614,7.035-1.14,10.499,1.134
	c3.571,9.383,6.528,19.01,11.265,27.927c4.636,8.725,10.119,16.824,18.606,24.376c-3.327,0.155-5.395,0.337-7.463,0.338
	c-35.861,0.017-71.729-0.377-107.581,0.215c-13.184,0.218-22.294-5.324-29.73-15.169c-10.499-13.896-16.388-29.846-20.506-46.563
	c5.099-1.643,10.335-0.133,14.493-0.765c-4.226-0.771-9.685,1.428-14.761-1.169c-3.599-11.297-4.919-22.996-6.151-34.714
	c-0.271-2.581-0.741-5.143-1.12-7.714c-0.918-1.958-0.599-3.961-0.221-5.968c-0.376-21.499-0.101-42.959,3.884-64.195
	c2.479-13.208,5.211-26.345,10.898-38.649c5.353-0.533,10.847-2.824,15.829,1.259c1,0.82,1.046-0.363,1.2-0.687
	c1.291-2.716-1.016-3.97-2.343-5.562c-0.202-0.235-0.333-0.373-0.357-0.368c0.18,0.621,0.8,0.935,1.071,1.522
	c0.438,1.17,0.871,2.802-0.792,2.797c-4.626-0.014-9.363,1.31-13.874-0.787c3.736-11.048,9.578-20.873,17.688-29.22
	c6.131-6.312,13.442-9.526,22.672-9.445c36.527,0.317,73.06,0.13,109.59,0.13c2.003,0,4.008,0,7.139,0
	c-3.298,3.734-6.193,6.641-8.664,9.87c-13.177,17.219-19.551,37.313-24.324,58.073c-3.396,14.773-4.406,29.865-6.126,44.862
	c-6.726,2.523-13.672,0.803-20.499,1.072c-4.452-1.896-1.645-6.696-4.169-10.038c-1.759,3.331,1.337,8.131-3.232,10.041
	c-8.072,0.378-16.133,0.092-24.19,0.168c-7.197,0.068-7.202,0.048-7.229,7.494c-0.015,4.231-0.202,8.475,0.048,12.691
	c0.26,4.388-1.246,6.057-5.854,5.944"/>
<path fill-rule="evenodd" clip-rule="evenodd" fill="#2183BB" d="M296.86,190.805c0.073,1.988,0.147,3.979,0.221,5.968
	C295.332,194.845,295.497,192.847,296.86,190.805z"/>
<path fill-rule="evenodd" clip-rule="evenodd" fill="#B5CFE4" d="M264.112,129.998c0.287,1.565-0.196,2.848-1.688,3.451
	c-1.671,0.677-2.851-0.271-3.177-1.785c-1.048-4.867-1.985-9.762-2.793-14.675c-0.215-1.309,0.777-2.234,2.143-2.408
	c1.845-0.234,2.553,1.214,2.859,2.518C262.458,121.37,263.239,125.693,264.112,129.998z"/>
<path fill-rule="evenodd" clip-rule="evenodd" fill="#B5CFE4" d="M256.595,233.04c0.999-5.205,1.837-9.715,2.742-14.213
	c0.293-1.455,0.913-2.831,2.777-2.347c1.549,0.403,2.306,1.62,2.036,3.213c-0.766,4.523-1.504,9.059-2.495,13.536
	c-0.332,1.499-1.29,3.251-3.331,2.581C256.88,235.337,256.262,233.977,256.595,233.04z"/>
<path fill-rule="evenodd" clip-rule="evenodd" fill="#B4CFE4" d="M242.513,283.46c0.089,2.211-8.113,12.999-10.423,13.659
	c-0.998,0.285-1.994,0.278-2.776-0.574c-1.085-1.184-0.395-2.374,0.277-3.281c2.866-3.864,5.838-7.65,8.816-11.432
	c0.638-0.811,1.5-1.365,2.619-0.801C242.017,281.53,242.458,282.381,242.513,283.46z"/>
<path fill-rule="evenodd" clip-rule="evenodd" fill="#B4CFE4" d="M231.201,52.577c0.738,0.428,1.807,0.728,2.371,1.431
	c2.88,3.597,5.678,7.263,8.4,10.981c0.937,1.279,0.791,2.744-0.527,3.755c-1.516,1.164-2.692,0.158-3.578-0.981
	c-2.831-3.638-5.65-7.29-8.322-11.045C228.292,54.96,228.417,53.329,231.201,52.577z"/>
<path fill-rule="evenodd" clip-rule="evenodd" fill="#B4CFE4" d="M248.308,268.222c-2.022-0.334-2.095-1.712-1.433-3.507
	c1.46-3.955,2.904-7.918,4.308-11.893c0.591-1.677,1.504-3.005,3.459-2.591c2.287,0.484,1.917,2.21,1.36,3.812
	c-1.319,3.791-2.625,7.59-4.067,11.336C251.368,266.852,250.663,268.446,248.308,268.222z"/>
<path fill-rule="evenodd" clip-rule="evenodd" fill="#C0DEED" d="M384.199,66.333c0.091,1.089-0.323,1.95-1.225,2.546
	c-1.013,0.669-2.031,0.358-2.681-0.441c-3.259-4.015-6.451-8.085-9.624-12.169c-0.692-0.891-0.56-1.847,0.248-2.685
	c0.775-0.805,1.719-0.95,2.743-0.712C375.452,53.288,384.085,64.338,384.199,66.333z"/>
<path fill-rule="evenodd" clip-rule="evenodd" fill="#C0DDED" d="M372.858,297.273c-2.421-0.29-3.053-1.778-1.674-3.705
	c2.908-4.065,6.032-7.978,9.127-11.905c0.654-0.83,1.692-1.263,2.635-0.477c0.562,0.467,1.076,1.232,1.203,1.938
	C384.657,285.959,375.736,297.166,372.858,297.273z"/>
<path fill-rule="evenodd" clip-rule="evenodd" fill="#BEDDEC" d="M408.601,193.321c-0.055,1.1,0.041,3.539-0.369,5.892
	c-0.266,1.517-1.19,3.28-3.237,2.677c-1.365-0.401-2.439-1.713-1.967-3.295c1.182-3.953,0.475-7.982,0.728-11.969
	c0.117-1.866,0.269-3.956,2.624-4.031c2.818-0.091,2.109,2.339,2.199,4C408.677,188.396,408.601,190.209,408.601,193.321z"/>
<path fill-rule="evenodd" clip-rule="evenodd" fill="#BFDDED" d="M396.515,250.062c0.421,0.062,0.842,0.123,1.262,0.185
	c0.492,6.083-2.603,11.122-4.82,16.404c-0.64,1.525-2.033,1.975-3.524,1.344c-1.843-0.779-1.237-2.216-0.702-3.561
	c1.7-4.273,3.716-8.448,4.12-13.128C393.635,249.604,394.805,249.034,396.515,250.062z"/>
<path fill-rule="evenodd" clip-rule="evenodd" fill="#C1DEED" d="M408.634,160.207c-1.647,0-3.294,0-4.941,0
	c-0.061-2.563,0.198-5.115-0.713-7.647c-0.693-1.931-0.016-3.696,2.229-4.006c2.305-0.318,3.147,1.362,3.256,3.322
	C408.618,154.647,408.586,157.429,408.634,160.207z"/>
<path fill-rule="evenodd" clip-rule="evenodd" fill="#C0CBDC" d="M403.779,162.691c1.59,0,3.18,0,4.77,0
	c-0.321,1.723,1.033,4.521-1.857,4.706C403.679,167.59,403.899,164.817,403.779,162.691z"/>
<path fill-rule="evenodd" clip-rule="evenodd" fill="#F4F9FB" d="M396.515,250.062c-1.222,0.416-2.443,0.83-3.665,1.244
	c-0.438-0.014-0.876-0.026-1.314-0.041c-0.059-2.368-0.117-4.737-0.177-7.106c0.626-0.475,1.24-0.459,1.844,0.044
	C393.333,246.707,394.472,248.64,396.515,250.062z"/>
<path fill-rule="evenodd" clip-rule="evenodd" fill="#B9BFD2" d="M100.798,283.331c0.203,2.573-8.326,13.474-10.868,13.902
	c-1.091,0.185-2.01-0.105-2.598-1.051c-0.631-1.018-0.154-2.059,0.457-2.785c3.101-3.684,6.339-7.248,8.807-11.427
	c0.525-0.891,1.479-1.394,2.583-0.959C100.201,281.412,100.72,282.235,100.798,283.331z"/>
<path fill-rule="evenodd" clip-rule="evenodd" fill="#B8BFD1" d="M120.283,156.758c-0.087-1.597-0.041-3.218-0.296-4.787
	c-0.292-1.792-0.291-3.34,1.961-3.497c2.033-0.142,2.894,1.35,2.967,3.054c0.19,4.401,0.198,8.81,0.237,13.217
	c0.011,1.237-0.214,2.541-1.698,2.76c-1.676,0.248-2.806-0.84-2.918-2.341c-0.209-2.788-0.061-5.601-0.061-8.402
	C120.411,156.761,120.347,156.76,120.283,156.758z"/>
<path fill-rule="evenodd" clip-rule="evenodd" fill="#B8BED1" d="M120.264,183.625c1.147-0.049,2.293-0.097,3.44-0.146
	c1.603,6.001,0.681,12.068,0.459,18.117c0,0-0.511,0.103-0.511,0.104c-3.73,1.135-3.857-0.854-3.662-3.799
	C120.304,193.158,120.194,188.386,120.264,183.625z"/>
<path fill-rule="evenodd" clip-rule="evenodd" fill="#BBC1D3" d="M97.222,66.109c-0.442,0.021-0.886,0.042-1.329,0.065
	c-2.604-2.986-5.27-5.925-7.776-8.992c-0.832-1.019-1.841-2.392-0.466-3.716c1.486-1.431,3.027-0.814,4.166,0.494
	c2.346,2.694,4.55,5.513,6.813,8.28C98.726,63.736,98.571,65.139,97.222,66.109z"/>
<path fill-rule="evenodd" clip-rule="evenodd" fill="#C0DEED" d="M538.957,255.175c-1.576,3.233-3.395,6.973-5.223,10.708
	c-0.745,1.526-1.973,1.958-3.458,1.253c-1.678-0.794-1.449-2.217-0.837-3.576c1.548-3.434,3.245-6.805,4.703-10.276
	c0.777-1.849,1.165-4.354,3.749-3.729C540.983,250.302,538.927,252.765,538.957,255.175z"/>
<path fill-rule="evenodd" clip-rule="evenodd" fill="#B5CFE4" d="M256.006,95.94c0.485,1.515,0.171,2.85-1.231,3.639
	c-1.571,0.884-2.862,0.096-3.38-1.363c-1.663-4.693-3.219-9.428-4.651-14.197c-0.381-1.271,0.485-2.316,1.817-2.663
	c1.799-0.469,2.688,0.877,3.159,2.13C253.26,87.595,254.588,91.783,256.006,95.94z"/>
<path fill-rule="evenodd" clip-rule="evenodd" fill="#C0DEED" d="M398.83,97.804c-0.308,1.049-1.004,1.703-2.06,1.935
	c-1.186,0.26-2.023-0.397-2.342-1.377c-1.595-4.919-3.108-9.865-4.598-14.817c-0.325-1.08,0.143-1.924,1.197-2.416
	c1.014-0.472,1.946-0.269,2.816,0.322C395.365,82.484,399.442,95.902,398.83,97.804z"/>
<path fill-rule="evenodd" clip-rule="evenodd" fill="#C0DEED" d="M404.852,132.107c-0.475,0.984-1.269,1.516-2.348,1.571
	c-1.213,0.063-1.932-0.723-2.085-1.741c-0.769-5.114-1.452-10.241-2.111-15.371c-0.144-1.119,0.456-1.875,1.577-2.187
	c1.077-0.299,1.964,0.053,2.726,0.779C403.942,116.427,405.768,130.332,404.852,132.107z"/>
<path fill-rule="evenodd" clip-rule="evenodd" fill="#B5CFE4" d="M267.374,160.604c0.044,1.59-0.628,2.784-2.194,3.153
	c-1.755,0.412-2.776-0.704-2.868-2.249c-0.292-4.971-0.471-9.952-0.52-14.931c-0.013-1.326,1.109-2.089,2.485-2.053
	c1.859,0.05,2.337,1.591,2.441,2.925C267.057,151.824,267.168,156.216,267.374,160.604z"/>
<path fill-rule="evenodd" clip-rule="evenodd" fill="#B5CFE4" d="M265.003,196.031c-0.127,1.585-0.925,2.7-2.521,2.898
	c-1.79,0.221-2.685-1-2.608-2.546c0.245-4.973,0.605-9.943,1.094-14.899c0.13-1.32,1.328-1.957,2.693-1.773
	c1.842,0.251,2.152,1.834,2.111,3.173C265.634,187.27,265.271,191.647,265.003,196.031z"/>
<path fill-rule="evenodd" clip-rule="evenodd" fill="#B9BFD2" d="M114.024,255.363c0.857,2.435-4.581,15.161-6.927,16.229
	c-1.007,0.459-1.97,0.415-2.781-0.348c-0.872-0.82-0.678-1.949-0.275-2.809c2.049-4.357,4.262-8.635,5.572-13.308
	c0.278-0.995,1.07-1.727,2.25-1.591C112.953,253.662,113.667,254.324,114.024,255.363z"/>
<path fill-rule="evenodd" clip-rule="evenodd" fill="#B9BFD2" d="M123.122,220.977c1.081,2.344-3.15,15.522-5.386,16.805
	c-0.959,0.55-1.922,0.596-2.801-0.087c-0.944-0.736-0.857-1.879-0.535-2.771c1.634-4.529,3.439-8.994,4.309-13.769
	c0.185-1.018,0.905-1.819,2.092-1.794C121.896,219.383,122.669,219.976,123.122,220.977z"/>
<path fill-rule="evenodd" clip-rule="evenodd" fill="#B9BFD2" d="M107.932,77.912c2.251,1.263,6.565,14.414,5.508,16.765
	c-0.454,1.009-1.206,1.612-2.318,1.574c-1.197-0.042-1.796-1.018-2.061-1.929c-1.336-4.626-2.497-9.3-4.597-13.675
	c-0.448-0.932-0.335-2.004,0.64-2.68C106.005,77.341,106.978,77.367,107.932,77.912z"/>
<path fill-rule="evenodd" clip-rule="evenodd" fill="#B9BFD2" d="M118.492,115.022c2.146,1.435,5.421,14.882,4.184,17.143
	c-0.531,0.971-1.328,1.513-2.434,1.389c-1.19-0.135-1.711-1.154-1.904-2.083c-0.972-4.716-1.764-9.466-3.517-13.992
	c-0.374-0.964-0.179-2.024,0.847-2.622C116.615,114.303,117.583,114.405,118.492,115.022z"/>
<polygon fill-rule="evenodd" clip-rule="evenodd" fill="#FFFFFF" points="317.417,77.5 312.376,86.136 311.041,89.305 
	317.417,99.951 336.667,97.75 336.667,86.25 "/>
<polygon fill-rule="evenodd" clip-rule="evenodd" fill="#FFFFFF" points="302.926,228.78 304.352,239.2 306.882,249.549 
	335.898,251.306 335.898,235.501 "/>
<polygon fill-rule="evenodd" clip-rule="evenodd" fill="#FFFFFF" points="408.634,154.361 408.634,169.5 418.667,179.68 
	430.337,172.992 430.337,154.361 "/>
<polygon fill-rule="evenodd" clip-rule="evenodd" fill="#FFFFFF" points="438.233,241.768 443.131,258.461 428.667,259.199 
	430.337,241.768 "/>
<path fill-rule="evenodd" clip-rule="evenodd" fill="#FFFFFF" d="M-145.833,0"/>
<g>
	<path fill-rule="evenodd" clip-rule="evenodd" fill="#7D8589" d="M59.764,106.403c0.39-1.243,0.766-2.432,1.128-3.625
		c0.057-0.182,0.129-0.273,0.345-0.256c0.287,0.022,0.579,0.005,0.9,0.005c-0.201,0.571-0.395,1.114-0.586,1.656
		c-0.378,1.057-0.755,2.112-1.123,3.172c-0.059,0.17-0.125,0.262-0.327,0.243c-0.302-0.033-0.688,0.114-0.897-0.058
		c-0.193-0.158-0.215-0.521-0.309-0.793c-0.313-0.925-0.627-1.85-0.938-2.775c-0.026-0.072-0.03-0.155-0.117-0.213
		c-0.403,1.185-0.819,2.355-1.208,3.538c-0.079,0.235-0.181,0.329-0.433,0.301c-0.286-0.034-0.646,0.108-0.844-0.056
		c-0.18-0.15-0.197-0.486-0.284-0.743c-0.479-1.408-0.955-2.82-1.444-4.27c0.369,0,0.711,0.001,1.054-0.001
		c0.166,0,0.145,0.141,0.171,0.23c0.351,1.138,0.696,2.275,1.045,3.414c0.021,0.061,0.015,0.134,0.101,0.178
		c0.406-1.19,0.816-2.374,1.208-3.566c0.065-0.199,0.152-0.279,0.367-0.259c0.296,0.028,0.668-0.109,0.871,0.055
		c0.188,0.147,0.202,0.503,0.293,0.771c0.311,0.943,0.625,1.891,0.937,2.837C59.693,106.238,59.72,106.292,59.764,106.403z"/>
	<path fill-rule="evenodd" clip-rule="evenodd" fill="#7D8589" d="M68.337,103.753c-0.109,0.095-0.118,0.221-0.154,0.326
		c-0.378,1.087-0.759,2.176-1.125,3.265c-0.058,0.183-0.124,0.273-0.343,0.255c-0.303-0.029-0.686,0.084-0.898-0.059
		c-0.196-0.13-0.216-0.517-0.31-0.79c-0.451-1.328-0.895-2.66-1.351-3.984c-0.066-0.192-0.049-0.256,0.173-0.242
		c0.299,0.019,0.667-0.085,0.873,0.053c0.187,0.123,0.199,0.497,0.281,0.765c0.307,0.999,0.608,1.996,0.918,3.01
		c0.118-0.07,0.114-0.197,0.146-0.293c0.38-1.096,0.753-2.196,1.119-3.297c0.058-0.176,0.133-0.253,0.33-0.237
		c0.304,0.026,0.689-0.112,0.898,0.058c0.194,0.151,0.212,0.521,0.306,0.794c0.326,0.985,0.651,1.973,1.006,3.042
		c0.138-0.425,0.252-0.779,0.361-1.135c0.264-0.838,0.529-1.678,0.782-2.52c0.053-0.171,0.119-0.263,0.323-0.24
		c0.291,0.033,0.7-0.121,0.843,0.068c0.126,0.162-0.13,0.51-0.22,0.773c-0.47,1.331-0.951,2.658-1.414,3.99
		c-0.066,0.192-0.152,0.267-0.353,0.24c-0.098-0.014-0.202-0.002-0.3-0.002c-0.602,0-0.601,0-0.79-0.568
		C69.072,105.939,68.706,104.851,68.337,103.753z"/>
	<path fill-rule="evenodd" clip-rule="evenodd" fill="#7D8589" d="M45.52,106.426c0.305-0.894,0.587-1.721,0.869-2.552
		c0.133-0.384,0.267-0.764,0.391-1.154c0.042-0.139,0.103-0.205,0.266-0.196c0.315,0.017,0.696-0.086,0.936,0.05
		c0.229,0.129,0.226,0.533,0.32,0.814c0.333,0.987,0.653,1.976,1.001,3.036c0.219-0.686,0.417-1.311,0.612-1.938
		c0.183-0.579,0.371-1.16,0.539-1.743c0.05-0.172,0.131-0.229,0.31-0.22c0.295,0.015,0.593,0.003,0.919,0.003
		c-0.318,0.91-0.626,1.783-0.935,2.658c-0.256,0.723-0.518,1.438-0.764,2.16c-0.063,0.182-0.13,0.271-0.349,0.253
		c-0.294-0.026-0.675,0.09-0.872-0.05c-0.197-0.137-0.222-0.515-0.316-0.789c-0.335-0.994-0.668-1.988-1.032-3.065
		c-0.158,0.456-0.293,0.832-0.421,1.21c-0.283,0.823-0.567,1.645-0.845,2.468c-0.049,0.156-0.114,0.242-0.303,0.225
		c-0.315-0.032-0.708,0.117-0.927-0.058c-0.202-0.162-0.226-0.536-0.322-0.818c-0.446-1.318-0.887-2.64-1.343-3.956
		c-0.065-0.192-0.049-0.256,0.172-0.242c0.299,0.02,0.675-0.087,0.871,0.055c0.196,0.135,0.212,0.517,0.295,0.791
		C44.896,104.364,45.199,105.361,45.52,106.426z"/>
	<path fill-rule="evenodd" clip-rule="evenodd" fill="#7D8589" d="M72.147,108.524c-0.329-0.101-0.654,0.076-0.799,0.432
		c-0.044,0.119-0.083,0.236-0.124,0.356c-0.477,1.364-1.164,2.62-2.05,3.773c-0.077,0.098-0.129,0.197-0.305,0.104
		c-1.164-0.616-2.404-1.061-3.683-1.392c-0.191-0.053-0.201-0.123-0.159-0.284c0.203-0.736,0.354-1.486,0.477-2.239
		c0.025-0.167,0.02-0.327-0.066-0.477c-0.148-0.253-0.387-0.332-0.662-0.279c-0.299,0.062-0.436,0.291-0.481,0.563
		c-0.121,0.723-0.272,1.442-0.449,2.154c-0.042,0.163-0.101,0.222-0.282,0.183c-1.604-0.328-3.225-0.505-4.863-0.526
		c-0.176-0.002-0.214-0.062-0.211-0.221c0.009-0.466-0.002-0.929,0.006-1.394c0.002-0.149-0.038-0.203-0.198-0.195
		c-0.269,0.012-0.541,0.012-0.809,0c-0.164-0.008-0.223,0.033-0.219,0.204c0.011,0.434-0.012,0.871,0.01,1.306
		c0.012,0.246-0.069,0.301-0.314,0.303c-1.499,0.016-2.981,0.18-4.452,0.46c-0.555,0.104-0.551,0.108-0.674-0.434
		c-0.137-0.612-0.266-1.229-0.372-1.847c-0.067-0.399-0.371-0.623-0.723-0.569c-0.346,0.055-0.546,0.374-0.484,0.771
		c0.113,0.727,0.257,1.445,0.452,2.155c0.067,0.243,0.036,0.329-0.222,0.395c-1.245,0.311-2.439,0.763-3.574,1.351
		c-0.182,0.095-0.244,0.021-0.332-0.094c-0.564-0.737-1.052-1.521-1.455-2.355c-0.28-0.576-0.501-1.173-0.717-1.774
		c-0.136-0.367-0.477-0.537-0.799-0.429c-0.306,0.102-0.478,0.449-0.37,0.787c0.51,1.557,1.248,3.005,2.241,4.329
		c1.356,1.808,3.048,3.259,5.075,4.331c1.602,0.845,3.309,1.404,5.122,1.651c0.295,0.039,0.61,0.009,0.884,0.16
		c0.081,0,0.16,0,0.24,0c0.033-0.099,0.115-0.044,0.178-0.047c0.064-0.005,0.139-0.041,0.182,0.047c0.477,0,0.957,0,1.435,0
		c0.04-0.085,0.115-0.052,0.183-0.047c0.062,0.003,0.143-0.054,0.176,0.047c0.042,0,0.081,0,0.12,0
		c0.022-0.082,0.093-0.051,0.147-0.057c0.911-0.093,1.815-0.234,2.7-0.471c2.284-0.613,4.319-1.676,6.09-3.194
		c1.844-1.581,3.221-3.491,4.125-5.713c0.139-0.332,0.254-0.672,0.366-1.009C72.628,108.971,72.466,108.62,72.147,108.524z
		 M54.015,118.062c-0.272-0.081-0.547-0.156-0.816-0.249c-2.061-0.711-3.854-1.826-5.39-3.335c-0.027-0.027-0.052-0.058-0.085-0.08
		c-0.192-0.151-0.152-0.237,0.062-0.334c1.021-0.46,2.067-0.844,3.15-1.143c0.246-0.065,0.243,0.069,0.286,0.2
		c0.508,1.449,1.168,2.828,2.122,4.06c0.222,0.282,0.465,0.549,0.697,0.824C54.031,118.023,54.023,118.043,54.015,118.062z
		 M57.028,118.469c-0.864-0.235-1.553-0.735-2.146-1.36c-1.185-1.242-1.913-2.737-2.486-4.314c-0.044-0.128-0.056-0.196,0.127-0.233
		c1.507-0.297,3.032-0.441,4.569-0.494c0.216-0.008,0.182,0.116,0.182,0.238c0,0.998,0,1.993,0,2.988
		c0,0.999-0.005,1.995,0.004,2.99C57.28,118.49,57.237,118.526,57.028,118.469z M58.73,118.474c-0.224,0.06-0.242-0.009-0.242-0.196
		c0.005-1.992,0.006-3.986-0.001-5.979c-0.001-0.196,0.057-0.25,0.253-0.23c0.187,0.017,0.376,0.003,0.565,0.003
		c1.287,0.089,2.561,0.23,3.827,0.464c0.229,0.041,0.301,0.098,0.208,0.346c-0.572,1.504-1.261,2.94-2.383,4.145
		C60.344,117.689,59.634,118.222,58.73,118.474z M67.985,114.45c-1.496,1.475-3.237,2.582-5.241,3.298
		c-0.347,0.125-0.69,0.258-1.094,0.299c0.694-0.687,1.224-1.439,1.683-2.241c0.501-0.87,0.897-1.782,1.222-2.725
		c0.045-0.131,0.071-0.208,0.257-0.16c1.078,0.284,2.117,0.665,3.123,1.128C68.244,114.193,68.239,114.201,67.985,114.45z"/>
	<path fill-rule="evenodd" clip-rule="evenodd" fill="#7D8589" d="M72.519,100.524c-0.506-1.554-1.244-3.002-2.236-4.325
		c-1.359-1.809-3.05-3.258-5.075-4.329c-1.603-0.851-3.309-1.407-5.123-1.654c-0.336-0.044-0.687-0.023-1.006-0.163
		c-0.039,0-0.078,0-0.12,0c-0.033,0.102-0.114,0.047-0.176,0.05c-0.067,0.006-0.143,0.035-0.183-0.05c-0.478,0-0.958,0-1.435,0
		c-0.043,0.087-0.118,0.055-0.182,0.05c-0.063-0.003-0.145,0.05-0.178-0.05c-0.06,0-0.121,0-0.18,0
		c-0.022,0.082-0.091,0.058-0.145,0.063c-0.891,0.097-1.774,0.236-2.641,0.466c-2.283,0.61-4.318,1.673-6.089,3.194
		c-1.846,1.581-3.221,3.491-4.128,5.713c-0.137,0.33-0.253,0.668-0.366,1.008c-0.12,0.367,0.04,0.714,0.359,0.813
		c0.327,0.1,0.656-0.077,0.8-0.432c0.045-0.117,0.085-0.235,0.125-0.357c0.476-1.361,1.161-2.618,2.046-3.772
		c0.077-0.1,0.132-0.2,0.307-0.107c1.166,0.62,2.404,1.062,3.685,1.398c0.188,0.051,0.201,0.118,0.157,0.28
		c-0.203,0.739-0.351,1.486-0.476,2.242c-0.025,0.167-0.02,0.325,0.068,0.474c0.146,0.256,0.381,0.335,0.657,0.28
		c0.303-0.061,0.438-0.289,0.484-0.561c0.12-0.724,0.274-1.441,0.45-2.158c0.038-0.159,0.099-0.219,0.28-0.183
		c1.603,0.333,3.226,0.507,4.864,0.527c0.174,0.001,0.217,0.062,0.214,0.222c-0.009,0.464,0.001,0.928-0.006,1.395
		c-0.002,0.143,0.029,0.205,0.195,0.196c0.259-0.013,0.52-0.014,0.778,0c0.186,0.01,0.261-0.031,0.253-0.233
		c-0.016-0.423,0.009-0.849-0.01-1.275c-0.012-0.241,0.063-0.307,0.31-0.308c1.479-0.011,2.942-0.175,4.392-0.445
		c0.612-0.113,0.602-0.125,0.746,0.479c0.139,0.592,0.258,1.189,0.362,1.79c0.07,0.399,0.371,0.624,0.724,0.572
		c0.347-0.058,0.543-0.378,0.484-0.771c-0.115-0.728-0.257-1.449-0.455-2.158c-0.063-0.239-0.036-0.329,0.223-0.391
		c1.246-0.314,2.442-0.762,3.575-1.356c0.182-0.092,0.241-0.021,0.331,0.095c0.567,0.741,1.052,1.524,1.457,2.354
		c0.28,0.578,0.501,1.178,0.719,1.775c0.135,0.369,0.472,0.539,0.797,0.432C72.456,101.211,72.63,100.864,72.519,100.524z
		 M51.229,96.714c-0.067,0.195-0.13,0.249-0.349,0.186c-1.069-0.299-2.112-0.667-3.113-1.144c-0.175-0.083-0.226-0.137-0.066-0.295
		c1.745-1.736,3.802-2.968,6.203-3.657c0.035-0.01,0.075-0.007,0.186-0.013c-0.548,0.592-1.008,1.168-1.397,1.796
		C52.081,94.577,51.596,95.621,51.229,96.714z M57.274,94.549c0,0.98-0.005,1.958,0.004,2.935c0.002,0.21-0.029,0.297-0.286,0.287
		c-1.458-0.062-2.902-0.207-4.337-0.461c-0.271-0.048-0.316-0.136-0.222-0.387c0.567-1.494,1.261-2.92,2.374-4.116
		c0.604-0.648,1.297-1.167,2.175-1.428c0.229-0.068,0.301-0.045,0.297,0.212C57.266,92.577,57.274,93.563,57.274,94.549z
		 M63.225,97.278c-1.499,0.294-3.015,0.437-4.541,0.493c-0.202,0.007-0.194-0.093-0.194-0.23c0.003-1.004,0.001-2.009,0.001-3.018
		c0-0.986,0.006-1.973-0.004-2.962c-0.002-0.221,0.048-0.25,0.266-0.189c0.882,0.25,1.579,0.769,2.182,1.41
		c1.155,1.229,1.86,2.706,2.43,4.253C63.422,97.181,63.405,97.244,63.225,97.278z M67.939,95.789
		c-0.983,0.448-1.992,0.819-3.037,1.106c-0.215,0.06-0.299,0.026-0.373-0.189c-0.494-1.458-1.167-2.828-2.119-4.06
		c-0.224-0.294-0.468-0.571-0.763-0.855c0.314,0.01,0.567,0.109,0.817,0.194c2.12,0.724,3.97,1.86,5.542,3.421
		C68.245,95.644,68.246,95.649,67.939,95.789z"/>
</g>
<g>
	<path fill-rule="evenodd" clip-rule="evenodd" fill="#7D8589" d="M179.733,160.209c0-3.941-0.004-7.886,0.001-11.827
		c0.003-1.546,0.36-1.89,1.937-1.895c1.38-0.004,2.758-0.011,4.14-0.002c1.187,0.007,1.644,0.42,1.649,1.572
		c0.015,3.846,0.01,7.688-0.002,11.535c-0.001,0.317-0.071,0.649-0.18,0.955c-1.052,2.894-0.963,5.751-0.049,8.685
		c0.358,1.144,0.21,2.464,0.16,3.703c-0.026,0.665-0.603,0.976-1.271,0.977c-1.679,0.004-3.354,0.018-5.031-0.012
		c-0.943-0.017-1.349-0.53-1.351-1.66C179.728,168.229,179.733,164.221,179.733,160.209z"/>
	<path fill-rule="evenodd" clip-rule="evenodd" fill="#7D8589" d="M177.229,164.23c0,2.629,0.01,5.259-0.004,7.889
		c-0.005,1.453-0.349,1.782-1.82,1.79c-1.447,0.01-2.892,0.016-4.34,0.003c-1.118-0.012-1.571-0.43-1.573-1.553
		c-0.013-5.457-0.015-10.912,0.002-16.369c0.003-1.066,0.447-1.472,1.528-1.486c1.513-0.022,3.024-0.017,4.535-0.005
		c1.276,0.011,1.658,0.382,1.665,1.645c0.013,2.693,0.004,5.396,0.004,8.087C177.226,164.23,177.227,164.23,177.229,164.23z"/>
	<path fill-rule="evenodd" clip-rule="evenodd" fill="#7D8589" d="M194.562,144.681c2.517-3.219,4.964-6.35,7.417-9.488
		c-0.599-0.541-1.145-1.037-1.928-1.745c2.284-0.661,4.294-1.24,6.538-1.892c-0.201,2.309-0.381,4.398-0.589,6.798
		c-0.847-0.64-1.454-1.097-2.146-1.618c-0.227,0.277-0.456,0.54-0.669,0.819c-2.415,3.078-4.824,6.158-7.236,9.238
		c-0.925,1.179-1.444,1.21-2.554,0.141c-3.265-3.149-6.527-6.299-9.792-9.451c-0.232-0.225-0.47-0.434-0.777-0.716
		c-0.745,1.028-1.456,2.004-2.162,2.983c-2.1,2.905-4.198,5.808-6.295,8.711c-0.136,0.187-0.261,0.381-0.41,0.554
		c-0.495,0.595-1.105,0.741-1.728,0.265c-0.591-0.449-0.612-1.073-0.202-1.664c0.83-1.185,1.683-2.351,2.532-3.523
		c2.251-3.116,4.499-6.234,6.752-9.35c0.949-1.311,1.504-1.361,2.67-0.234c3.29,3.173,6.575,6.346,9.863,9.519
		C194.061,144.235,194.28,144.424,194.562,144.681z"/>
	<path fill-rule="evenodd" clip-rule="evenodd" fill="#7D8589" d="M207.868,156.792c-1.121-0.832-2.171-1.785-3.376-2.455
		c-1.102-0.615-2.357-0.966-3.578-1.322c-0.516-0.15-0.692-0.322-0.687-0.848c0.021-2.196-0.004-4.396,0.015-6.597
		c0.01-1.059,0.446-1.495,1.503-1.508c1.613-0.023,3.221-0.01,4.83-0.003c0.811,0.002,1.363,0.38,1.367,1.215
		c0.02,3.812,0,7.625-0.009,11.428C207.932,156.749,207.863,156.798,207.868,156.792z"/>
	<path fill-rule="evenodd" clip-rule="evenodd" fill="#7D8589" d="M197.707,152.582c-1.506,0.465-2.902,0.762-4.169,1.335
		c-1.228,0.563-2.323,1.408-3.542,2.172c0-1.623-0.045-3.249,0.018-4.872c0.028-0.749,0.553-1.181,1.324-1.19
		c1.675-0.011,3.352-0.014,5.027,0.005c0.872,0.013,1.319,0.495,1.339,1.366C197.715,151.819,197.707,152.245,197.707,152.582z"/>
	<path fill-rule="evenodd" clip-rule="evenodd" fill="#7D8589" d="M213.354,174.997c-2.05-1.292-4.089-2.608-6.133-3.912
		c3.891-6.212,1.147-12.171-2.444-14.738c-4.134-2.953-9.804-2.565-13.486,0.978c-3.598,3.464-4.257,9.156-1.524,13.272
		c1.432,2.157,3.375,3.666,5.879,4.381c3.258,0.932,6.291,0.347,9.123-1.519c0.221,0.341,0.402,0.61,0.577,0.889
		c1.17,1.82,2.318,3.658,3.51,5.473c0.859,1.299,2.274,1.839,3.673,1.479c1.441-0.367,2.456-1.513,2.574-3.008
		C215.219,176.848,214.571,175.771,213.354,174.997z M198.87,173.116c-4.684,0.067-8.431-3.502-8.513-8.116
		c-0.083-4.526,3.593-8.274,8.187-8.333c4.514-0.061,8.215,3.548,8.303,8.106C206.936,169.223,203.272,173.051,198.87,173.116z"/>
</g>
<text transform="matrix(1 0 0 1 84.8125 29.0005)" fill="#FFFFFF" font-family="'MyriadPro-Semibold'" font-size="15">Coleta de Dados</text>
<g>
	<g>
		<path fill-rule="evenodd" clip-rule="evenodd" fill="#7D8589" d="M53.521,214.901c-0.942,0.006-1.739-0.202-2.409-0.767
			c-0.4-0.336-0.651-0.737-0.613-1.305c0.037-0.592,0.008-1.187,0.008-1.772c0.955,0.179,1.87,0.348,2.782,0.539
			c0.092,0.023,0.221,0.157,0.223,0.245C53.526,212.838,53.521,213.839,53.521,214.901z"/>
		<path fill-rule="evenodd" clip-rule="evenodd" fill="#7D8589" d="M43.883,187.342c-0.177,0.033-0.177,0.745,0,0.726
			c7.263-0.896,14.052-0.673,14.052-0.673v-0.594C57.935,186.801,50.077,186.416,43.883,187.342z"/>
		<path fill-rule="evenodd" clip-rule="evenodd" fill="#7D8589" d="M43.839,190.224c-0.085,0.012-0.432,0.489-0.346,0.48
			c7.801-0.83,14.617-0.377,14.617-0.377l-0.237-0.465C57.873,189.862,49.704,189.385,43.839,190.224z"/>
		<path fill-rule="evenodd" clip-rule="evenodd" fill="#7D8589" d="M74.387,191.249c-0.431-0.491-0.95-0.964-1.525-1.252
			c-1.048-0.53-2.14-0.997-3.261-1.357c-2.689-0.865-5.48-1.269-8.285-1.563c-1.152-0.121-2.309-0.189-3.489-0.284
			c0,0.245,0,0.418,0,0.61c0.251,0.028,0.361,0.04,0.342,0.038c2.167,0.292,4.338,0.527,6.494,0.883
			c1.661,0.279,3.293,0.733,4.778,1.558c0.567,0.317,1.061,0.777,1.535,1.233c0.229,0.218,0.356,0.569,0.161,0.874
			c-4.286-1.781-8.8-1.83-13.264-2.126c-0.154,0.419,0.042,0.455,0.334,0.474c1.953,0.126,3.919,0.182,5.86,0.434
			c1.823,0.232,3.622,0.667,5.422,1.059c0.504,0.112,0.969,0.393,1.605,0.663c-0.526,0.398-0.881,0.778-1.319,0.978
			c-1.024,0.473-2.061,0.949-3.142,1.261c-3.06,0.895-6.214,1.249-9.39,1.402c-4.84,0.243-9.655,0.072-14.418-0.897
			c-1.667-0.341-3.315-0.768-4.828-1.573c-0.501-0.266-0.948-0.631-1.475-0.986c0.778-0.656,1.588-0.955,2.417-1.139
			c1.454-0.311,2.924-0.558,4.387-0.805c0.562-0.097,0.566-0.071,0.514-0.508c-2.576,0.353-5.178,0.574-7.492,1.953
			c-0.213-0.403-0.128-0.8,0.146-1.089c0.342-0.377,0.712-0.801,1.161-1.002c1.143-0.521,2.318-0.984,3.513-1.377
			c0.881-0.288,1.81-0.436,2.716-0.642c0-0.243,0-0.447,0-0.726c-2.826,0.428-5.583,0.922-8.16,2.074
			c-0.846,0.377-1.668,0.885-2.363,1.496c-1.04,0.91-0.994,2.078-0.021,3.059c0.249,0.256,0.548,0.455,0.822,0.682
			c0.349,0.286,0.725,0.543,1.04,0.862c4.499,4.601,8.962,9.239,13.508,13.793c1.014,1.019,1.615,2.021,1.38,3.464
			c-0.135,0.844,0.331,1.425,0.972,1.883c1.338,0.95,3.969,0.954,5.316,0.006c0.64-0.453,1.066-1.022,0.995-1.878
			c-0.04-0.515-0.038-1.039,0.006-1.554c0.022-0.258,0.125-0.574,0.303-0.755c4.738-4.892,9.492-9.771,14.253-14.633
			c0.459-0.473,1.002-0.86,1.5-1.3c0.327-0.282,0.68-0.557,0.953-0.891C74.994,192.899,75.022,191.973,74.387,191.249z
			 M36.101,195.804c-0.021-0.026-0.027-0.06-0.065-0.133c0.126,0.028,0.226,0.04,0.315,0.072c1.878,0.718,3.831,1.171,5.811,1.513
			c0.349,0.059,0.607,0.183,0.838,0.487c3.295,4.321,6.608,8.644,9.914,12.958c0.093,0.125,0.175,0.262,0.263,0.391
			c-0.029,0.035-0.06,0.071-0.092,0.106c-0.797-0.201-1.596-0.396-2.386-0.614c-0.176-0.055-0.349-0.177-0.478-0.311
			C45.51,205.451,40.806,200.625,36.101,195.804z M53.521,214.901c-0.942,0.006-1.739-0.202-2.409-0.767
			c-0.4-0.336-0.651-0.737-0.613-1.305c0.037-0.592,0.008-1.187,0.008-1.772c0.955,0.179,1.87,0.348,2.782,0.539
			c0.092,0.023,0.221,0.157,0.223,0.245C53.526,212.838,53.521,213.839,53.521,214.901z"/>
	</g>
	<rect x="54.699" y="170.414" fill-rule="evenodd" clip-rule="evenodd" fill="#C4C6C8" width="12.063" height="12.068"/>
	<rect x="47.673" y="177.908" fill-rule="evenodd" clip-rule="evenodd" fill="#A3A5A8" width="5.644" height="6.031"/>
	<rect x="47.673" y="187.295" fill-rule="evenodd" clip-rule="evenodd" fill="#C4C6C8" width="5.644" height="6.035"/>
	<rect x="43.148" y="185.142" fill-rule="evenodd" clip-rule="evenodd" fill="#A3A5A8" width="2.917" height="2.922"/>
	<rect x="56.652" y="187.668" fill-rule="evenodd" clip-rule="evenodd" fill="#D2D5D4" width="2.917" height="2.923"/>
	<rect x="53.537" y="193.036" fill-rule="evenodd" clip-rule="evenodd" fill="#C4C6C8" width="2.922" height="2.917"/>
	<rect x="55.168" y="216.544" fill-rule="evenodd" clip-rule="evenodd" fill="#A3A5A8" width="2.188" height="2.188"/>
	<rect x="52.823" y="218.633" fill-rule="evenodd" clip-rule="evenodd" fill="#C4C6C8" width="2.188" height="2.191"/>
	<rect x="55.656" y="220.017" fill-rule="evenodd" clip-rule="evenodd" fill="#D2D5D4" width="1.604" height="1.605"/>
	<rect x="51.206" y="216.06" fill-rule="evenodd" clip-rule="evenodd" fill="#C4C6C8" width="1.604" height="1.603"/>
</g>
<g>
	<g>
		
			<line fill="none" stroke="#BF1B00" stroke-width="0.75" stroke-miterlimit="10" x1="57.491" y1="124.041" x2="57.491" y2="160.503"/>
		<g>
			<path fill="#BF1B00" d="M57.491,159.156l2.702-1.643l0.062,0.092l-1.751,4.406c-0.337,1.535-0.675,3.07-1.013,4.605
				c-0.338-1.535-0.675-3.07-1.014-4.605l-1.75-4.406l0.046-0.092L57.491,159.156z"/>
		</g>
	</g>
</g>
<g>
	<path fill-rule="evenodd" clip-rule="evenodd" fill="#FFFFFF" d="M87.822,246.003c0.329,0.245,0.661,0.492,0.984,0.735
		c-0.32,0.237-0.653,0.478-0.984,0.714C87.822,246.972,87.822,246.488,87.822,246.003z"/>
	<path fill-rule="evenodd" clip-rule="evenodd" fill="#FFFFFF" d="M87.822,247.815c0.329,0.216,0.66,0.43,0.996,0.646
		c-0.334,0.243-0.667,0.49-0.996,0.729C87.822,248.739,87.822,248.276,87.822,247.815z"/>
	<path fill-rule="evenodd" clip-rule="evenodd" fill="#FFFFFF" d="M123.673,248.584c-0.138,0.083-0.247,0.162-0.359,0.224
		c-4.292,2.487-8.583,4.97-12.873,7.459c-0.187,0.111-0.329,0.165-0.552,0.036c-5.33-3.103-10.664-6.195-16-9.286
		c-0.084-0.045-0.164-0.104-0.278-0.173c0.116-0.078,0.209-0.14,0.305-0.197c1.004-0.585,2.005-1.162,3.009-1.742
		c0.481-0.284,0.483-0.604,0.001-0.883c-1.19-0.692-2.382-1.379-3.57-2.072c-0.113-0.063-0.226-0.136-0.377-0.225
		c0.103-0.071,0.173-0.123,0.248-0.169c2.964-1.72,5.93-3.438,8.892-5.168c0.202-0.113,0.349-0.117,0.555-0.003
		c6.896,4.01,13.798,8.012,20.698,12.013C123.465,248.449,123.554,248.507,123.673,248.584z M109.424,254.575
		c0.136-0.064,0.274-0.112,0.395-0.18c3.311-1.919,6.622-3.839,9.928-5.762c0.507-0.294,0.5-0.643-0.013-0.938
		c-3.832-2.224-7.663-4.442-11.493-6.669c-0.268-0.154-0.495-0.171-0.771-0.01c-3.316,1.933-6.639,3.856-9.958,5.783
		c-0.474,0.271-0.48,0.625-0.013,0.897c3.861,2.239,7.724,4.478,11.588,6.72C109.189,254.474,109.3,254.521,109.424,254.575z"/>
	<path fill-rule="evenodd" clip-rule="evenodd" fill="#FFFFFF" d="M89.146,245.866c0.977-0.564,1.905-1.101,2.888-1.669
		c0.072,0.538,0.138,1.034,0.202,1.529c0.022,0.161,0.072,0.33,0.06,0.498c-0.05,0.678,0.332,1.012,0.883,1.329
		c5.47,3.146,10.929,6.316,16.379,9.495c0.434,0.249,0.747,0.244,1.18-0.004c3.894-2.282,7.8-4.537,11.708-6.804
		c0.568-0.329,0.568-0.33,1.146,0.108c-0.116,0.071-0.227,0.146-0.337,0.208c-4.247,2.465-8.496,4.929-12.742,7.397
		c-0.184,0.108-0.322,0.133-0.521,0.017c-6.875-3.997-13.755-7.979-20.635-11.971C89.305,245.973,89.255,245.939,89.146,245.866z"/>
	<path fill-rule="evenodd" clip-rule="evenodd" fill="#FFFFFF" d="M89.163,247.621c0.541-0.409,0.541-0.409,1.03-0.127
		c6.515,3.772,13.028,7.545,19.538,11.334c0.375,0.219,0.655,0.21,1.023-0.006c3.917-2.287,7.85-4.553,11.763-6.85
		c0.427-0.249,0.713-0.215,1.053,0.11c-0.092,0.058-0.18,0.116-0.27,0.175c-4.271,2.476-8.54,4.95-12.805,7.433
		c-0.204,0.12-0.35,0.118-0.552-0.001c-6.825-3.967-13.654-7.922-20.479-11.88C89.372,247.758,89.282,247.697,89.163,247.621z"/>
	<path fill-rule="evenodd" clip-rule="evenodd" fill="#FFFFFF" d="M123.572,253.826c-0.106,0.065-0.217,0.134-0.326,0.202
		c-4.248,2.464-8.499,4.927-12.744,7.391c-0.182,0.105-0.32,0.15-0.523,0.025c-6.875-3.991-13.754-7.975-20.636-11.967
		c-0.049-0.029-0.099-0.068-0.149-0.102c0.368-0.401,0.5-0.427,0.932-0.182c6.526,3.788,13.052,7.563,19.57,11.361
		c0.384,0.222,0.668,0.218,1.055-0.003c3.904-2.285,7.829-4.542,11.73-6.832C122.905,253.476,123.22,253.463,123.572,253.826z"/>
	<path fill-rule="evenodd" clip-rule="evenodd" fill="#FFFFFF" d="M93.102,246.185c-0.156-1.256-0.299-2.443-0.456-3.711
		c1.174,0.684,2.274,1.321,3.425,1.983C95.071,245.041,94.12,245.593,93.102,246.185z"/>
	<g>
		<path fill-rule="evenodd" clip-rule="evenodd" fill="#7D8589" d="M87.822,245.714c0.172-0.125,0.333-0.268,0.517-0.377
			c1.102-0.643,2.208-1.292,3.321-1.927c0.197-0.106,0.273-0.222,0.23-0.45c-0.055-0.307-0.052-0.628-0.119-0.937
			c-0.083-0.377,0.043-0.6,0.377-0.79c3.18-1.828,6.355-3.673,9.528-5.51c0.105-0.064,0.215-0.113,0.312-0.182
			c0.281-0.213,0.538-0.169,0.834,0.005c3.367,1.962,6.739,3.911,10.114,5.864c3.81,2.212,7.619,4.419,11.433,6.629
			c0.104,0.057,0.21,0.111,0.309,0.186c0.305,0.207,0.301,0.528-0.012,0.729c-0.128,0.083-0.271,0.157-0.404,0.232
			c-0.135,0.085-0.264,0.162-0.423,0.258c0.282,0.167,0.533,0.309,0.78,0.46c0.426,0.261,0.432,0.604,0.011,0.86
			c-0.227,0.142-0.454,0.275-0.68,0.412c-0.007,0.005-0.007,0.019-0.021,0.063c0.215,0.133,0.444,0.257,0.667,0.395
			c0.438,0.27,0.436,0.613-0.01,0.88c-0.221,0.136-0.449,0.267-0.719,0.43c0.262,0.147,0.48,0.274,0.695,0.406
			c0.481,0.281,0.483,0.629-0.002,0.912c-1.752,1.021-3.507,2.038-5.262,3.051c-2.912,1.694-5.823,3.384-8.736,5.068
			c-0.07,0.039-0.13,0.099-0.198,0.148c-0.096,0-0.192,0-0.289,0c-0.095-0.067-0.188-0.146-0.288-0.202
			c-7.167-4.156-14.331-8.306-21.495-12.465c-0.174-0.101-0.313-0.252-0.47-0.381c0-0.099,0-0.191,0-0.293
			c0.33-0.238,0.662-0.485,0.996-0.729c-0.336-0.217-0.667-0.431-0.996-0.646c0-0.12,0-0.241,0-0.363
			c0.331-0.236,0.665-0.477,0.984-0.714c-0.324-0.243-0.655-0.49-0.984-0.735C87.822,245.909,87.822,245.813,87.822,245.714z
			 M123.673,248.584c-0.119-0.077-0.208-0.135-0.302-0.187c-6.899-4.001-13.802-8.003-20.698-12.013
			c-0.207-0.114-0.354-0.11-0.555,0.003c-2.962,1.73-5.928,3.448-8.892,5.168c-0.075,0.046-0.146,0.098-0.248,0.169
			c0.152,0.089,0.264,0.162,0.377,0.225c1.188,0.693,2.38,1.38,3.57,2.072c0.482,0.278,0.48,0.599-0.001,0.883
			c-1.003,0.58-2.005,1.157-3.009,1.742c-0.096,0.058-0.189,0.119-0.305,0.197c0.115,0.069,0.194,0.128,0.278,0.173
			c5.335,3.091,10.669,6.184,16,9.286c0.224,0.129,0.365,0.075,0.552-0.036c4.29-2.489,8.582-4.972,12.873-7.459
			C123.426,248.746,123.535,248.667,123.673,248.584z M89.146,245.866c0.109,0.073,0.159,0.106,0.21,0.135
			c6.88,3.992,13.76,7.974,20.635,11.971c0.198,0.116,0.336,0.092,0.521-0.017c4.246-2.469,8.495-4.933,12.742-7.397
			c0.11-0.062,0.221-0.137,0.337-0.208c-0.578-0.438-0.578-0.438-1.146-0.108c-3.908,2.267-7.814,4.521-11.708,6.804
			c-0.433,0.248-0.746,0.253-1.18,0.004c-5.45-3.179-10.909-6.35-16.379-9.495c-0.551-0.317-0.933-0.651-0.883-1.329
			c0.012-0.168-0.038-0.337-0.06-0.498c-0.064-0.495-0.129-0.991-0.202-1.529C91.051,244.766,90.123,245.302,89.146,245.866z
			 M89.163,247.621c0.119,0.076,0.208,0.137,0.302,0.188c6.825,3.958,13.654,7.913,20.479,11.88
			c0.202,0.119,0.348,0.121,0.552,0.001c4.265-2.482,8.534-4.957,12.805-7.433c0.09-0.059,0.177-0.117,0.27-0.175
			c-0.34-0.325-0.626-0.359-1.053-0.11c-3.913,2.297-7.847,4.563-11.763,6.85c-0.369,0.216-0.648,0.225-1.023,0.006
			c-6.51-3.789-13.023-7.562-19.538-11.334C89.704,247.212,89.704,247.212,89.163,247.621z M123.572,253.826
			c-0.352-0.363-0.667-0.351-1.091-0.105c-3.902,2.29-7.826,4.547-11.73,6.832c-0.387,0.221-0.671,0.225-1.055,0.003
			c-6.518-3.798-13.043-7.573-19.57-11.361c-0.432-0.245-0.564-0.22-0.932,0.182c0.05,0.033,0.101,0.072,0.149,0.102
			c6.881,3.992,13.761,7.976,20.636,11.967c0.203,0.125,0.341,0.08,0.523-0.025c4.246-2.464,8.496-4.927,12.744-7.391
			C123.355,253.96,123.465,253.892,123.572,253.826z M93.102,246.185c1.018-0.592,1.97-1.144,2.969-1.728
			c-1.151-0.662-2.25-1.3-3.425-1.983C92.802,243.741,92.945,244.929,93.102,246.185z"/>
		<path fill-rule="evenodd" clip-rule="evenodd" fill="#7D8589" d="M109.424,254.575c-0.124-0.054-0.234-0.102-0.337-0.158
			c-3.864-2.242-7.727-4.48-11.588-6.72c-0.467-0.272-0.461-0.626,0.013-0.897c3.319-1.927,6.642-3.851,9.958-5.783
			c0.276-0.161,0.503-0.145,0.771,0.01c3.83,2.227,7.661,4.445,11.493,6.669c0.513,0.296,0.52,0.645,0.013,0.938
			c-3.307,1.923-6.617,3.843-9.928,5.762C109.698,254.463,109.56,254.511,109.424,254.575z M107.007,245.072
			c0.479,0.275,0.922,0.538,1.371,0.787c0.06,0.03,0.166,0.022,0.225-0.009c0.346-0.189,0.683-0.392,1.034-0.592
			c-1.304-0.966-1.433-0.977-2.552-0.258C107.075,245.006,107.067,245.015,107.007,245.072z M107.612,246.435
			c-0.491-0.292-0.915-0.543-1.344-0.785c-0.065-0.035-0.171-0.067-0.227-0.041c-0.363,0.196-0.716,0.406-1.113,0.636
			c0.484,0.281,0.907,0.539,1.337,0.771c0.08,0.043,0.213,0.056,0.289,0.018C106.895,246.857,107.221,246.657,107.612,246.435z
			 M118.819,248.166c-0.496-0.281-0.93-0.542-1.37-0.783c-0.062-0.033-0.169-0.046-0.226-0.018c-0.356,0.191-0.705,0.4-1.088,0.618
			c0.475,0.281,0.896,0.53,1.329,0.771c0.086,0.044,0.237,0.05,0.322,0.008C118.119,248.591,118.433,248.396,118.819,248.166z
			 M114.717,250.549c-0.49-0.283-0.911-0.532-1.339-0.769c-0.067-0.045-0.174-0.082-0.229-0.056
			c-0.362,0.195-0.715,0.41-1.116,0.642c0.496,0.288,0.917,0.541,1.35,0.773c0.077,0.046,0.211,0.051,0.287,0.007
			C114.008,250.97,114.335,250.772,114.717,250.549z M110.613,252.926c-0.478-0.277-0.901-0.528-1.331-0.771
			c-0.067-0.036-0.177-0.076-0.229-0.05c-0.365,0.195-0.718,0.407-1.118,0.637c0.492,0.291,0.913,0.538,1.345,0.78
			c0.078,0.039,0.215,0.046,0.288,0.008C109.908,253.352,110.236,253.149,110.613,252.926z M107.296,243.867
			c-0.486-0.284-0.927-0.541-1.375-0.796c-0.062-0.033-0.172-0.041-0.232-0.011c-0.344,0.189-0.679,0.395-1.075,0.626
			c0.508,0.293,0.958,0.557,1.413,0.813c0.051,0.025,0.145,0.016,0.194-0.019C106.566,244.291,106.908,244.089,107.296,243.867z
			 M102.563,244.874c0.487,0.281,0.928,0.541,1.373,0.794c0.049,0.027,0.13,0.063,0.167,0.038c0.37-0.203,0.736-0.411,1.145-0.646
			c-0.5-0.292-0.922-0.542-1.354-0.784c-0.069-0.036-0.19-0.05-0.256-0.018C103.289,244.442,102.949,244.646,102.563,244.874z
			 M103.168,246.231c-0.464-0.268-0.896-0.524-1.334-0.771c-0.061-0.034-0.173-0.056-0.229-0.026
			c-0.352,0.188-0.696,0.396-1.102,0.627c0.543,0.31,1.001,0.713,1.509,0.804c0.32,0.053,0.723-0.365,1.087-0.569
			C103.109,246.291,103.117,246.28,103.168,246.231z M112.03,246.615c-0.485-0.283-0.929-0.551-1.378-0.796
			c-0.062-0.033-0.171-0.035-0.233-0.003c-0.343,0.185-0.677,0.387-1.068,0.617c0.502,0.288,0.943,0.55,1.393,0.799
			c0.056,0.03,0.166,0.027,0.225-0.004C111.313,247.037,111.649,246.838,112.03,246.615z M109.979,247.803
			c-0.495-0.285-0.918-0.539-1.346-0.779c-0.067-0.036-0.174-0.07-0.229-0.036c-0.361,0.192-0.712,0.406-1.104,0.63
			c0.478,0.283,0.893,0.525,1.313,0.765c0.081,0.045,0.216,0.074,0.291,0.039C109.252,248.241,109.588,248.032,109.979,247.803z
			 M114.395,247.986c-0.484-0.281-0.925-0.548-1.375-0.793c-0.068-0.038-0.194-0.025-0.264,0.016
			c-0.334,0.179-0.659,0.374-1.034,0.595c0.492,0.285,0.929,0.547,1.38,0.798c0.057,0.033,0.169,0.034,0.226,0.002
			C113.672,248.417,114.011,248.214,114.395,247.986z M100.828,248.621c0.482,0.287,0.906,0.534,1.334,0.774
			c0.074,0.045,0.194,0.07,0.258,0.039c0.358-0.189,0.704-0.405,1.086-0.626c-0.474-0.281-0.899-0.529-1.331-0.768
			c-0.079-0.047-0.214-0.063-0.289-0.021C101.548,248.196,101.221,248.397,100.828,248.621z M107.903,248.978
			c-0.472-0.279-0.915-0.537-1.366-0.786c-0.059-0.037-0.167-0.032-0.229,0.007c-0.342,0.188-0.674,0.389-1.022,0.593
			c1.227,0.946,1.421,0.966,2.552,0.248C107.848,249.032,107.855,249.023,107.903,248.978z M103.196,249.999
			c0.504,0.289,0.948,0.552,1.396,0.8c0.056,0.037,0.164,0.03,0.224-0.007c0.346-0.191,0.686-0.392,1.063-0.611
			c-0.476-0.275-0.912-0.531-1.352-0.779c-0.066-0.034-0.173-0.063-0.228-0.036C103.943,249.555,103.599,249.771,103.196,249.999z
			 M98.457,247.251c0.488,0.282,0.908,0.534,1.338,0.774c0.073,0.038,0.195,0.066,0.258,0.034c0.354-0.187,0.7-0.396,1.09-0.624
			c-0.487-0.281-0.91-0.535-1.342-0.772c-0.078-0.04-0.213-0.05-0.288-0.013C99.173,246.827,98.845,247.026,98.457,247.251z
			 M110.298,250.368c-0.499-0.293-0.931-0.546-1.369-0.797c-0.063-0.033-0.17-0.047-0.226-0.016
			c-0.352,0.191-0.694,0.403-1.084,0.627c0.491,0.284,0.922,0.543,1.365,0.782c0.074,0.045,0.212,0.027,0.292-0.013
			C109.604,250.779,109.921,250.584,110.298,250.368z M109.984,251.557c0.486,0.278,0.92,0.536,1.36,0.782
			c0.063,0.035,0.174,0.055,0.229,0.025c0.353-0.192,0.697-0.396,1.092-0.626c-0.5-0.289-0.931-0.548-1.374-0.789
			c-0.073-0.038-0.209-0.023-0.288,0.016C110.676,251.14,110.355,251.337,109.984,251.557z M113.769,246.614
			c0.487,0.28,0.929,0.544,1.378,0.794c0.062,0.033,0.172,0.039,0.229,0.009c0.343-0.187,0.681-0.391,1.073-0.618
			c-0.499-0.292-0.939-0.554-1.387-0.802c-0.06-0.031-0.167-0.027-0.227,0.005C114.487,246.192,114.149,246.392,113.769,246.614z
			 M109.345,242.678c-0.525-0.305-0.976-0.716-1.482-0.795c-0.334-0.059-0.741,0.369-1.119,0.575
			c-0.01,0.005-0.016,0.017-0.048,0.053c0.459,0.272,0.91,0.535,1.368,0.794c0.06,0.029,0.169,0.016,0.232-0.019
			C108.632,243.101,108.956,242.899,109.345,242.678z M109.031,243.867c0.484,0.284,0.929,0.543,1.379,0.793
			c0.063,0.039,0.172,0.045,0.233,0.015c0.345-0.195,0.677-0.397,1.07-0.626c-0.498-0.288-0.94-0.547-1.39-0.799
			c-0.059-0.031-0.166-0.029-0.228,0.004C109.75,243.446,109.413,243.65,109.031,243.867z M112.35,249.174
			c-0.495-0.279-0.937-0.545-1.383-0.789c-0.059-0.038-0.169-0.042-0.226-0.007c-0.347,0.187-0.686,0.391-1.073,0.612
			c0.494,0.29,0.934,0.548,1.383,0.803c0.06,0.032,0.168,0.033,0.228,0.001C111.625,249.604,111.966,249.397,112.35,249.174z
			 M116.697,249.32c-0.415-0.242-0.867-0.512-1.331-0.765c-0.054-0.037-0.167-0.017-0.229,0.016
			c-0.336,0.188-0.667,0.382-1.047,0.601c0.17,0.104,0.313,0.164,0.431,0.263C115.256,250.049,115.977,250.131,116.697,249.32z
			 M105.567,251.374c0.494,0.281,0.916,0.54,1.348,0.775c0.07,0.037,0.191,0.05,0.257,0.017c0.35-0.184,0.689-0.389,1.075-0.609
			c-0.482-0.283-0.917-0.537-1.356-0.782c-0.072-0.041-0.194-0.051-0.262-0.017C106.289,250.94,105.96,251.138,105.567,251.374z
			 M114.081,245.425c-0.513-0.3-0.958-0.555-1.405-0.813c-0.046-0.024-0.124-0.032-0.163-0.011c-0.36,0.2-0.714,0.404-1.116,0.642
			c0.493,0.281,0.918,0.54,1.352,0.772c0.075,0.04,0.214,0.045,0.292,0.006C113.371,245.85,113.685,245.651,114.081,245.425z
			 M105.558,247.616c-0.488-0.277-0.93-0.547-1.38-0.792c-0.066-0.035-0.192-0.02-0.264,0.019c-0.333,0.18-0.658,0.378-1.032,0.592
			c0.487,0.286,0.93,0.546,1.378,0.802c0.062,0.033,0.169,0.035,0.23,0.005C104.835,248.049,105.168,247.849,105.558,247.616z"/>
	</g>
	<path fill-rule="evenodd" clip-rule="evenodd" fill="#FFFFFF" d="M107.007,245.072c0.06-0.058,0.068-0.066,0.077-0.071
		c1.119-0.719,1.248-0.708,2.552,0.258c-0.351,0.2-0.688,0.402-1.034,0.592c-0.059,0.031-0.165,0.039-0.225,0.009
		C107.929,245.61,107.486,245.348,107.007,245.072z"/>
	<path fill-rule="evenodd" clip-rule="evenodd" fill="#FFFFFF" d="M107.612,246.435c-0.392,0.223-0.718,0.423-1.058,0.598
		c-0.075,0.038-0.208,0.025-0.289-0.018c-0.43-0.231-0.854-0.489-1.337-0.771c0.396-0.229,0.75-0.439,1.113-0.636
		c0.055-0.026,0.161,0.006,0.227,0.041C106.697,245.892,107.122,246.143,107.612,246.435z"/>
	<path fill-rule="evenodd" clip-rule="evenodd" fill="#FFFFFF" d="M118.819,248.166c-0.386,0.229-0.7,0.425-1.032,0.597
		c-0.085,0.042-0.236,0.036-0.322-0.008c-0.434-0.241-0.854-0.49-1.329-0.771c0.383-0.218,0.731-0.427,1.088-0.618
		c0.056-0.028,0.164-0.016,0.226,0.018C117.889,247.624,118.323,247.885,118.819,248.166z"/>
	<path fill-rule="evenodd" clip-rule="evenodd" fill="#FFFFFF" d="M114.717,250.549c-0.382,0.224-0.709,0.421-1.048,0.598
		c-0.075,0.044-0.209,0.039-0.287-0.007c-0.432-0.232-0.854-0.485-1.35-0.773c0.401-0.231,0.754-0.446,1.116-0.642
		c0.054-0.026,0.162,0.011,0.229,0.056C113.806,250.017,114.227,250.266,114.717,250.549z"/>
	<path fill-rule="evenodd" clip-rule="evenodd" fill="#FFFFFF" d="M110.613,252.926c-0.376,0.224-0.705,0.426-1.044,0.604
		c-0.073,0.038-0.21,0.031-0.288-0.008c-0.432-0.242-0.854-0.489-1.345-0.78c0.399-0.229,0.753-0.441,1.118-0.637
		c0.052-0.026,0.162,0.014,0.229,0.05C109.711,252.397,110.135,252.648,110.613,252.926z"/>
	<path fill-rule="evenodd" clip-rule="evenodd" fill="#FFFFFF" d="M107.296,243.867c-0.388,0.222-0.729,0.424-1.075,0.614
		c-0.05,0.034-0.143,0.044-0.194,0.019c-0.455-0.257-0.905-0.521-1.413-0.813c0.396-0.231,0.731-0.437,1.075-0.626
		c0.06-0.03,0.17-0.022,0.232,0.011C106.369,243.326,106.81,243.583,107.296,243.867z"/>
	<path fill-rule="evenodd" clip-rule="evenodd" fill="#FFFFFF" d="M102.563,244.874c0.386-0.228,0.726-0.432,1.073-0.616
		c0.066-0.032,0.188-0.019,0.256,0.018c0.432,0.242,0.854,0.492,1.354,0.784c-0.408,0.235-0.775,0.443-1.145,0.646
		c-0.036,0.025-0.117-0.011-0.167-0.038C103.491,245.415,103.05,245.155,102.563,244.874z"/>
	<path fill-rule="evenodd" clip-rule="evenodd" fill="#FFFFFF" d="M103.168,246.231c-0.051,0.049-0.059,0.06-0.069,0.064
		c-0.365,0.204-0.767,0.622-1.087,0.569c-0.508-0.091-0.965-0.494-1.509-0.804c0.406-0.231,0.75-0.438,1.102-0.627
		c0.056-0.029,0.167-0.008,0.229,0.026C102.272,245.707,102.704,245.964,103.168,246.231z"/>
	<path fill-rule="evenodd" clip-rule="evenodd" fill="#FFFFFF" d="M112.03,246.615c-0.381,0.223-0.717,0.422-1.061,0.613
		c-0.059,0.031-0.169,0.034-0.225,0.004c-0.45-0.249-0.891-0.511-1.393-0.799c0.391-0.23,0.725-0.433,1.068-0.617
		c0.062-0.032,0.171-0.03,0.233,0.003C111.101,246.064,111.544,246.332,112.03,246.615z"/>
	<path fill-rule="evenodd" clip-rule="evenodd" fill="#FFFFFF" d="M109.979,247.803c-0.391,0.229-0.727,0.438-1.075,0.618
		c-0.074,0.035-0.21,0.006-0.291-0.039c-0.42-0.239-0.835-0.481-1.313-0.765c0.391-0.224,0.742-0.438,1.104-0.63
		c0.055-0.034,0.162,0,0.229,0.036C109.061,247.264,109.484,247.518,109.979,247.803z"/>
	<path fill-rule="evenodd" clip-rule="evenodd" fill="#FFFFFF" d="M114.395,247.986c-0.384,0.228-0.722,0.431-1.066,0.617
		c-0.057,0.032-0.169,0.031-0.226-0.002c-0.451-0.251-0.888-0.513-1.38-0.798c0.375-0.221,0.7-0.416,1.034-0.595
		c0.069-0.041,0.196-0.054,0.264-0.016C113.47,247.438,113.91,247.705,114.395,247.986z"/>
	<path fill-rule="evenodd" clip-rule="evenodd" fill="#FFFFFF" d="M100.828,248.621c0.393-0.224,0.72-0.425,1.06-0.601
		c0.074-0.043,0.209-0.026,0.289,0.021c0.432,0.238,0.857,0.486,1.331,0.768c-0.383,0.221-0.728,0.437-1.086,0.626
		c-0.064,0.031-0.185,0.006-0.258-0.039C101.733,249.155,101.31,248.908,100.828,248.621z"/>
	<path fill-rule="evenodd" clip-rule="evenodd" fill="#FFFFFF" d="M107.903,248.978c-0.048,0.046-0.055,0.055-0.065,0.062
		c-1.131,0.718-1.325,0.698-2.552-0.248c0.348-0.204,0.68-0.404,1.022-0.593c0.063-0.039,0.17-0.044,0.229-0.007
		C106.988,248.44,107.431,248.698,107.903,248.978z"/>
	<path fill-rule="evenodd" clip-rule="evenodd" fill="#FFFFFF" d="M103.196,249.999c0.402-0.228,0.747-0.444,1.104-0.634
		c0.055-0.027,0.162,0.002,0.228,0.036c0.44,0.248,0.875,0.504,1.352,0.779c-0.377,0.22-0.717,0.42-1.063,0.611
		c-0.06,0.037-0.168,0.044-0.224,0.007C104.144,250.551,103.701,250.288,103.196,249.999z"/>
	<path fill-rule="evenodd" clip-rule="evenodd" fill="#FFFFFF" d="M98.457,247.251c0.388-0.225,0.716-0.424,1.056-0.601
		c0.075-0.037,0.21-0.027,0.288,0.013c0.433,0.237,0.855,0.491,1.342,0.772c-0.39,0.228-0.735,0.438-1.09,0.624
		c-0.063,0.032-0.185,0.004-0.258-0.034C99.365,247.785,98.945,247.533,98.457,247.251z"/>
	<path fill-rule="evenodd" clip-rule="evenodd" fill="#FFFFFF" d="M110.298,250.368c-0.377,0.216-0.694,0.411-1.023,0.584
		c-0.08,0.04-0.217,0.058-0.292,0.013c-0.443-0.239-0.874-0.498-1.365-0.782c0.39-0.224,0.732-0.436,1.084-0.627
		c0.055-0.031,0.163-0.018,0.226,0.016C109.367,249.822,109.8,250.075,110.298,250.368z"/>
	<path fill-rule="evenodd" clip-rule="evenodd" fill="#FFFFFF" d="M109.984,251.557c0.371-0.22,0.691-0.417,1.021-0.592
		c0.078-0.039,0.214-0.054,0.288-0.016c0.443,0.241,0.874,0.5,1.374,0.789c-0.396,0.229-0.74,0.434-1.092,0.626
		c-0.055,0.029-0.167,0.01-0.229-0.025C110.905,252.093,110.47,251.835,109.984,251.557z"/>
	<path fill-rule="evenodd" clip-rule="evenodd" fill="#FFFFFF" d="M113.769,246.614c0.38-0.223,0.718-0.422,1.066-0.612
		c0.061-0.032,0.167-0.036,0.227-0.005c0.447,0.248,0.888,0.51,1.387,0.802c-0.393,0.228-0.73,0.432-1.073,0.618
		c-0.057,0.03-0.167,0.024-0.229-0.009C114.697,247.158,114.256,246.895,113.769,246.614z"/>
	<path fill-rule="evenodd" clip-rule="evenodd" fill="#FFFFFF" d="M109.345,242.678c-0.389,0.222-0.713,0.423-1.049,0.608
		c-0.063,0.034-0.173,0.048-0.232,0.019c-0.458-0.259-0.908-0.521-1.368-0.794c0.032-0.036,0.038-0.048,0.048-0.053
		c0.378-0.206,0.785-0.634,1.119-0.575C108.37,241.962,108.82,242.373,109.345,242.678z"/>
	<path fill-rule="evenodd" clip-rule="evenodd" fill="#FFFFFF" d="M109.031,243.867c0.381-0.217,0.718-0.421,1.065-0.613
		c0.062-0.033,0.169-0.035,0.228-0.004c0.45,0.252,0.892,0.511,1.39,0.799c-0.393,0.229-0.725,0.431-1.07,0.626
		c-0.061,0.03-0.169,0.024-0.233-0.015C109.96,244.41,109.516,244.151,109.031,243.867z"/>
	<path fill-rule="evenodd" clip-rule="evenodd" fill="#FFFFFF" d="M112.35,249.174c-0.384,0.224-0.725,0.431-1.071,0.62
		c-0.06,0.032-0.168,0.031-0.228-0.001c-0.449-0.255-0.889-0.513-1.383-0.803c0.387-0.222,0.726-0.426,1.073-0.612
		c0.056-0.035,0.167-0.031,0.226,0.007C111.413,248.629,111.855,248.895,112.35,249.174z"/>
	<path fill-rule="evenodd" clip-rule="evenodd" fill="#FFFFFF" d="M116.697,249.32c-0.72,0.811-1.441,0.729-2.175,0.114
		c-0.119-0.099-0.261-0.158-0.431-0.263c0.38-0.219,0.71-0.413,1.047-0.601c0.061-0.032,0.174-0.053,0.229-0.016
		C115.831,248.809,116.283,249.078,116.697,249.32z"/>
	<path fill-rule="evenodd" clip-rule="evenodd" fill="#FFFFFF" d="M105.567,251.374c0.394-0.236,0.722-0.434,1.062-0.616
		c0.067-0.034,0.19-0.024,0.262,0.017c0.44,0.245,0.875,0.499,1.356,0.782c-0.385,0.221-0.725,0.426-1.075,0.609
		c-0.066,0.033-0.188,0.021-0.257-0.017C106.482,251.914,106.061,251.655,105.567,251.374z"/>
	<path fill-rule="evenodd" clip-rule="evenodd" fill="#FFFFFF" d="M114.081,245.425c-0.396,0.227-0.71,0.425-1.04,0.596
		c-0.077,0.039-0.216,0.034-0.292-0.006c-0.434-0.232-0.859-0.491-1.352-0.772c0.401-0.237,0.756-0.441,1.116-0.642
		c0.039-0.021,0.117-0.014,0.163,0.011C113.123,244.87,113.568,245.125,114.081,245.425z"/>
	<path fill-rule="evenodd" clip-rule="evenodd" fill="#FFFFFF" d="M105.558,247.616c-0.389,0.232-0.722,0.433-1.068,0.625
		c-0.061,0.03-0.168,0.028-0.23-0.005c-0.448-0.256-0.891-0.516-1.378-0.802c0.374-0.214,0.698-0.412,1.032-0.592
		c0.072-0.038,0.198-0.054,0.264-0.019C104.628,247.069,105.07,247.339,105.558,247.616z"/>
</g>
<g>
	<g>
		<polyline fill="none" stroke="#BF1B00" stroke-width="0.75" stroke-miterlimit="10" points="54.883,223.501 54.883,231.813 
			73.333,231.813 73.333,252.186 80.921,252.186 		"/>
		<g>
			<path fill="#BF1B00" d="M79.575,252.186l-1.644-2.702l0.092-0.062l4.406,1.751c1.535,0.337,3.07,0.675,4.605,1.013
				c-1.535,0.338-3.07,0.676-4.605,1.014l-4.406,1.75l-0.092-0.046L79.575,252.186z"/>
		</g>
	</g>
</g>
<text transform="matrix(1 0 0 1 223.2427 29.0015)" fill="#FFFFFF" font-family="'MyriadPro-Semibold'" font-size="15">Anlise de Dados</text>
<text transform="matrix(1 0 0 1 207.646 342.667)" fill="#FFFFFF" font-family="'MyriadPro-CondIt'" font-size="21">FLUXO DE EXECUO</text>
<g>
	<g>
		<linearGradient id="SVGID_1_" gradientUnits="userSpaceOnUse" x1="344.5396" y1="115.1475" x2="360.4673" y2="115.1475">
			<stop  offset="0" style="stop-color:#5B5B5B"/>
			<stop  offset="1" style="stop-color:#101010"/>
		</linearGradient>
		<path fill-rule="evenodd" clip-rule="evenodd" fill="url(#SVGID_1_)" d="M359.203,107.945c-0.234-0.489-0.596-0.882-0.97-1.262
			c-0.274-0.336-0.604-0.614-0.96-0.846c-0.27-0.267-0.602-0.438-0.931-0.609c-0.325-0.215-0.671-0.369-1.039-0.479
			c-0.24-0.127-0.499-0.203-0.766-0.242c-0.292-0.112-0.594-0.173-0.905-0.181l0,0c-0.193-0.081-0.396-0.06-0.599-0.064
			c-0.553-0.087-1.101-0.039-1.648,0.06c-0.266,0.002-0.524,0.058-0.779,0.137c-0.293,0.029-0.57,0.128-0.845,0.238
			c-0.17,0.024-0.335,0.087-0.475,0.183c-0.268,0.052-0.496,0.174-0.722,0.306c-0.378,0.167-0.725,0.376-1.025,0.645
			c-0.352,0.231-0.664,0.51-0.928,0.836c-0.391,0.391-0.713,0.833-0.953,1.327c-0.024,0.033-0.049,0.062-0.066,0.095
			c-0.849,1.567-1.211,3.235-0.988,5.008c0.136,1.101,0.46,2.147,1.054,3.097c0.269,0.521,0.629,0.979,0.978,1.443
			c0.274,0.451,0.581,0.886,0.908,1.307c0.293,0.475,0.617,0.937,0.956,1.383c0.246,0.383,0.492,0.753,0.782,1.104
			c0.148,0.278,0.338,0.537,0.54,0.779c0.277,0.454,0.582,0.889,0.909,1.312c0.271,0.439,0.571,0.869,0.896,1.281
			c0.265,0.394,0.534,0.793,0.805,1.185c0.104,0.158,0.143,0.079,0.163-0.053c0.326-0.401,0.645-0.811,0.894-1.268
			c0.114-0.156,0.249-0.301,0.355-0.463c0.225-0.345,0.505-0.656,0.678-1.036c0.335-0.398,0.64-0.813,0.894-1.265
			c0.317-0.465,0.695-0.879,0.962-1.385c0.339-0.398,0.618-0.831,0.9-1.267c0.039-0.063,0.083-0.13,0.128-0.195
			c0.303-0.397,0.614-0.795,0.851-1.246c0.347-0.417,0.655-0.861,0.941-1.324c0.144-0.24,0.306-0.467,0.415-0.716
			C360.846,113.091,360.773,110.478,359.203,107.945z M355.239,113.227c-0.227,0.39-0.502,0.734-0.84,1.03
			c-0.306,0.199-0.624,0.365-0.966,0.49c-0.289,0.039-0.589,0.077-0.89,0.116c-0.005,0.003-0.008,0.008-0.012,0.01
			c0-0.002,0-0.005,0-0.009c-0.254-0.042-0.516-0.082-0.771-0.125c-0.289-0.139-0.573-0.277-0.858-0.417
			c-0.289-0.293-0.597-0.57-0.823-0.917c-0.074-0.11-0.13-0.221-0.151-0.345c-0.274-0.745-0.264-1.485,0.005-2.226
			c0.134-0.417,0.453-0.699,0.714-1.024c-0.012-0.007-0.02-0.014-0.027-0.02c0.02,0,0.045-0.001,0.063-0.002
			c0.246-0.19,0.518-0.355,0.787-0.508c0.479-0.172,0.975-0.241,1.485-0.204c0.115,0.02,0.239,0.042,0.359,0.06v-0.001
			c0.003,0.001,0.003,0.001,0.005,0.003c0.343,0.1,0.65,0.253,0.959,0.43c0.342,0.276,0.644,0.595,0.88,0.973
			C355.603,111.42,355.615,112.319,355.239,113.227z"/>
	</g>
	<g>
		<linearGradient id="SVGID_2_" gradientUnits="userSpaceOnUse" x1="363.3745" y1="115.147" x2="379.3042" y2="115.147">
			<stop  offset="0" style="stop-color:#5B5B5B"/>
			<stop  offset="1" style="stop-color:#101010"/>
		</linearGradient>
		<path fill-rule="evenodd" clip-rule="evenodd" fill="url(#SVGID_2_)" d="M378.036,107.945c-0.231-0.489-0.595-0.882-0.971-1.262
			c-0.274-0.336-0.601-0.615-0.961-0.846c-0.268-0.267-0.598-0.439-0.928-0.609c-0.325-0.214-0.673-0.369-1.039-0.478
			c-0.241-0.128-0.498-0.203-0.765-0.242c-0.29-0.111-0.595-0.173-0.903-0.181l0,0c-0.195-0.082-0.397-0.059-0.601-0.064
			c-0.554-0.086-1.101-0.039-1.647,0.06c-0.271,0.003-0.525,0.058-0.784,0.138c-0.288,0.028-0.567,0.127-0.834,0.238
			c-0.176,0.024-0.335,0.087-0.484,0.183c-0.267,0.053-0.493,0.173-0.722,0.306c-0.368,0.167-0.718,0.376-1.026,0.645
			c-0.349,0.231-0.659,0.51-0.918,0.836c-0.399,0.391-0.714,0.833-0.962,1.327c-0.021,0.033-0.046,0.062-0.064,0.094
			c-0.848,1.567-1.211,3.236-0.987,5.008c0.136,1.102,0.46,2.148,1.052,3.097c0.271,0.52,0.628,0.979,0.979,1.444
			c0.272,0.45,0.582,0.885,0.907,1.306c0.301,0.475,0.621,0.937,0.959,1.383c0.244,0.383,0.491,0.754,0.778,1.104
			c0.157,0.277,0.339,0.537,0.543,0.779c0.272,0.454,0.582,0.888,0.909,1.311c0.277,0.44,0.571,0.87,0.893,1.281
			c0.271,0.394,0.535,0.792,0.808,1.184c0.104,0.159,0.146,0.08,0.168-0.053c0.328-0.401,0.642-0.81,0.889-1.267
			c0.115-0.156,0.248-0.301,0.357-0.464c0.223-0.345,0.508-0.657,0.68-1.036c0.332-0.398,0.632-0.813,0.89-1.265
			c0.317-0.465,0.703-0.879,0.96-1.384c0.338-0.398,0.62-0.831,0.9-1.267c0.039-0.063,0.084-0.131,0.13-0.195
			c0.3-0.399,0.614-0.795,0.847-1.246c0.351-0.417,0.666-0.861,0.943-1.324c0.146-0.24,0.307-0.467,0.424-0.716
			C379.687,113.091,379.606,110.478,378.036,107.945z M374.074,113.227c-0.23,0.389-0.501,0.734-0.843,1.03
			c-0.305,0.199-0.624,0.365-0.965,0.49c-0.293,0.039-0.589,0.077-0.889,0.116c-0.003,0.003-0.007,0.007-0.013,0.01
			c0-0.002,0-0.005,0-0.008c-0.254-0.042-0.516-0.083-0.769-0.125c-0.289-0.139-0.57-0.277-0.861-0.417
			c-0.289-0.294-0.588-0.571-0.825-0.917c-0.068-0.11-0.119-0.221-0.147-0.345c-0.274-0.745-0.262-1.485,0.004-2.226
			c0.132-0.417,0.456-0.698,0.721-1.024c-0.014-0.007-0.023-0.014-0.031-0.021c0.025,0,0.047-0.001,0.064-0.002
			c0.244-0.19,0.514-0.355,0.785-0.508c0.479-0.172,0.976-0.241,1.484-0.204c0.116,0.02,0.242,0.04,0.362,0.06
			c0-0.001,0-0.001,0-0.001c0.002,0,0.003,0.001,0.004,0.003c0.338,0.101,0.65,0.253,0.959,0.43
			c0.341,0.276,0.644,0.596,0.876,0.973C374.438,111.42,374.45,112.319,374.074,113.227z"/>
	</g>
	<g>
		<path fill-rule="evenodd" clip-rule="evenodd" fill="#7D8589" d="M339.723,157.366c-1.253,0-2.508-0.002-3.76,0.003
			c-0.633,0.002-1.251-0.073-1.861-0.23c-1.609-0.427-2.481-1.579-3.046-3.051c-0.957-2.492-0.505-4.457,1.459-6.28
			c0.453-0.421,0.951-0.772,1.45-1.129c0.197-0.137,0.317-0.119,0.507,0.042c1.251,1.057,2.619,1.885,4.267,2.154
			c1.939,0.32,3.643-0.252,5.198-1.384c0.283-0.206,0.54-0.449,0.794-0.687c0.108-0.109,0.19-0.14,0.333-0.042
			c1.277,0.919,2.417,1.946,3.158,3.385c0.973,1.906,0.176,4.888-0.989,5.938c-0.974,0.877-2.123,1.24-3.394,1.273
			C342.472,157.391,341.097,157.366,339.723,157.366z"/>
		<path fill-rule="evenodd" clip-rule="evenodd" fill="#7D8589" d="M333.912,142.13c-0.002-3.212,2.614-5.846,5.814-5.855
			c3.231-0.009,5.815,2.599,5.88,5.797c0.056,3.045-2.438,5.916-5.842,5.914C336.517,147.981,333.914,145.382,333.912,142.13z"/>
	</g>
	<g>
		<path fill-rule="evenodd" clip-rule="evenodd" fill="#7D8589" d="M385.561,157.128c-1.253,0-2.508-0.003-3.761,0.004
			c-0.635,0.004-1.255-0.078-1.86-0.234c-1.611-0.419-2.483-1.578-3.045-3.045c-0.965-2.49-0.506-4.457,1.455-6.28
			c0.455-0.418,0.946-0.772,1.449-1.131c0.194-0.14,0.319-0.121,0.511,0.042c1.244,1.058,2.62,1.885,4.259,2.16
			c1.938,0.316,3.651-0.256,5.203-1.391c0.284-0.205,0.536-0.447,0.79-0.688c0.117-0.106,0.196-0.14,0.33-0.034
			c1.284,0.911,2.426,1.942,3.162,3.376c0.979,1.908,0.178,4.889-0.982,5.941c-0.975,0.87-2.127,1.238-3.401,1.273
			C388.304,157.153,386.933,157.128,385.561,157.128z"/>
		<path fill-rule="evenodd" clip-rule="evenodd" fill="#7D8589" d="M379.749,141.891c-0.001-3.214,2.615-5.848,5.814-5.855
			c3.225-0.008,5.813,2.598,5.873,5.796c0.062,3.045-2.432,5.918-5.838,5.912C382.357,147.742,379.752,145.141,379.749,141.891z"/>
	</g>
	<g>
		<g>
			
				<line fill="none" stroke="#D25927" stroke-width="0.25" stroke-miterlimit="10" x1="356.443" y1="149.285" x2="366.83" y2="149.285"/>
			<g>
				<path fill="#D25927" d="M354.934,149.285c0.71,0.264,1.591,0.713,2.137,1.189l-0.43-1.189l0.43-1.188
					C356.525,148.572,355.644,149.022,354.934,149.285z"/>
			</g>
			<g>
				<path fill="#D25927" d="M368.338,149.285c-0.71,0.264-1.591,0.713-2.137,1.189l0.43-1.189l-0.43-1.188
					C366.748,148.572,367.628,149.022,368.338,149.285z"/>
			</g>
		</g>
	</g>
	<g>
		<linearGradient id="SVGID_3_" gradientUnits="userSpaceOnUse" x1="354.9351" y1="177.4707" x2="370.8647" y2="177.4707">
			<stop  offset="0" style="stop-color:#5B5B5B"/>
			<stop  offset="1" style="stop-color:#101010"/>
		</linearGradient>
		<path fill-rule="evenodd" clip-rule="evenodd" fill="url(#SVGID_3_)" d="M369.599,170.266c-0.24-0.482-0.595-0.881-0.973-1.259
			c-0.277-0.339-0.601-0.611-0.963-0.847c-0.267-0.266-0.594-0.438-0.93-0.605c-0.321-0.214-0.668-0.367-1.038-0.478
			c-0.235-0.135-0.497-0.205-0.762-0.244c-0.293-0.113-0.595-0.171-0.9-0.181l0,0c-0.202-0.082-0.404-0.062-0.605-0.065
			c-0.55-0.087-1.098-0.037-1.646,0.063c-0.269,0.003-0.527,0.057-0.784,0.14c-0.29,0.028-0.566,0.122-0.837,0.23
			c-0.171,0.027-0.329,0.089-0.483,0.187c-0.263,0.05-0.493,0.173-0.718,0.306c-0.373,0.173-0.717,0.378-1.027,0.644
			c-0.349,0.235-0.657,0.511-0.92,0.837c-0.4,0.39-0.711,0.834-0.961,1.33c-0.022,0.03-0.05,0.06-0.067,0.091
			c-0.848,1.571-1.203,3.238-0.987,5.013c0.137,1.098,0.463,2.145,1.051,3.091c0.276,0.522,0.63,0.983,0.982,1.443
			c0.276,0.457,0.58,0.895,0.907,1.308c0.303,0.479,0.615,0.937,0.962,1.385c0.239,0.384,0.49,0.757,0.773,1.104
			c0.163,0.283,0.341,0.538,0.543,0.786c0.276,0.45,0.586,0.888,0.908,1.304c0.283,0.438,0.572,0.873,0.896,1.279
			c0.268,0.394,0.534,0.794,0.81,1.188c0.102,0.157,0.146,0.073,0.165-0.053c0.32-0.404,0.639-0.813,0.891-1.27
			c0.116-0.15,0.243-0.299,0.352-0.459c0.229-0.349,0.509-0.662,0.688-1.036c0.324-0.396,0.627-0.819,0.883-1.267
			c0.319-0.467,0.707-0.881,0.962-1.387c0.338-0.392,0.62-0.83,0.898-1.262c0.042-0.07,0.085-0.133,0.13-0.193
			c0.307-0.405,0.615-0.803,0.852-1.255c0.351-0.415,0.662-0.856,0.943-1.318c0.141-0.24,0.304-0.47,0.423-0.721
			C371.246,175.417,371.167,172.804,369.599,170.266z M365.634,175.549c-0.227,0.395-0.501,0.74-0.844,1.03
			c-0.302,0.198-0.625,0.362-0.963,0.491c-0.293,0.038-0.593,0.073-0.887,0.117c-0.006,0.003-0.011,0.005-0.015,0.008
			c0-0.003,0-0.004,0-0.008c-0.256-0.045-0.516-0.084-0.772-0.124c-0.285-0.141-0.568-0.281-0.854-0.418
			c-0.292-0.293-0.595-0.576-0.826-0.92c-0.068-0.108-0.119-0.219-0.146-0.347c-0.279-0.742-0.27-1.481,0.004-2.227
			c0.131-0.412,0.453-0.694,0.715-1.021c-0.016-0.007-0.023-0.013-0.032-0.019c0.019,0,0.044-0.003,0.064-0.004
			c0.251-0.189,0.517-0.352,0.788-0.509c0.482-0.169,0.978-0.234,1.487-0.201c0.114,0.019,0.236,0.04,0.357,0.059
			c0-0.001,0-0.002,0-0.002c0.001,0.001,0.003,0.002,0.003,0.005c0.342,0.101,0.653,0.258,0.959,0.432
			c0.347,0.274,0.645,0.593,0.878,0.969C366,173.747,366.013,174.64,365.634,175.549z"/>
	</g>
	<g>
		<g>
			
				<line fill="none" stroke="#D26527" stroke-width="0.25" stroke-miterlimit="10" x1="343.491" y1="160.104" x2="352.299" y2="168.913"/>
			<g>
				<path fill="#D26527" d="M353.366,169.98c-0.688-0.315-1.629-0.621-2.352-0.67l1.145-0.537l0.537-1.145
					C352.745,168.352,353.05,169.292,353.366,169.98z"/>
			</g>
		</g>
	</g>
	<g>
		<g>
			
				<line fill="none" stroke="#D26527" stroke-width="0.25" stroke-miterlimit="10" x1="343.491" y1="136.584" x2="352.299" y2="127.77"/>
			<g>
				<path fill="#D26527" d="M353.366,126.703c-0.315,0.688-0.62,1.629-0.67,2.352l-0.536-1.145l-1.146-0.536
					C351.737,127.324,352.677,127.019,353.366,126.703z"/>
			</g>
		</g>
	</g>
	<g>
		<g>
			
				<line fill="none" stroke="#D26527" stroke-width="0.25" stroke-miterlimit="10" x1="371.281" y1="169.98" x2="380.089" y2="161.172"/>
			<g>
				<path fill="#D26527" d="M381.156,160.104c-0.315,0.688-0.621,1.629-0.67,2.352l-0.537-1.145l-1.145-0.536
					C379.527,160.726,380.467,160.421,381.156,160.104z"/>
			</g>
		</g>
	</g>
	<g>
		<g>
			
				<line fill="none" stroke="#D26527" stroke-width="0.25" stroke-miterlimit="10" x1="371.984" y1="126.661" x2="380.797" y2="135.472"/>
			<g>
				<path fill="#D26527" d="M381.865,136.539c-0.688-0.315-1.629-0.621-2.352-0.67l1.145-0.537l0.536-1.145
					C381.244,134.91,381.548,135.851,381.865,136.539z"/>
			</g>
		</g>
	</g>
	<text transform="matrix(1 0 0 1 338.4028 155.3633)" fill="#FFFFFF" font-family="'MyriadPro-Cond'" font-size="7.989">A</text>
	<text transform="matrix(1 0 0 1 384.3589 155.3633)" fill="#FFFFFF" font-family="'MyriadPro-Cond'" font-size="7.989">B</text>
	<text transform="matrix(1 0 0 1 353.4497 138.4751)"><tspan x="0" y="0" fill="#7D8589" font-family="'MyriadPro-Cond'" font-size="7.3322">usurios</tspan><tspan x="-4.964" y="8.799" fill="#7D8589" font-family="'MyriadPro-Cond'" font-size="7.3322">semelhantes</tspan></text>
	<text transform="matrix(1 0 0 1 342.1343 102.7095)" fill="#7D8589" font-family="'MyriadPro-Cond'" font-size="7.3322">visitado por ambos</text>
	<text transform="matrix(1 0 0 1 346.8276 193.4668)"><tspan x="0" y="0" fill="#7D8589" font-family="'MyriadPro-Cond'" font-size="7.3322">avaliado por </tspan><tspan x="28.889" y="0" fill="#7D8589" font-family="'MyriadPro-BoldCond'" font-size="7.3322">A</tspan><tspan x="32.246" y="0" fill="#7D8589" font-family="'MyriadPro-Cond'" font-size="7.3322">,</tspan><tspan x="-6.632" y="8.799" fill="#7D8589" font-family="'MyriadPro-Cond'" font-size="7.3322">recomendado para </tspan><tspan x="36.76" y="8.799" fill="#7D8589" font-family="'MyriadPro-BoldCond'" font-size="7.3322">B</tspan></text>
</g>
<text transform="matrix(1 0 0 1 368.5269 29.0005)" fill="#FFFFFF" font-family="'MyriadPro-Semibold'" font-size="15">Recomendao</text>
<g>
	<path fill-rule="evenodd" clip-rule="evenodd" fill="#7D8589" d="M250.531,237.797c0,0.792,0,1.49,0,2.22c-0.745,0-1.441,0-2.217,0
		c0-0.7,0-1.412,0-2.222c-0.748,0-1.418,0.006-2.093-0.002c-0.913-0.012-1.324-0.416-1.324-1.345c-0.003-8.887-0.003-17.767,0-26.66
		c0-0.927,0.41-1.324,1.327-1.334c0.655-0.013,1.31-0.001,2.041-0.001c0-6.786,0-13.515,0-20.288c0.774,0,1.471,0,2.244,0
		c0,6.723,0,13.458,0,20.288c0.744,0,1.418-0.013,2.089,0.001c0.917,0.011,1.325,0.411,1.326,1.338
		c0.004,8.893,0.005,17.773,0.003,26.66c0,0.917-0.421,1.333-1.332,1.344C251.942,237.802,251.287,237.797,250.531,237.797z
		 M249.405,233.273c0.738,0,1.473,0,2.216,0c0-0.788,0-1.497,0-2.265c-0.76,0-1.477,0-2.197,0c-0.008-0.751-0.015-1.504-0.022-2.256
		c0.741,0,1.48,0,2.214,0c0-0.784,0-1.502,0-2.237c-0.771,0-1.495,0-2.218,0c0.01-0.747,0.019-1.499,0.029-2.253
		c0.737,0,1.471,0,2.185,0c0-0.817,0-1.524,0-2.259c-0.771,0-1.493,0-2.213,0c0.009-0.752,0.019-1.504,0.029-2.251
		c0.736,0,1.471,0,2.185,0c0-0.83,0-1.538,0-2.268c-0.771,0-1.494,0-2.214,0c0-0.756,0-1.521,0.001-2.279c0.742,0,1.481,0,2.217,0
		c0-0.788,0-1.498,0-2.237c-0.771,0-1.496,0-2.219,0c0-0.736,0-1.471,0-2.215c-0.783,0-1.492,0-2.195,0c0,0.758,0,1.466,0,2.194
		c0.772,0,1.493,0,2.215,0c0,0.759,0,1.52,0.001,2.277c-0.738,0-1.476,0-2.216,0c0,0.799,0,1.511,0,2.241c0.772,0,1.493,0,2.215,0
		c0.011,0.769,0.024,1.537,0.032,2.302c-0.747,0-1.489,0-2.252,0c0,0.753,0,1.467,0,2.21c0.771,0,1.496,0,2.22,0
		c0.011,0.772,0.023,1.536,0.032,2.307c-0.746,0-1.488,0-2.25,0c0,0.752,0,1.462,0,2.212c0.771,0,1.494,0,2.218,0
		c0.001,0.756,0.002,1.52,0.003,2.275c-0.741,0-1.483,0-2.213,0c0,0.807,0,1.517,0,2.216c0.783,0,1.508,0,2.235,0.001
		c-0.005,0.766-0.01,1.533-0.019,2.303c-0.738,0-1.477,0-2.227,0c0,0.781,0,1.489,0,2.196c0.756,0,1.466,0,2.208,0
		C249.405,234.718,249.405,233.998,249.405,233.273z"/>
	<path fill-rule="evenodd" clip-rule="evenodd" fill="#7D8589" d="M259.581,223.02c0-2.947,0-5.899,0-8.89c0.745,0,1.441,0,2.216,0
		c0,2.963,0,5.93,0,8.991c0.725,0,1.377-0.004,2.023,0.001c0.979,0.007,1.393,0.397,1.393,1.354c0.003,6.625,0.003,13.255,0,19.886
		c0,0.926-0.411,1.325-1.332,1.336c-0.611,0.009-1.22,0.008-1.833,0.013c-0.042,0.001-0.086,0.029-0.205,0.064
		c0,1.813,0,3.659,0,5.533c-0.774,0-1.469,0-2.244,0c0-1.834,0-3.679,0-5.608c-0.745,0-1.42,0.007-2.093-0.003
		c-0.913-0.011-1.322-0.416-1.323-1.343c-0.003-6.631-0.003-13.262,0-19.886c0.001-0.929,0.413-1.333,1.331-1.346
		c0.636-0.01,1.271-0.013,1.904-0.021C259.438,223.101,259.46,223.083,259.581,223.02z M260.707,241.175c0,0.737,0,1.478,0,2.219
		c0.788,0,1.498,0,2.199,0c0-0.755,0-1.467,0-2.199c-0.774,0-1.497,0-2.219,0c0.003-0.765,0.005-1.518,0.008-2.277
		c0.736,0,1.471,0,2.218,0c0-0.788,0-1.497,0-2.265c-0.764,0-1.481,0-2.199,0c0.001-0.743,0.002-1.487,0.003-2.229
		c0.734,0,1.472,0,2.188,0c0-0.819,0-1.53,0-2.264c-0.776,0-1.497,0-2.217,0c0.001-0.755,0.003-1.517,0.004-2.278
		c0.736,0,1.473,0,2.22,0c0-0.775,0-1.481,0-2.259c-0.763,0-1.481,0-2.199,0c0-0.738,0-1.476,0-2.187c-0.831,0-1.542,0-2.238,0
		c0,0.748,0,1.443,0,2.16c0.775,0,1.518,0,2.254,0.002c-0.005,0.773-0.011,1.537-0.018,2.31c-0.741,0-1.48,0-2.22,0
		c0,0.783,0,1.496,0,2.233c0.769,0,1.493,0,2.215,0c0.01,0.773,0.02,1.535,0.028,2.303c-0.759,0-1.515,0-2.26,0
		c0,0.777,0,1.47,0,2.188c0.776,0,1.518,0,2.254,0.002c-0.005,0.765-0.011,1.538-0.016,2.302c-0.742,0-1.482,0-2.225,0
		c0,0.787,0,1.494,0,2.239C259.259,241.175,259.984,241.175,260.707,241.175z"/>
	<path fill-rule="evenodd" clip-rule="evenodd" fill="#7D8589" d="M239.245,223.121c0,10.953,0,21.807,0,32.697
		c-0.747,0-1.444,0-2.214,0c0-10.854,0-21.724,0-32.697c-0.739,0-1.41,0.005-2.08-0.002c-0.926-0.009-1.337-0.406-1.34-1.329
		c-0.009-2.491-0.01-4.982,0-7.474c0.003-0.96,0.407-1.345,1.388-1.354c0.634-0.007,1.266-0.001,1.975-0.001
		c0-1.124,0-2.212,0-3.347c0.772,0,1.467,0,2.241,0c0,1.072,0,2.16,0,3.345c0.748,0,1.417-0.008,2.09,0.002
		c0.92,0.012,1.33,0.43,1.332,1.345c0.004,2.491,0.004,4.983-0.001,7.475c-0.002,0.932-0.405,1.33-1.328,1.339
		C240.654,223.127,239.999,223.121,239.245,223.121z M235.916,215.252c0,1.897,0,3.73,0,5.56c1.514,0,2.979,0,4.427,0
		c0-1.881,0-3.699,0-5.56C238.861,215.252,237.417,215.252,235.916,215.252z"/>
	<path fill-rule="evenodd" clip-rule="evenodd" fill="#7D8589" d="M273.089,199.417c0.778,0,1.434-0.007,2.088,0.001
		c0.892,0.011,1.32,0.411,1.321,1.275c0.006,5.178,0.006,10.347,0,15.521c-0.001,0.829-0.423,1.248-1.258,1.262
		c-0.679,0.011-1.354,0.003-2.11,0.003c0,4.902,0,9.747,0,14.639c-0.774,0-1.47,0-2.241,0c0-4.844,0-9.696,0-14.639
		c-0.747,0-1.421,0.005-2.09-0.002c-0.918-0.012-1.323-0.423-1.324-1.346c-0.005-5.124-0.005-10.246-0.002-15.369
		c0-0.915,0.422-1.337,1.333-1.346c0.651-0.008,1.308-0.002,2.039-0.002c0-1.504,0-2.976,0-4.474c0.773,0,1.467,0,2.244,0
		C273.089,196.396,273.089,197.86,273.089,199.417z M274.196,215.189c0-4.532,0-9.003,0-13.462c-1.516,0-2.982,0-4.427,0
		c0,4.516,0,8.971,0,13.462C271.254,215.189,272.701,215.189,274.196,215.189z"/>
	<path fill-rule="evenodd" clip-rule="evenodd" fill="#7D8589" d="M284.423,231.025c0,2.646,0,5.225,0,7.853
		c-0.765,0-1.477,0-2.269,0c0-2.595,0-5.189,0-7.854c-0.754,0-1.43,0.008-2.103-0.002c-0.875-0.012-1.287-0.429-1.29-1.314
		c-0.006-2.885-0.006-5.774,0-8.67c0.002-0.881,0.415-1.285,1.296-1.297c0.654-0.01,1.314-0.002,2.048-0.002
		c0-5.255,0-10.481,0-15.758c0.787,0,1.5,0,2.287,0c0,5.229,0,10.458,0,15.758c0.749,0,1.42-0.008,2.097,0.002
		c0.875,0.012,1.295,0.422,1.297,1.297c0.007,2.896,0.007,5.785,0,8.671c-0.002,0.882-0.419,1.302-1.29,1.314
		C285.822,231.033,285.15,231.025,284.423,231.025z M283.262,226.494c0.741,0,1.478,0,2.228,0c0-0.776,0-1.483,0-2.259
		c-0.763,0-1.482,0-2.201,0c0-0.737,0-1.472,0-2.187c-0.829,0-1.54,0-2.236,0c0,0.751,0,1.443,0,2.162c0.774,0,1.514,0,2.254,0.002
		c-0.007,0.771-0.014,1.534-0.022,2.3c-0.739,0-1.477,0-2.219,0c0,0.801,0,1.508,0,2.201c0.761,0,1.471,0,2.196,0
		C283.262,227.938,283.262,227.214,283.262,226.494z"/>
	<path fill-rule="evenodd" clip-rule="evenodd" fill="#7D8589" d="M295.682,206.269c0,3.35,0,6.679,0,10.045
		c-0.751,0-1.448,0-2.222,0c0-3.346,0-6.691,0-10.122c-0.723,0-1.372,0.004-2.024-0.001c-0.974-0.007-1.383-0.405-1.384-1.355
		c-0.004-5.129-0.007-10.253-0.002-15.384c0.001-0.903,0.427-1.319,1.347-1.321c2.117-0.005,4.233-0.005,6.349,0.003
		c0.924,0.003,1.33,0.412,1.331,1.339c0.004,5.125,0.004,10.252,0,15.378c-0.001,0.924-0.404,1.329-1.327,1.341
		c-0.611,0.008-1.224,0.007-1.834,0.012C295.873,206.202,295.829,206.226,295.682,206.269z M296.771,203.902
		c0-4.532,0-9.008,0-13.461c-1.514,0-2.979,0-4.426,0c0,4.516,0,8.969,0,13.461C293.833,203.902,295.278,203.902,296.771,203.902z"
		/>
	<path fill-rule="evenodd" clip-rule="evenodd" fill="#FFFFFF" d="M249.417,212.948c-0.722,0-1.442,0-2.215,0
		c0-0.729,0-1.437,0-2.194c0.703,0,1.412,0,2.195,0c0,0.744,0,1.479,0,2.215L249.417,212.948z"/>
	<path fill-rule="evenodd" clip-rule="evenodd" fill="#FFFFFF" d="M249.397,212.969c0.723,0,1.448,0,2.219,0
		c0,0.739,0,1.449,0,2.237c-0.735,0-1.475,0-2.217,0l0.019,0.02c0-0.758,0-1.519,0-2.277L249.397,212.969z"/>
	<path fill-rule="evenodd" clip-rule="evenodd" fill="#FFFFFF" d="M249.399,215.206c0,0.758,0,1.523-0.001,2.279l0.019-0.019
		c-0.722,0-1.443,0-2.215,0c0-0.73,0-1.442,0-2.241c0.74,0,1.479,0,2.216,0C249.418,215.226,249.399,215.206,249.399,215.206z"/>
	<path fill-rule="evenodd" clip-rule="evenodd" fill="#FFFFFF" d="M249.398,217.485c0.721,0,1.443,0,2.214,0
		c0,0.729,0,1.438,0,2.268c-0.714,0-1.449,0-2.186-0.001c-0.001-0.001,0.024,0.019,0.024,0.019c-0.01-0.767-0.022-1.535-0.034-2.304
		L249.398,217.485z"/>
	<path fill-rule="evenodd" clip-rule="evenodd" fill="#FFFFFF" d="M249.417,221.979c-0.724,0-1.448,0-2.22,0c0-0.743,0-1.457,0-2.21
		c0.763,0,1.505,0,2.253,0.001c0,0.001-0.025-0.019-0.024-0.018c-0.009,0.748-0.019,1.5-0.028,2.252L249.417,221.979z"/>
	<path fill-rule="evenodd" clip-rule="evenodd" fill="#FFFFFF" d="M249.399,222.004c0.72,0,1.441,0,2.213,0c0,0.734,0,1.441,0,2.259
		c-0.714,0-1.448,0-2.185-0.001c-0.001-0.001,0.024,0.025,0.024,0.025c-0.01-0.772-0.022-1.536-0.034-2.309L249.399,222.004z"/>
	<path fill-rule="evenodd" clip-rule="evenodd" fill="#FFFFFF" d="M249.417,226.497c-0.724,0-1.447,0-2.218,0c0-0.75,0-1.46,0-2.212
		c0.762,0,1.504,0,2.251,0.001c0.001,0.001-0.025-0.025-0.023-0.024c-0.01,0.755-0.019,1.507-0.029,2.254L249.417,226.497z"/>
	<path fill-rule="evenodd" clip-rule="evenodd" fill="#FFFFFF" d="M249.398,226.516c0.723,0,1.447,0,2.218,0
		c0,0.735,0,1.453,0,2.237c-0.733,0-1.473,0-2.214,0l0.019,0.019c-0.001-0.755-0.002-1.519-0.004-2.274L249.398,226.516z"/>
	<path fill-rule="evenodd" clip-rule="evenodd" fill="#FFFFFF" d="M249.402,228.753c0.007,0.752,0.014,1.505,0.021,2.257
		c-0.001,0.001,0.021-0.021,0.021-0.021c-0.729,0-1.454,0-2.237,0c0-0.699,0-1.409,0-2.216c0.73,0,1.472,0,2.213-0.001
		L249.402,228.753z"/>
	<path fill-rule="evenodd" clip-rule="evenodd" fill="#FFFFFF" d="M249.424,233.293c0.009-0.771,0.014-1.538,0.02-2.304
		c0-0.001-0.022,0.021-0.021,0.021c0.721-0.001,1.438-0.001,2.198-0.001c0,0.768,0,1.477,0,2.265c-0.743,0-1.478,0-2.216,0
		L249.424,233.293z"/>
	<path fill-rule="evenodd" clip-rule="evenodd" fill="#FFFFFF" d="M249.405,233.273c0,0.725,0,1.444,0,2.215
		c-0.742,0-1.452,0-2.208,0c0-0.707,0-1.415,0-2.196c0.75,0,1.489,0,2.227,0C249.424,233.293,249.405,233.273,249.405,233.273z"/>
	<path fill-rule="evenodd" clip-rule="evenodd" fill="#FFFFFF" d="M260.731,227.596c-0.739,0-1.481,0-2.256,0
		c0-0.717,0-1.412,0-2.16c0.697,0,1.408,0,2.238,0c0,0.711,0,1.448-0.001,2.188C260.712,227.624,260.731,227.596,260.731,227.596z"
		/>
	<path fill-rule="evenodd" clip-rule="evenodd" fill="#FFFFFF" d="M260.712,229.907c0.006-0.772,0.012-1.536,0.019-2.311
		c0.001-0.001-0.019,0.027-0.018,0.026c0.719-0.001,1.437-0.001,2.2-0.001c0,0.777,0,1.483,0,2.259c-0.748,0-1.484,0-2.22,0
		L260.712,229.907z"/>
	<path fill-rule="evenodd" clip-rule="evenodd" fill="#FFFFFF" d="M260.692,229.881c-0.001,0.762-0.003,1.523-0.004,2.278
		l0.019-0.019c-0.722,0-1.446,0-2.215,0c0-0.737,0-1.45,0-2.233c0.74,0,1.479,0,2.22,0L260.692,229.881z"/>
	<path fill-rule="evenodd" clip-rule="evenodd" fill="#FFFFFF" d="M260.688,232.159c0.721,0,1.441,0,2.217,0
		c0,0.733,0,1.444,0,2.264c-0.716,0-1.454,0-2.189-0.002c-0.001,0,0.021,0.024,0.021,0.024c-0.01-0.77-0.02-1.531-0.03-2.305
		L260.688,232.159z"/>
	<path fill-rule="evenodd" clip-rule="evenodd" fill="#FFFFFF" d="M260.731,236.632c-0.738,0-1.48,0-2.256,0
		c0-0.719,0-1.411,0-2.188c0.745,0,1.501,0,2.261,0.001c0.001,0.001-0.021-0.023-0.021-0.023c0,0.744-0.001,1.488-0.003,2.232
		C260.712,236.654,260.731,236.632,260.731,236.632z"/>
	<path fill-rule="evenodd" clip-rule="evenodd" fill="#FFFFFF" d="M260.714,238.937c0.005-0.765,0.011-1.538,0.017-2.304
		c0.001-0.001-0.019,0.021-0.018,0.021c0.719-0.001,1.437-0.001,2.2-0.001c0,0.768,0,1.477,0,2.265c-0.747,0-1.482,0-2.218,0
		L260.714,238.937z"/>
	<path fill-rule="evenodd" clip-rule="evenodd" fill="#FFFFFF" d="M260.695,238.917c-0.003,0.76-0.005,1.513-0.008,2.277l0.02-0.02
		c-0.723,0-1.448,0-2.218,0c0-0.745,0-1.452,0-2.239c0.743,0,1.483,0,2.225,0C260.714,238.937,260.695,238.917,260.695,238.917z"/>
	<path fill-rule="evenodd" clip-rule="evenodd" fill="#FFFFFF" d="M260.687,241.194c0.723,0,1.445,0,2.219,0
		c0,0.732,0,1.444,0,2.199c-0.702,0-1.411,0-2.199,0c0-0.741,0-1.481,0-2.219L260.687,241.194z"/>
	<path fill-rule="evenodd" clip-rule="evenodd" fill="#FFFFFF" d="M235.916,215.252c1.501,0,2.945,0,4.427,0c0,1.86,0,3.679,0,5.56
		c-1.448,0-2.913,0-4.427,0C235.916,218.982,235.916,217.149,235.916,215.252z"/>
	<path fill-rule="evenodd" clip-rule="evenodd" fill="#FFFFFF" d="M274.196,215.189c-1.495,0-2.942,0-4.427,0
		c0-4.491,0-8.946,0-13.462c1.445,0,2.911,0,4.427,0C274.196,206.187,274.196,210.657,274.196,215.189z"/>
	<path fill-rule="evenodd" clip-rule="evenodd" fill="#FFFFFF" d="M283.308,224.211c-0.741,0-1.481,0-2.255,0
		c0-0.719,0-1.411,0-2.162c0.696,0,1.407,0,2.236,0c0,0.715,0,1.449-0.002,2.188C283.287,224.237,283.308,224.211,283.308,224.211z"
		/>
	<path fill-rule="evenodd" clip-rule="evenodd" fill="#FFFFFF" d="M283.285,226.513c0.008-0.766,0.015-1.529,0.022-2.302
		c0,0-0.02,0.026-0.02,0.025c0.72-0.001,1.439-0.001,2.203-0.001c0,0.775,0,1.482,0,2.259c-0.75,0-1.487,0-2.228,0L283.285,226.513z
		"/>
	<path fill-rule="evenodd" clip-rule="evenodd" fill="#FFFFFF" d="M283.262,226.494c0,0.72,0,1.444,0,2.22c-0.726,0-1.436,0-2.196,0
		c0-0.693,0-1.4,0-2.201c0.742,0,1.48,0,2.219,0L283.262,226.494z"/>
	<path fill-rule="evenodd" clip-rule="evenodd" fill="#FFFFFF" d="M296.771,203.902c-1.494,0-2.939,0-4.426,0
		c0-4.492,0-8.945,0-13.461c1.447,0,2.912,0,4.426,0C296.771,194.895,296.771,199.37,296.771,203.902z"/>
</g>
<g>
	<g>
		<polyline fill="none" stroke="#BF1B00" stroke-width="0.75" stroke-miterlimit="10" points="131.913,252.892 179.14,252.892 
			179.14,192.722 193.667,192.722 193.667,186.392 		"/>
		<g>
			<path fill="#BF1B00" d="M193.667,187.738l-2.702,1.643l-0.062-0.092l1.751-4.406c0.337-1.535,0.675-3.07,1.013-4.605
				c0.338,1.535,0.675,3.07,1.014,4.605l1.75,4.406l-0.046,0.092L193.667,187.738z"/>
		</g>
	</g>
</g>
<g>
	<g>
		<polyline fill="none" stroke="#BF1B00" stroke-width="0.75" stroke-miterlimit="10" points="216.351,157.182 261.761,157.182 
			261.785,176.886 		"/>
		<g>
			<path fill="#BF1B00" d="M261.783,175.539l2.7-1.646l0.062,0.093l-1.745,4.408c-0.336,1.535-0.671,3.071-1.007,4.606
				c-0.34-1.535-0.679-3.069-1.02-4.604l-1.755-4.403l0.045-0.093L261.783,175.539z"/>
		</g>
	</g>
</g>
<g>
	<path fill-rule="evenodd" clip-rule="evenodd" fill="#FFFFFF" d="M526.649,190.039c-10.923,0-21.845-0.008-32.771,0.02
		c-0.646,0-0.768-0.141-0.767-0.827c0.022-16.688,0.022-33.373,0-50.06c-0.001-0.689,0.121-0.822,0.767-0.821
		c15.636,0.023,31.268,0.023,46.9,0c0.64-0.001,0.771,0.132,0.771,0.821c-0.024,16.687-0.024,33.371,0,50.06
		c0,0.687-0.13,0.833-0.771,0.827c-3.769-0.039-7.536-0.02-11.304-0.02c-0.063-0.1-0.059-0.188,0.017-0.278
		c0.882-0.502,1.864-0.744,2.688-1.407c1.795-1.437,2.827-3.297,2.884-5.7c0.018-0.764,0.247-1.349,0.755-1.87
		c0.883-0.901,1.742-1.827,2.594-2.77c0.925-1.009,0.926-1.876,0.027-2.88c-0.373-0.406-0.749-0.813-1.136-1.205
		c-0.883-0.897-1.723-0.942-2.678-0.136c-0.518,0.441-0.975,0.957-1.416,1.475c-0.573,0.664-1.116,0.756-1.907,0.332
		c-4.245-2.29-9.153,0.311-10.136,5.136c-0.723,3.547,1.233,7.346,4.435,8.563c0.354,0.13,0.737,0.2,1.035,0.461
		C526.717,189.851,526.721,189.939,526.649,190.039z"/>
	<path fill-rule="evenodd" clip-rule="evenodd" fill="#C4C6C8" d="M526.633,189.854c-3.012-0.716-4.945-2.687-5.642-5.87
		c-0.694-3.199,0.249-5.924,2.687-7.913c2.433-1.984,5.138-2.143,7.85-0.64c0.662,0.366,1.03,0.351,1.494-0.251
		c0.455-0.586,0.986-1.115,1.521-1.632c0.884-0.855,1.896-0.858,2.782-0.007c0.512,0.493,1.005,1.015,1.467,1.561
		c0.784,0.93,0.782,2.055-0.033,2.966c-0.928,1.045-1.882,2.056-2.854,3.051c-0.391,0.397-0.558,0.811-0.573,1.394
		c-0.104,3.669-2.437,6.581-5.83,7.348c-0.302,0.197-0.672-0.067-0.967,0.18c-0.315,0-0.623,0-0.939,0
		C527.306,189.79,526.931,190.061,526.633,189.854z"/>
	<path fill-rule="evenodd" clip-rule="evenodd" fill="#F1BC7D" d="M526.633,189.854c0.334-0.017,0.68-0.108,0.961,0.186
		c-0.312,0-0.63,0-0.945,0C526.665,189.969,526.659,189.91,526.633,189.854z"/>
	<path fill-rule="evenodd" clip-rule="evenodd" fill="#F1BC7D" d="M528.534,190.039c0.287-0.294,0.63-0.206,0.967-0.18
		c-0.027,0.055-0.033,0.111-0.025,0.18C529.164,190.039,528.85,190.039,528.534,190.039z"/>
	<path fill-rule="evenodd" clip-rule="evenodd" fill="#7D8589" d="M521.524,189.8c-0.45,0-0.633,0-0.816,0
		c-7.442,0-14.875,0.006-22.313,0c-2.207-0.004-2.075-1.16-2.077-3.526c-0.004-14.732,0.132-29.473,0.138-44.212
		c0.001-2.37-0.28-1.723,1.95-1.724c7.84-0.002,15.689,0.007,23.536-0.014c0.648-0.002,1.115,0.077,1.57,0.563
		c2.378,2.577,3.415,3.498,5.83,6.041c0.449,0.48,0.675,0.97,0.672,1.673c-0.02,7.703-0.016,15.413-0.004,23.117
		c0.002,0.647-0.028,1.063-0.798,0.686c0,0-0.599-0.623-0.591-1.703c0.052-6.601,0.014-13.196,0.042-19.797
		c0.005-0.831-0.608-2.182-1.398-2.151c-1.63,0.068-2.582,0.027-4.216,0.016c-1.063-0.007-0.303,0.318-0.307-0.826
		c-0.008-1.843-0.024-3.28,0.009-5.121c0.013-0.662-0.116-1.208-0.813-1.207c-7.066,0.026-15.895,0.025-22.955,0.002
		c-0.618-0.002-1.325,0.192-1.324,0.842c0.016,14.305,0.019,28.876-0.006,43.184c0,0.802,0.472,2.808,1.436,2.718
		c6.431-0.014,12.867,0.141,19.296,0.116c0.638-0.002,1.033,0.006,1.313,0.678C520.071,190.064,520.726,188.891,521.524,189.8z"/>
	<path fill-rule="evenodd" clip-rule="evenodd" fill="#7D8589" d="M508.067,153.45c2.043-0.495,3.966-0.929,5.866-1.444
		c0.629-0.163,0.754,0.091,0.836,0.63c0.574,3.891-2.018,7.633-5.802,8.385c-3.554,0.698-7.223-1.994-7.928-5.811
		c-0.899-4.883,2.662-9.271,7.283-8.97c1.244,0.081,1.258,0.098,0.989,1.381C508.913,149.526,508.498,151.428,508.067,153.45z"/>
	<path fill-rule="evenodd" clip-rule="evenodd" fill="#7D8589" d="M507.905,173.783c-1.474,0-2.943,0.012-4.41-0.004
		c-0.893-0.01-1.373-0.47-1.354-1.276c0.02-0.875,0.529-1.261,1.278-1.266c3.003-0.019,6.006-0.022,9.014,0.001
		c0.855,0.008,1.376,0.566,1.312,1.334c-0.069,0.846-0.561,1.215-1.339,1.213C510.908,173.779,509.405,173.783,507.905,173.783z"/>
	<path fill-rule="evenodd" clip-rule="evenodd" fill="#C4C6C8" d="M509.953,151.426c0.489-2.27,0.955-4.373,1.385-6.487
		c0.089-0.405,0.244-0.471,0.579-0.345c2.208,0.816,3.682,2.412,4.463,4.763c0.187,0.549-0.171,0.555-0.447,0.623
		C513.995,150.458,512.05,150.922,509.953,151.426z"/>
	<path fill-rule="evenodd" clip-rule="evenodd" fill="#7D8589" d="M507.247,178.578c-1.22,0-2.438,0.014-3.66-0.005
		c-0.96-0.021-1.452-0.479-1.45-1.306c0.002-0.816,0.5-1.291,1.459-1.297c2.44-0.017,4.882-0.018,7.322,0.001
		c0.956,0.007,1.45,0.488,1.446,1.307c-0.004,0.823-0.496,1.274-1.456,1.295C509.685,178.59,508.468,178.578,507.247,178.578z"/>
	<path fill-rule="evenodd" clip-rule="evenodd" fill="#7D8589" d="M504.512,166.492c0.406,0,0.813-0.022,1.214,0.005
		c0.687,0.049,1.129,0.43,1.158,1.187c0.03,0.786-0.375,1.281-1.104,1.329c-0.843,0.061-1.691,0.054-2.532,0
		c-0.685-0.039-1.104-0.462-1.105-1.227c-0.003-0.797,0.412-1.229,1.154-1.287C503.697,166.468,504.103,166.493,504.512,166.492z"/>
	<path fill-rule="evenodd" clip-rule="evenodd" fill="#FFFFFF" d="M537.405,176.271c0.008,0.538-0.209,0.779-0.43,1.019
		c-2.197,2.345-4.399,4.687-6.585,7.033c-0.531,0.58-0.989,0.561-1.516-0.025c-0.907-1.02-1.836-2.016-2.798-2.983
		c-0.633-0.636-0.55-1.188,0.019-1.785c0.689-0.719,1.055-0.745,1.747-0.042c0.433,0.437,0.884,0.865,1.253,1.353
		c0.421,0.557,0.692,0.417,1.095-0.024c1.667-1.82,3.368-3.606,5.048-5.406c0.331-0.355,0.715-0.663,1.156-0.345
		C536.844,175.388,537.306,175.78,537.405,176.271z"/>
</g>
<g>
	<g>
		<polyline fill="none" stroke="#BF1B00" stroke-width="0.75" stroke-miterlimit="10" points="298.909,230.174 354.318,230.174 
			354.342,210.47 		"/>
		<g>
			<path fill="#BF1B00" d="M354.34,211.816l-2.703,1.64l-0.062-0.093l1.756-4.403c0.34-1.535,0.679-3.069,1.019-4.604
				c0.337,1.535,0.672,3.071,1.008,4.606l1.744,4.409l-0.045,0.092L354.34,211.816z"/>
		</g>
	</g>
</g>
<g>
	<g>
		
			<line fill="none" stroke="#BF1B00" stroke-width="0.75" stroke-miterlimit="10" x1="400.088" y1="161.993" x2="471.287" y2="161.993"/>
		<g>
			<path fill="#BF1B00" d="M469.94,161.993l-1.643-2.702l0.092-0.062l4.406,1.751c1.535,0.338,3.07,0.675,4.605,1.013
				c-1.535,0.339-3.07,0.675-4.605,1.014l-4.406,1.75l-0.092-0.046L469.94,161.993z"/>
		</g>
	</g>
</g>
<rect x="397.829" y="145.773" fill-rule="evenodd" clip-rule="evenodd" fill="#FFFFFF" width="13.838" height="21.634"/>
<path fill-rule="evenodd" clip-rule="evenodd" fill="#C0DEED" d="M407.009,165.813c-0.582,0.926-1.431,1.365-2.509,1.3
	c-1.213-0.072-1.839-0.934-1.878-1.963c-0.192-5.168-0.299-10.34-0.381-15.511c-0.019-1.127,0.662-1.812,1.811-1.996
	c1.104-0.178,1.946,0.271,2.622,1.078C407.855,150.13,408.118,164.151,407.009,165.813z"/>
<path fill-rule="evenodd" clip-rule="evenodd" fill="#C0DEED" d="M403.374,233.771c-0.786,0.759-1.715,0.982-2.747,0.66
	c-1.159-0.361-1.561-1.348-1.352-2.356c1.054-5.063,2.19-10.109,3.352-15.149c0.253-1.099,1.078-1.601,2.237-1.503
	c1.114,0.093,1.824,0.73,2.287,1.676C407.958,218.75,404.849,232.425,403.374,233.771z"/>
<path fill-rule="evenodd" clip-rule="evenodd" fill="#C1DEED" d="M550.205,160.525c0,1.262,0.091,2.679-0.025,4.077
	c-0.126,1.52-0.825,2.777-2.534,2.863c-1.999,0.102-2.071-1.426-2.202-2.881c-0.357-3.986-0.825-7.964-1.1-11.956
	c-0.13-1.88,0.235-3.875,2.608-4.036c2.431-0.165,1.976,1.957,2.261,3.456C549.738,154.807,550.645,157.51,550.205,160.525z"/>
<path fill-rule="evenodd" clip-rule="evenodd" fill="#C2DEED" d="M549.112,199.365c-0.151,1.276-0.495,2.631-1.88,2.692
	c-1.474,0.065-2.91-0.825-2.814-2.518c0.296-5.189,0.749-10.373,1.249-15.547c0.108-1.124,1.049-1.659,2.213-1.457
	c1.079,0.188,1.917,0.867,2.077,1.911C550.23,186.223,550,191.849,549.112,199.365z"/>
<g>
	<path fill-rule="evenodd" clip-rule="evenodd" fill="#BEDBE4" d="M476.648,334.041c-20.299,0-40.598,0-60.896,0
		c-0.003,0.508-0.004,1.016-0.007,1.523c20.306,0,40.612,0,60.918,0C477.015,335.053,476.992,334.546,476.648,334.041z"/>
	<path fill-rule="evenodd" clip-rule="evenodd" fill="#BEDBE4" d="M476.648,334.041c0.004,0.508,0.01,1.016,0.015,1.523
		c0.221,0.906,0.175,2.344,0.713,2.613c1.437,0.719,1.356-0.751,1.458-1.589c0.119-0.962,0.112-1.954,0.025-2.922
		c-0.093-1.041,0.396-2.822-1.25-2.634C476.238,331.188,476.885,332.975,476.648,334.041z"/>
</g>
<path fill-rule="evenodd" clip-rule="evenodd" fill="#7D8589" d="M493.119,230.777c0.013,1.434,0.806,2.216,2.254,2.275
	c1.105,0.053,2.217,0.049,3.328,0.001c0.701-0.026,0.921,0.25,0.908,0.932c-0.038,1.737-0.03,3.469-0.001,5.211
	c0.005,0.322-0.081,0.541-0.24,0.722c-1.622,0.551-2.797,2.079-2.797,3.894c0,1.796,1.161,3.323,2.77,3.877
	c0.195,0.221,0.265,0.465,0.263,0.817c-0.022,4.2-0.03,8.402-0.042,12.603c0,0.236-0.015,0.482-0.032,0.718
	c-0.097,1.278,0.292,1.867,1.762,1.756c2.112-0.163,4.243-0.04,6.366-0.04c2.225,0,4.447,0.021,6.663-0.012
	c0.422-0.009,0.752,0.042,1.034,0.213c0.594,1.54,2.081,2.633,3.833,2.633c1.736,0,3.218-1.081,3.819-2.609
	c0.251-0.176,0.545-0.251,0.945-0.238c1.689,0.042,3.381,0.055,5.069-0.004c0.851-0.03,1.086,0.276,1.046,1.081
	c-0.053,1.06-0.051,2.125,0.004,3.184c0.073,1.43,0.877,2.227,2.305,2.24c3.524,0.031,7.045,0.033,10.57,0
	c1.5-0.015,2.303-0.854,2.313-2.372c0.024-3.478,0.022-6.95,0.001-10.428c-0.009-1.528-0.778-2.39-2.282-2.411
	c-3.523-0.049-7.045-0.046-10.569-0.004c-1.537,0.02-2.279,0.817-2.345,2.36c-0.04,0.962-0.081,1.938,0.008,2.893
	c0.087,1.014-0.334,1.227-1.244,1.193c-1.64-0.062-3.286-0.035-4.925-0.009c-0.291,0.005-0.544-0.008-0.77-0.091
	c-0.367-1.319-1.373-2.368-2.676-2.796c-0.175-0.516-0.151-1.118-0.125-1.752c0.065-1.393,0.052-2.797,0.002-4.192
	c-0.023-0.7,0.203-0.934,0.904-0.902c1.105,0.056,2.216,0.046,3.328,0.002c1.361-0.046,2.174-0.807,2.188-2.157
	c0.034-3.615,0.031-7.238,0-10.865c-0.012-1.307-0.766-2.1-2.077-2.114c-3.672-0.04-7.337-0.044-11.004,0.003
	c-1.315,0.021-2.017,0.831-2.058,2.146c-0.033,1.061-0.038,2.123-0.002,3.185c0.023,0.688-0.097,1.069-0.926,1.044
	c-1.783-0.059-3.577-0.043-5.359-0.004c-0.323,0.006-0.556-0.061-0.742-0.21c-0.389-1.203-1.323-2.166-2.512-2.595
	c-0.144-0.194-0.194-0.44-0.189-0.754c0.025-1.741,0.032-3.475-0.003-5.21c-0.02-0.689,0.209-0.959,0.909-0.934
	c1.061,0.045,2.123,0.045,3.185,0c1.553-0.056,2.31-0.78,2.326-2.344c0.042-3.479,0.041-6.946,0.004-10.425
	c-0.017-1.615-0.823-2.397-2.417-2.406c-3.474-0.02-6.951-0.022-10.43,0.001c-1.515,0.011-2.33,0.822-2.343,2.326
	C493.088,223.732,493.088,227.254,493.119,230.777z M502.276,247.593c1.023-0.43,1.825-1.264,2.227-2.3
	c0.505-0.323,1.173-0.306,1.861-0.256c0.482,0.029,0.969-0.002,1.443,0.006c1.207,0.022,2.807-0.411,3.51,0.201
	c0.824,0.707,0.196,2.353,0.286,3.591c0.007,0.098-0.001,0.19,0.002,0.29c0.05,1.625,0.779,2.33,2.405,2.421
	c1.322,0.07,3.146-0.618,3.843,0.293c0.658,0.858,0.188,2.597,0.185,3.947c-0.005,0.872,0.139,1.8-0.112,2.573
	c-1.313,0.427-2.329,1.49-2.696,2.825c-0.141,0.049-0.304,0.07-0.488,0.069c-3.965-0.02-7.919-0.027-11.883,0.004
	c-0.771,0.006-0.998-0.264-0.978-1.009c0.04-1.932,0.014-3.861,0.014-5.795c0-0.963-0.014-1.932,0.003-2.896
	C501.92,250.2,501.612,248.729,502.276,247.593z"/>
<g>
	<g>
		
			<line fill="none" stroke="#BF1B00" stroke-width="0.75" stroke-miterlimit="10" x1="552.167" y1="161.131" x2="597.052" y2="161.131"/>
		<g>
			<path fill="#BF1B00" d="M595.706,161.131l-1.643-2.702l0.092-0.062l4.406,1.751c1.535,0.337,3.07,0.675,4.605,1.013
				c-1.535,0.338-3.07,0.676-4.605,1.014l-4.406,1.75l-0.092-0.046L595.706,161.131z"/>
		</g>
	</g>
</g>
<g>
	<g>
		
			<line fill="none" stroke="#BF1B00" stroke-width="0.75" stroke-miterlimit="10" x1="551.667" y1="258.91" x2="576.552" y2="258.91"/>
		<g>
			<path fill="#BF1B00" d="M575.206,258.91l-1.643-2.702l0.092-0.062l4.406,1.751c1.535,0.337,3.07,0.675,4.605,1.013
				c-1.535,0.338-3.07,0.676-4.605,1.014l-4.406,1.75l-0.092-0.046L575.206,258.91z"/>
		</g>
	</g>
</g>
<g>
	<g>
		
			<line fill="none" stroke="#BF1B00" stroke-width="0.75" stroke-miterlimit="10" x1="292.973" y1="239.051" x2="470.534" y2="239.051"/>
		<g>
			<path fill="#BF1B00" d="M469.188,239.051l-1.645-2.702l0.093-0.062l4.406,1.751c1.535,0.337,3.07,0.675,4.605,1.013
				c-1.535,0.338-3.07,0.676-4.605,1.014l-4.406,1.75l-0.093-0.046L469.188,239.051z"/>
		</g>
	</g>
</g>
<g>
	<g>
		
			<line fill="none" stroke="#BF1B00" stroke-width="0.75" stroke-miterlimit="10" x1="130.667" y1="257.797" x2="471.287" y2="257.797"/>
		<g>
			<path fill="#BF1B00" d="M469.94,257.797l-1.643-2.702l0.092-0.062l4.406,1.751c1.535,0.337,3.07,0.675,4.605,1.013
				c-1.535,0.338-3.07,0.676-4.605,1.014l-4.406,1.75l-0.092-0.046L469.94,257.797z"/>
		</g>
	</g>
</g>
</svg>
