<?xml version="1.0" encoding="utf-8"?>
<!-- Generator: Adobe Illustrator 16.0.0, SVG Export Plug-In . SVG Version: 6.00 Build 0)  -->
<!DOCTYPE svg PUBLIC "-//W3C//DTD SVG 1.1//EN" "http://www.w3.org/Graphics/SVG/1.1/DTD/svg11.dtd">
<svg version="1.1" id="Layer_1" xmlns="http://www.w3.org/2000/svg" xmlns:xlink="http://www.w3.org/1999/xlink" x="0px" y="0px"
	 width="606.668px" height="366.668px" viewBox="0 0 606.668 366.668" enable-background="new 0 0 606.668 366.668"
	 xml:space="preserve">
<path fill="#007297" d="M490.804,310.683c0.053,15.325,0.006,30.652,0.234,45.976c0.053,3.499-1.081,4.798-4.457,4.349
	c-0.792-0.105-1.61-0.016-2.418-0.016c-138.359,0-276.72-0.037-415.08,0.133c-5.745,0.008-7.501-1.229-7.327-7.198
	c0.431-14.707,0.042-29.438-0.016-44.159c0.563-0.63,1.265-0.961,2.106-1.002c43.942,0.436,87.931,1.318,131.821-0.162
	c47.361-1.597,94.679-0.567,142.015-0.875c1.008-0.006,2.015-0.028,3.021-0.085c36.258,2.321,72.557,0.495,108.831,1.031
	c10.888,0.162,21.778-0.022,32.667,0.057C485.182,308.752,488.327,308.332,490.804,310.683z"/>
<path fill="#298EC1" d="M490.804,310.683c-41.166-0.027-82.331-0.046-123.497-0.09c-8.846-0.009-17.716,0.486-26.489-1.157
	c-10.935-4.05-22.278-4.298-33.784-4.211c-31.201,0.236-62.405,0.112-93.608,0.04c-3.314-0.008-6.936,0.799-9.657-2.121
	c1.784-3.959,5.438-2.636,8.339-2.646c34.299-0.117,68.598-0.063,102.896-0.092c2.195-0.002,4.43,0.352,7.569-0.683
	c-14.87-16.732-21.972-36.877-27.81-57.611c-0.311-1.012-0.45-2.056-0.611-3.094c-10.999-49.984-10.115-99.48,6.07-148.349
	c0.351-0.892,0.756-1.768,1.182-2.624c0.226-0.554,0.497-1.096,0.767-1.63c0.343-0.806,0.681-1.62,0.963-2.455
	c5.493-14.389,12.586-27.711,25.052-37.44c5.355-3.842,10.939-7.382,17.798-7.233c2.558,0.057,0.8-2.352,2.189-2.593
	c2.912,1.869,2.307-1.039,2.621-2.117c2.373-8.117,4.805-16.225,6.813-24.437c0.89-3.643,2.575-4.669,6.233-4.657
	c37.533,0.131,75.067,0.13,112.601,0.002c3.655-0.013,5.316,1.002,6.226,4.672c2.612,10.548,5.654,20.991,8.527,31.475
	c1.139,1.693,1.079,3.354-0.139,4.979c-16.533,3.038-25.682,14.723-32.738,28.496c-13.685,26.706-18.696,55.519-19.984,85.17
	c0.289,0.759,0.255,1.485-0.214,2.169c-1.353,28.935,1.163,57.441,9.468,85.304c0.59,0.702,1.071,1.444,0.932,2.429
	c4.124,15.91,10.987,30.438,22.105,42.692c5.408,5.964,12.381,9.272,20.321,10.532c1.629,1.99,1.675,4.028,0.188,6.113
	C491.023,309.905,490.913,310.295,490.804,310.683z"/>
<path fill="#005DA5" d="M348.174,36.694c-0.621,1.261,1.629,3.739-1.856,3.828c-6.883,0.173-12.404,3.853-17.946,7.394
	c-3.405,1.474-6.985,1.655-10.642,1.651c-35.248-0.034-70.499,0.211-105.743-0.156c-11.219-0.117-19.304,4.575-25.861,12.914
	c-11.979,15.236-18.229,33.03-22.599,51.6c-1.938,8.235-3.285,16.594-4.361,24.988c-0.166,1.009-0.497,1.981-0.687,2.985
	c-1.767,15.631-2.051,31.362-1.246,47.006c1.541,29.908,6.075,59.252,20.411,86.212c5.586,10.507,12.356,19.813,23.659,24.854
	c1.11,0.496,2.07,1.242,2.525,2.458c2.077,1.866,4.616,1.056,6.942,1.06c35.424,0.053,70.851,0.271,106.27-0.131
	c8.729-0.098,16.564,1.239,23.776,6.079c-44.195,0.007-88.424-1.034-132.579,0.313c-45.982,1.401-91.937,0.184-137.897,0.861
	c-2.338,0.034-4.866,0.781-7.011-0.937c1.752-2.182,4.284-2.088,6.665-2.095c40.142-0.096,80.281-0.097,120.422-0.008
	c1.195,0.002,2.419,0.021,3.53,0.605c-5.175-2.632-10.73-2.894-16.404-2.883c-35.299,0.058-70.599,0.059-105.898-0.016
	c-3.314-0.007-6.957,0.818-9.639-2.198c2.072-4.049,5.938-2.597,9.033-2.607c34.281-0.135,68.563-0.072,102.844-0.108
	c2.167-0.002,4.399,0.477,6.405-0.371c0.345-0.433,0.394-0.831,0.089-1.188c-19.265-22.748-26.557-50.24-31.413-78.756
	c-2.273-13.354-2.878-26.855-3.606-40.308c-0.652-12.042,0.8-24.124,2.129-36.133c0.068-0.67,0.132-1.344,0.165-2.014
	c0.008-0.654,0.05-1.313,0.098-1.967c2.482-17.53,5.804-34.87,12.096-51.514c4.858-12.854,10.732-25.105,20.109-35.411
	c1.909-2.097,3.959-3.975,6.124-5.767c6.463-4.609,13.105-8.745,21.568-7.893c2.819-9.604,5.763-19.173,8.395-28.83
	c0.924-3.392,2.31-4.754,6.111-4.737c37.699,0.166,75.4,0.14,113.1,0.032c3.389-0.01,4.964,0.887,5.787,4.378
	C343.161,18.886,345.764,27.767,348.174,36.694z"/>
<path fill="#103A71" d="M62.29,302.556c1.981,1.513,4.286,0.83,6.438,0.833c37.501,0.043,75.004,0.16,112.505-0.094
	c6.418-0.044,11.599,1.992,18.19,6.377c-46.471,0-91.281,0-136.093,0.002c-0.53,0.032-1.06,0.062-1.589,0.091
	c-12.277-2.306-20.521-10.201-27.534-19.827c-9.079-12.462-13.948-26.864-19.042-41.168c-1.18-0.372-0.857-1.076-0.398-1.812
	c-7.227-28.688-9.637-57.832-8.401-87.345c0.581-13.894,2.851-27.573,4.766-41.304c-0.631-0.642-0.55-1.173,0.243-1.598
	c4.453-16.312,8.75-32.681,17.216-47.536c4.418-7.756,9.502-14.985,16.472-20.718c3.934-3.234,8.187-6.563,13.21-6.915
	c7.321-0.51,9.392-4.702,10.676-10.884c1.472-7.082,3.827-13.976,5.626-20.997c0.748-2.917,1.997-4.178,5.318-4.167
	c37.949,0.132,75.901,0.131,113.853,0.007c3.509-0.012,4.842,1.131,5.703,4.488c2.496,9.746,5.434,19.377,8.199,29.054
	c-7.404,1.9-14.596,4.305-20.892,8.828c-3.332,1.862-6.986,1.673-10.612,1.673c-35.48,0-70.961,0.194-106.438-0.117
	c-10.75-0.096-18.57,4.493-24.92,12.396c-12.834,15.97-18.919,34.929-23.681,54.438c-0.209,1.03-0.678,1.997-0.707,3.07
	c-3.87,21.489-5.583,43.123-4.981,64.972c0.569,20.649,3.44,40.929,8.775,60.864c0.298,0.936,0.508,1.896,0.678,2.857
	c4.087,15.242,10.591,29.318,20.503,41.687c3.419,4.267,7.634,7.62,12.754,9.747C59.75,300.135,61.626,300.555,62.29,302.556z"/>
<path fill="#C0DEED" d="M525.733,66.857c-0.011,1.119-0.579,1.899-1.572,2.315c-1.318,0.556-2.228-0.014-3.034-1.11
	c-2.84-3.859-5.733-7.678-8.615-11.505c-0.857-1.139-0.833-2.198,0.256-3.153c0.828-0.725,1.798-0.794,2.8-0.428
	C517.248,53.592,525.753,65.223,525.733,66.857z"/>
<path fill="#C0DEED" d="M546.909,128.279c-0.61,2.277,0.89,5.104-2.344,5.2c-2.324,0.067-2.455-2.098-2.756-3.941
	c-0.606-3.734-1.383-7.44-2.09-11.158c-0.348-1.814,0.137-3.265,2.059-3.713c1.895-0.44,2.391,1.014,2.707,2.44
	C545.35,120.991,546.177,124.886,546.909,128.279z"/>
<path fill="#C0DEED" d="M546.918,221.76c-0.776,3.512-1.67,7.572-2.572,11.633c-0.367,1.657-1.46,2.363-3.069,2.025
	c-1.815-0.379-1.928-1.814-1.649-3.28c0.701-3.7,1.563-7.375,2.169-11.092c0.322-1.979,0.113-4.506,2.771-4.503
	C547.747,216.548,546.324,219.423,546.918,221.76z"/>
<path fill="#C0DDED" d="M525.699,283.264c0.128,2.288-8.675,13.582-10.891,13.966c-1.04,0.18-2.123,0.122-2.738-0.787
	c-0.61-0.903-0.359-1.936,0.312-2.801c2.952-3.812,5.896-7.63,8.883-11.414c0.809-1.025,1.851-1.561,3.155-0.789
	C525.117,281.852,525.834,282.262,525.699,283.264z"/>
<path fill="#C0DEED" d="M532.39,81.791c3.813,2.975,4.131,8.054,6.006,12.28c0.894,2.014,1.95,4.25-0.189,6.069
	c-1.436,1.221-2.744,0.281-3.313-1.185c-1.734-4.477-3.406-8.98-4.919-13.536C529.461,83.877,529.459,82.135,532.39,81.791z"/>
<path fill="#C1DEED" d="M491.132,309.517c-0.063-2.037-0.125-4.075-0.188-6.113c3.056,1.156,8.669-2.437,9.016,2.206
	C500.26,309.646,494.225,308.206,491.132,309.517z"/>
<path fill="#C0DEED" d="M491.055,46.612c0.046-1.659,0.093-3.318,0.139-4.979c2.179,0.173,4.391,0.17,6.521,0.578
	c1.313,0.25,2.887,0.984,2.65,2.726c-0.252,1.861-1.946,1.66-3.326,1.676C495.047,46.635,493.051,46.614,491.055,46.612z"/>
<path fill="#BEDBE4" d="M75.51,334.718c20.3,0,40.599,0,60.897,0c0.002,0.508,0.004,1.016,0.006,1.522c-20.306,0-40.612,0-60.918,0
	C75.143,335.729,75.166,335.222,75.51,334.718z"/>
<path fill="#BEDBE4" d="M75.51,334.718c-0.004,0.508-0.009,1.016-0.015,1.522c-0.221,0.906-0.174,2.345-0.713,2.613
	c-1.437,0.719-1.356-0.751-1.458-1.589c-0.118-0.962-0.112-1.954-0.025-2.922c0.094-1.041-0.396-2.822,1.25-2.634
	C75.92,331.864,75.272,333.65,75.51,334.718z"/>
<path fill="#FEFEFE" d="M364.87,189.835c4.8,0.09,6.593-1.328,6.231-6.13c-0.317-4.208-0.094-8.459-0.058-12.689
	c0.061-6.904,0.403-7.307,7.063-7.335c7.856-0.033,15.717-0.1,23.556,0.046c2.786,1.248,5.577,4.272,8.44,0.061
	c6.755,0.114,13.526-0.878,20.226,0.592c-0.105,19.854,0.305,39.69,3.758,59.308c1.523,8.664,3.576,17.235,5.389,25.852
	c-3.186,2.734-6.989,0.604-9.945,1.34c3.151,0.614,7.035-1.14,10.499,1.135c3.571,9.383,6.528,19.01,11.266,27.927
	c4.636,8.725,10.118,16.824,18.605,24.376c-3.327,0.155-5.395,0.337-7.463,0.338c-35.861,0.018-71.729-0.377-107.581,0.215
	c-13.185,0.219-22.294-5.323-29.73-15.169c-10.499-13.896-16.388-29.846-20.506-46.563c5.099-1.644,10.335-0.134,14.493-0.766
	c-4.227-0.771-9.686,1.428-14.761-1.169c-3.6-11.297-4.919-22.996-6.151-34.714c-0.271-2.581-0.741-5.143-1.12-7.714
	c-0.918-1.958-0.599-3.961-0.221-5.968c-0.376-21.499-0.102-42.959,3.884-64.195c2.479-13.208,5.211-26.345,10.898-38.649
	c5.353-0.532,10.847-2.823,15.829,1.26c1,0.819,1.046-0.363,1.199-0.688c1.291-2.716-1.016-3.97-2.343-5.562
	c-0.202-0.235-0.333-0.373-0.356-0.368c0.18,0.621,0.8,0.935,1.07,1.521c0.438,1.17,0.871,2.803-0.792,2.797
	c-4.626-0.014-9.362,1.311-13.874-0.786c3.736-11.049,9.578-20.873,17.688-29.221c6.131-6.312,13.441-9.525,22.672-9.444
	c36.527,0.316,73.061,0.13,109.59,0.13c2.003,0,4.009,0,7.14,0c-3.298,3.733-6.193,6.641-8.664,9.87
	c-13.177,17.219-19.551,37.313-24.324,58.072c-3.396,14.773-4.406,29.865-6.126,44.862c-6.727,2.523-13.672,0.803-20.499,1.072
	c-4.452-1.896-1.646-6.696-4.169-10.038c-1.76,3.331,1.337,8.131-3.232,10.041c-8.072,0.378-16.133,0.092-24.189,0.168
	c-7.197,0.067-7.202,0.048-7.229,7.494c-0.015,4.23-0.202,8.475,0.048,12.69c0.26,4.389-1.246,6.058-5.854,5.944"/>
<path fill="#2183BB" d="M296.86,190.805c0.073,1.987,0.146,3.979,0.221,5.968C295.332,194.845,295.497,192.847,296.86,190.805z"/>
<path fill="#B5CFE4" d="M264.112,129.998c0.287,1.565-0.196,2.849-1.688,3.451c-1.671,0.677-2.851-0.271-3.177-1.785
	c-1.048-4.867-1.984-9.762-2.793-14.675c-0.215-1.309,0.777-2.234,2.144-2.408c1.845-0.233,2.553,1.214,2.858,2.519
	C262.458,121.37,263.239,125.693,264.112,129.998z"/>
<path fill="#B5CFE4" d="M256.595,233.04c0.999-5.205,1.837-9.715,2.741-14.213c0.293-1.455,0.913-2.831,2.777-2.347
	c1.549,0.402,2.306,1.62,2.036,3.213c-0.766,4.522-1.504,9.059-2.495,13.536c-0.332,1.499-1.29,3.251-3.331,2.581
	C256.88,235.337,256.262,233.977,256.595,233.04z"/>
<path fill="#B4CFE4" d="M242.513,283.46c0.089,2.211-8.113,12.999-10.424,13.659c-0.998,0.285-1.993,0.278-2.775-0.574
	c-1.085-1.184-0.396-2.374,0.276-3.28c2.866-3.864,5.839-7.65,8.816-11.433c0.638-0.811,1.5-1.365,2.619-0.801
	C242.017,281.53,242.458,282.381,242.513,283.46z"/>
<path fill="#B4CFE4" d="M231.201,52.577c0.738,0.428,1.807,0.729,2.371,1.431c2.88,3.598,5.678,7.264,8.4,10.981
	c0.937,1.279,0.791,2.744-0.527,3.755c-1.516,1.164-2.692,0.158-3.578-0.98c-2.831-3.639-5.65-7.29-8.322-11.045
	C228.292,54.96,228.417,53.329,231.201,52.577z"/>
<path fill="#B4CFE4" d="M248.308,268.222c-2.022-0.334-2.096-1.713-1.434-3.508c1.46-3.954,2.904-7.918,4.309-11.893
	c0.591-1.677,1.504-3.005,3.459-2.591c2.287,0.483,1.917,2.21,1.359,3.812c-1.318,3.791-2.625,7.59-4.066,11.336
	C251.368,266.852,250.663,268.446,248.308,268.222z"/>
<path fill="#C0DEED" d="M384.199,66.333c0.091,1.089-0.323,1.95-1.225,2.546c-1.014,0.669-2.031,0.358-2.682-0.44
	c-3.259-4.016-6.451-8.085-9.624-12.169c-0.691-0.892-0.56-1.848,0.248-2.686c0.775-0.805,1.72-0.95,2.743-0.712
	C375.452,53.288,384.085,64.338,384.199,66.333z"/>
<path fill="#C0DDED" d="M372.858,297.273c-2.421-0.29-3.053-1.778-1.674-3.705c2.907-4.065,6.031-7.979,9.127-11.905
	c0.653-0.83,1.691-1.263,2.635-0.477c0.562,0.467,1.076,1.231,1.203,1.938C384.657,285.959,375.736,297.166,372.858,297.273z"/>
<path fill="#BEDDEC" d="M408.601,193.321c-0.056,1.1,0.041,3.539-0.369,5.892c-0.267,1.518-1.19,3.28-3.237,2.678
	c-1.365-0.401-2.438-1.713-1.967-3.295c1.182-3.953,0.475-7.982,0.728-11.97c0.117-1.865,0.27-3.956,2.624-4.03
	c2.818-0.092,2.109,2.339,2.199,4C408.677,188.396,408.601,190.209,408.601,193.321z"/>
<path fill="#BFDDED" d="M396.515,250.062c0.421,0.062,0.842,0.123,1.262,0.185c0.492,6.083-2.604,11.122-4.82,16.404
	c-0.64,1.524-2.033,1.975-3.523,1.344c-1.844-0.779-1.237-2.216-0.702-3.561c1.7-4.273,3.716-8.448,4.12-13.128
	C393.635,249.604,394.805,249.034,396.515,250.062z"/>
<path fill="#C1DEED" d="M408.634,160.207c-1.646,0-3.294,0-4.94,0c-0.062-2.563,0.198-5.115-0.713-7.646
	c-0.693-1.932-0.017-3.696,2.229-4.006c2.306-0.318,3.147,1.361,3.256,3.321C408.618,154.647,408.586,157.429,408.634,160.207z"/>
<path fill="#C0CBDC" d="M403.779,162.691c1.59,0,3.18,0,4.77,0c-0.32,1.723,1.033,4.521-1.856,4.706
	C403.679,167.59,403.899,164.817,403.779,162.691z"/>
<path fill="#F4F9FB" d="M396.515,250.062c-1.223,0.416-2.443,0.83-3.665,1.244c-0.438-0.015-0.876-0.026-1.314-0.041
	c-0.059-2.368-0.117-4.737-0.177-7.106c0.626-0.475,1.24-0.459,1.844,0.044C393.333,246.707,394.472,248.64,396.515,250.062z"/>
<path fill="#B9BFD2" d="M100.798,283.331c0.203,2.573-8.325,13.475-10.867,13.902c-1.092,0.185-2.011-0.105-2.599-1.051
	c-0.631-1.019-0.153-2.06,0.457-2.785c3.102-3.685,6.339-7.248,8.808-11.427c0.524-0.892,1.479-1.395,2.583-0.959
	C100.201,281.412,100.72,282.235,100.798,283.331z"/>
<path fill="#B8BFD1" d="M120.283,156.758c-0.087-1.597-0.041-3.218-0.296-4.786c-0.292-1.792-0.291-3.341,1.961-3.497
	c2.033-0.143,2.894,1.35,2.967,3.054c0.19,4.401,0.198,8.81,0.237,13.217c0.011,1.237-0.214,2.541-1.698,2.76
	c-1.676,0.248-2.806-0.84-2.918-2.341c-0.209-2.788-0.061-5.601-0.061-8.401C120.411,156.761,120.347,156.76,120.283,156.758z"/>
<path fill="#B8BED1" d="M120.264,183.625c1.146-0.049,2.293-0.097,3.439-0.146c1.604,6.001,0.681,12.067,0.459,18.117
	c0,0-0.511,0.103-0.511,0.104c-3.73,1.135-3.857-0.854-3.662-3.799C120.304,193.158,120.194,188.386,120.264,183.625z"/>
<path fill="#BBC1D3" d="M97.222,66.109c-0.442,0.021-0.887,0.042-1.329,0.064c-2.604-2.985-5.271-5.925-7.776-8.991
	c-0.832-1.02-1.841-2.393-0.466-3.717c1.486-1.431,3.027-0.813,4.166,0.494c2.346,2.694,4.55,5.514,6.813,8.28
	C98.726,63.736,98.571,65.139,97.222,66.109z"/>
<path fill="#C0DEED" d="M538.957,255.175c-1.575,3.233-3.395,6.974-5.223,10.708c-0.745,1.526-1.973,1.958-3.458,1.254
	c-1.678-0.795-1.449-2.218-0.837-3.576c1.548-3.435,3.245-6.806,4.703-10.276c0.777-1.849,1.165-4.354,3.749-3.729
	C540.983,250.302,538.927,252.765,538.957,255.175z"/>
<path fill="#B5CFE4" d="M256.006,95.94c0.485,1.515,0.172,2.85-1.23,3.639c-1.571,0.884-2.862,0.096-3.38-1.363
	c-1.663-4.692-3.22-9.428-4.651-14.196c-0.381-1.271,0.485-2.316,1.817-2.663c1.799-0.469,2.688,0.877,3.159,2.13
	C253.26,87.595,254.588,91.783,256.006,95.94z"/>
<path fill="#C0DEED" d="M398.83,97.804c-0.308,1.049-1.004,1.702-2.06,1.935c-1.187,0.26-2.023-0.397-2.342-1.377
	c-1.596-4.919-3.108-9.865-4.599-14.817c-0.325-1.08,0.144-1.924,1.197-2.416c1.014-0.472,1.946-0.269,2.815,0.322
	C395.365,82.484,399.442,95.902,398.83,97.804z"/>
<path fill="#C0DEED" d="M404.852,132.107c-0.476,0.983-1.27,1.516-2.349,1.571c-1.213,0.063-1.932-0.724-2.085-1.741
	c-0.769-5.114-1.452-10.241-2.11-15.371c-0.145-1.119,0.456-1.875,1.577-2.188c1.076-0.299,1.964,0.054,2.726,0.779
	C403.942,116.427,405.768,130.332,404.852,132.107z"/>
<path fill="#B5CFE4" d="M267.374,160.604c0.044,1.59-0.628,2.784-2.193,3.152c-1.756,0.412-2.776-0.703-2.868-2.249
	c-0.292-4.971-0.472-9.951-0.521-14.931c-0.013-1.326,1.109-2.089,2.485-2.053c1.859,0.05,2.337,1.591,2.44,2.925
	C267.057,151.824,267.168,156.216,267.374,160.604z"/>
<path fill="#B5CFE4" d="M265.003,196.031c-0.127,1.585-0.925,2.7-2.521,2.898c-1.79,0.221-2.686-1-2.608-2.547
	c0.245-4.973,0.605-9.942,1.094-14.898c0.131-1.32,1.328-1.957,2.693-1.773c1.842,0.251,2.152,1.834,2.111,3.173
	C265.634,187.27,265.271,191.647,265.003,196.031z"/>
<path fill="#B9BFD2" d="M114.024,255.363c0.856,2.435-4.581,15.161-6.927,16.229c-1.008,0.46-1.971,0.415-2.781-0.348
	c-0.872-0.82-0.678-1.949-0.275-2.809c2.049-4.357,4.263-8.636,5.572-13.309c0.278-0.995,1.07-1.727,2.25-1.591
	C112.953,253.662,113.667,254.324,114.024,255.363z"/>
<path fill="#B9BFD2" d="M123.122,220.977c1.081,2.344-3.149,15.521-5.386,16.805c-0.959,0.55-1.922,0.596-2.801-0.087
	c-0.944-0.736-0.857-1.879-0.535-2.771c1.634-4.528,3.438-8.993,4.309-13.769c0.186-1.018,0.905-1.819,2.092-1.794
	C121.896,219.383,122.669,219.976,123.122,220.977z"/>
<path fill="#B9BFD2" d="M107.932,77.912c2.251,1.263,6.564,14.414,5.508,16.766c-0.454,1.009-1.206,1.611-2.318,1.573
	c-1.197-0.042-1.796-1.018-2.061-1.929c-1.336-4.626-2.497-9.3-4.598-13.675c-0.447-0.933-0.335-2.004,0.641-2.681
	C106.005,77.341,106.978,77.367,107.932,77.912z"/>
<path fill="#B9BFD2" d="M118.492,115.022c2.146,1.435,5.421,14.882,4.184,17.143c-0.53,0.972-1.327,1.514-2.434,1.39
	c-1.19-0.136-1.711-1.154-1.904-2.083c-0.972-4.717-1.764-9.467-3.517-13.992c-0.374-0.964-0.179-2.024,0.847-2.622
	C116.615,114.303,117.583,114.405,118.492,115.022z"/>
<polygon fill="#FFFFFF" points="317.417,77.5 312.376,86.136 311.041,89.305 317.417,99.951 336.667,97.75 336.667,86.25 "/>
<polygon fill="#FFFFFF" points="302.926,228.78 304.352,239.2 306.882,249.549 335.898,251.306 335.898,235.501 "/>
<polygon fill="#FFFFFF" points="408.634,154.361 408.634,169.5 418.667,179.68 430.338,172.992 430.338,154.361 "/>
<polygon fill="#FFFFFF" points="438.233,241.768 443.132,258.461 428.668,259.199 430.338,241.768 "/>
<path fill="#FFFFFF" d="M-145.833,0"/>
<g>
	<path fill="#7D8589" d="M59.764,106.403c0.39-1.243,0.766-2.432,1.128-3.625c0.057-0.182,0.129-0.273,0.345-0.256
		c0.287,0.021,0.579,0.005,0.9,0.005c-0.201,0.571-0.396,1.114-0.587,1.656c-0.378,1.057-0.755,2.111-1.122,3.172
		c-0.06,0.17-0.125,0.262-0.327,0.243c-0.303-0.033-0.688,0.113-0.897-0.059c-0.192-0.158-0.215-0.521-0.309-0.793
		c-0.313-0.925-0.627-1.85-0.938-2.774c-0.025-0.072-0.029-0.155-0.117-0.214c-0.402,1.186-0.818,2.355-1.208,3.538
		c-0.078,0.235-0.181,0.329-0.433,0.302c-0.286-0.034-0.646,0.107-0.844-0.057c-0.181-0.149-0.197-0.485-0.284-0.743
		c-0.479-1.407-0.955-2.819-1.444-4.27c0.369,0,0.711,0.001,1.055-0.001c0.166,0,0.145,0.141,0.171,0.229
		c0.351,1.139,0.695,2.275,1.045,3.414c0.021,0.062,0.015,0.135,0.101,0.179c0.406-1.19,0.816-2.374,1.208-3.566
		c0.065-0.199,0.152-0.279,0.367-0.259c0.296,0.028,0.668-0.109,0.871,0.055c0.188,0.147,0.202,0.503,0.293,0.771
		c0.311,0.942,0.625,1.891,0.937,2.837C59.693,106.238,59.72,106.292,59.764,106.403z"/>
	<path fill="#7D8589" d="M68.337,103.753c-0.108,0.096-0.117,0.222-0.153,0.326c-0.378,1.087-0.76,2.176-1.125,3.266
		c-0.059,0.183-0.124,0.272-0.344,0.255c-0.303-0.029-0.686,0.084-0.897-0.06c-0.196-0.13-0.216-0.517-0.311-0.79
		c-0.45-1.328-0.895-2.66-1.351-3.983c-0.066-0.192-0.049-0.256,0.173-0.242c0.299,0.019,0.667-0.085,0.873,0.053
		c0.188,0.123,0.199,0.497,0.281,0.765c0.307,0.999,0.607,1.996,0.918,3.011c0.118-0.07,0.114-0.197,0.146-0.293
		c0.38-1.097,0.753-2.196,1.119-3.297c0.059-0.177,0.133-0.254,0.33-0.237c0.304,0.025,0.689-0.112,0.898,0.058
		c0.193,0.151,0.212,0.521,0.306,0.794c0.326,0.985,0.651,1.974,1.006,3.042c0.139-0.425,0.252-0.778,0.361-1.135
		c0.264-0.838,0.529-1.678,0.782-2.52c0.053-0.171,0.118-0.264,0.322-0.24c0.291,0.033,0.7-0.121,0.844,0.067
		c0.126,0.162-0.131,0.511-0.221,0.773c-0.47,1.331-0.95,2.658-1.414,3.99c-0.065,0.191-0.151,0.267-0.353,0.24
		c-0.098-0.015-0.202-0.002-0.3-0.002c-0.603,0-0.602,0-0.79-0.568C69.072,105.939,68.706,104.851,68.337,103.753z"/>
	<path fill="#7D8589" d="M45.52,106.426c0.305-0.894,0.587-1.721,0.869-2.552c0.133-0.384,0.267-0.764,0.391-1.153
		c0.042-0.14,0.103-0.205,0.266-0.196c0.315,0.017,0.696-0.086,0.937,0.05c0.229,0.129,0.226,0.533,0.319,0.814
		c0.333,0.986,0.653,1.976,1.002,3.035c0.219-0.686,0.417-1.311,0.611-1.938c0.184-0.579,0.371-1.16,0.539-1.743
		c0.05-0.172,0.131-0.229,0.311-0.22c0.295,0.015,0.593,0.003,0.919,0.003c-0.318,0.91-0.626,1.783-0.936,2.658
		c-0.256,0.723-0.518,1.438-0.764,2.16c-0.063,0.182-0.13,0.271-0.35,0.253c-0.294-0.026-0.675,0.09-0.871-0.051
		c-0.197-0.137-0.223-0.515-0.316-0.789c-0.335-0.993-0.668-1.987-1.032-3.064c-0.158,0.456-0.293,0.832-0.421,1.21
		c-0.283,0.823-0.567,1.645-0.845,2.468c-0.049,0.156-0.114,0.242-0.303,0.226c-0.315-0.032-0.708,0.116-0.928-0.059
		c-0.202-0.162-0.226-0.536-0.321-0.817c-0.446-1.318-0.888-2.641-1.344-3.956c-0.064-0.192-0.049-0.257,0.172-0.242
		c0.3,0.02,0.676-0.087,0.871,0.055c0.196,0.135,0.212,0.518,0.295,0.791C44.896,104.364,45.199,105.361,45.52,106.426z"/>
	<path fill="#7D8589" d="M72.147,108.524c-0.329-0.102-0.654,0.076-0.799,0.432c-0.044,0.119-0.083,0.236-0.124,0.356
		c-0.478,1.363-1.164,2.62-2.051,3.772c-0.076,0.099-0.129,0.197-0.305,0.104c-1.164-0.616-2.404-1.062-3.683-1.393
		c-0.191-0.053-0.201-0.123-0.159-0.283c0.203-0.736,0.354-1.486,0.477-2.239c0.025-0.167,0.021-0.327-0.065-0.478
		c-0.148-0.253-0.388-0.332-0.662-0.278c-0.299,0.062-0.437,0.291-0.481,0.563c-0.121,0.724-0.271,1.442-0.448,2.154
		c-0.042,0.163-0.102,0.222-0.282,0.183c-1.604-0.328-3.226-0.505-4.863-0.525c-0.176-0.002-0.214-0.063-0.211-0.222
		c0.009-0.466-0.002-0.929,0.006-1.394c0.002-0.149-0.038-0.203-0.198-0.195c-0.269,0.013-0.541,0.013-0.809,0
		c-0.164-0.008-0.223,0.033-0.219,0.204c0.011,0.435-0.013,0.871,0.01,1.306c0.012,0.246-0.069,0.302-0.314,0.304
		c-1.499,0.016-2.98,0.18-4.451,0.46c-0.556,0.104-0.552,0.107-0.675-0.435c-0.137-0.611-0.266-1.229-0.372-1.847
		c-0.066-0.399-0.37-0.623-0.723-0.569c-0.346,0.056-0.546,0.374-0.483,0.771c0.112,0.727,0.257,1.445,0.451,2.155
		c0.067,0.242,0.036,0.329-0.222,0.395c-1.245,0.312-2.439,0.763-3.574,1.352c-0.182,0.095-0.244,0.021-0.332-0.095
		c-0.563-0.736-1.052-1.521-1.455-2.354c-0.279-0.576-0.501-1.173-0.717-1.774c-0.136-0.367-0.477-0.537-0.799-0.429
		c-0.306,0.102-0.479,0.449-0.37,0.787c0.51,1.557,1.248,3.005,2.241,4.329c1.355,1.808,3.048,3.259,5.075,4.331
		c1.602,0.845,3.309,1.403,5.122,1.65c0.295,0.039,0.609,0.009,0.884,0.16c0.081,0,0.16,0,0.24,0
		c0.032-0.099,0.114-0.044,0.178-0.047c0.063-0.005,0.139-0.041,0.182,0.047c0.478,0,0.957,0,1.436,0
		c0.04-0.085,0.114-0.052,0.183-0.047c0.063,0.003,0.143-0.054,0.176,0.047c0.042,0,0.081,0,0.12,0
		c0.022-0.082,0.093-0.051,0.147-0.057c0.911-0.094,1.814-0.234,2.699-0.472c2.284-0.612,4.319-1.676,6.091-3.193
		c1.844-1.581,3.221-3.491,4.125-5.713c0.139-0.332,0.254-0.672,0.365-1.01C72.628,108.971,72.466,108.62,72.147,108.524z
		 M54.015,118.062c-0.272-0.081-0.548-0.156-0.816-0.249c-2.061-0.711-3.854-1.826-5.39-3.335c-0.027-0.027-0.053-0.059-0.085-0.08
		c-0.192-0.151-0.152-0.237,0.062-0.334c1.021-0.46,2.067-0.844,3.15-1.144c0.246-0.064,0.243,0.069,0.286,0.2
		c0.508,1.449,1.168,2.828,2.122,4.061c0.222,0.281,0.465,0.549,0.696,0.823C54.031,118.023,54.023,118.043,54.015,118.062z
		 M57.028,118.469c-0.864-0.235-1.553-0.735-2.146-1.36c-1.185-1.242-1.912-2.737-2.485-4.314c-0.044-0.128-0.057-0.195,0.127-0.232
		c1.507-0.297,3.032-0.441,4.568-0.494c0.217-0.008,0.183,0.116,0.183,0.238c0,0.998,0,1.992,0,2.987
		c0,0.999-0.005,1.995,0.004,2.99C57.28,118.49,57.237,118.526,57.028,118.469z M58.73,118.474c-0.225,0.06-0.242-0.01-0.242-0.196
		c0.005-1.992,0.006-3.986-0.001-5.979c-0.001-0.195,0.057-0.25,0.253-0.229c0.187,0.017,0.376,0.003,0.565,0.003
		c1.286,0.089,2.561,0.23,3.826,0.464c0.229,0.041,0.302,0.098,0.208,0.346c-0.571,1.505-1.261,2.94-2.383,4.146
		C60.344,117.689,59.634,118.222,58.73,118.474z M67.985,114.45c-1.496,1.475-3.237,2.582-5.241,3.298
		c-0.347,0.125-0.689,0.258-1.094,0.299c0.694-0.687,1.224-1.438,1.683-2.24c0.501-0.87,0.897-1.782,1.223-2.726
		c0.045-0.131,0.07-0.208,0.257-0.16c1.078,0.284,2.117,0.665,3.123,1.128C68.244,114.193,68.239,114.201,67.985,114.45z"/>
	<path fill="#7D8589" d="M72.519,100.524c-0.506-1.554-1.244-3.002-2.236-4.325c-1.359-1.809-3.05-3.258-5.075-4.329
		c-1.603-0.851-3.309-1.407-5.123-1.654c-0.336-0.044-0.687-0.022-1.006-0.162c-0.039,0-0.078,0-0.12,0
		c-0.033,0.102-0.113,0.047-0.176,0.05c-0.067,0.006-0.143,0.035-0.183-0.05c-0.479,0-0.958,0-1.436,0
		c-0.043,0.087-0.118,0.055-0.182,0.05c-0.063-0.003-0.146,0.05-0.178-0.05c-0.061,0-0.121,0-0.181,0
		c-0.021,0.082-0.091,0.058-0.145,0.063c-0.892,0.097-1.774,0.236-2.642,0.466c-2.282,0.61-4.317,1.673-6.089,3.194
		c-1.846,1.581-3.221,3.491-4.128,5.713c-0.137,0.33-0.253,0.668-0.366,1.008c-0.119,0.367,0.04,0.714,0.359,0.813
		c0.327,0.1,0.656-0.077,0.8-0.433c0.045-0.116,0.085-0.234,0.125-0.356c0.477-1.361,1.161-2.618,2.046-3.772
		c0.077-0.1,0.132-0.2,0.308-0.106c1.166,0.62,2.403,1.062,3.685,1.397c0.188,0.051,0.201,0.118,0.157,0.28
		c-0.203,0.739-0.352,1.486-0.477,2.242c-0.024,0.167-0.02,0.325,0.068,0.474c0.146,0.256,0.381,0.335,0.657,0.28
		c0.303-0.062,0.438-0.289,0.483-0.562c0.12-0.724,0.274-1.44,0.45-2.157c0.038-0.159,0.1-0.22,0.28-0.184
		c1.603,0.333,3.226,0.507,4.864,0.527c0.174,0.001,0.217,0.062,0.214,0.222c-0.009,0.464,0.001,0.928-0.006,1.396
		c-0.002,0.143,0.028,0.205,0.194,0.195c0.26-0.013,0.521-0.014,0.778,0c0.187,0.011,0.261-0.03,0.253-0.232
		c-0.016-0.423,0.009-0.85-0.01-1.275c-0.012-0.241,0.063-0.307,0.31-0.308c1.479-0.011,2.942-0.175,4.393-0.445
		c0.611-0.113,0.602-0.125,0.746,0.479c0.139,0.592,0.258,1.188,0.361,1.79c0.07,0.398,0.371,0.624,0.725,0.571
		c0.347-0.058,0.543-0.378,0.483-0.771c-0.114-0.729-0.257-1.449-0.455-2.158c-0.063-0.239-0.035-0.329,0.224-0.391
		c1.246-0.314,2.441-0.763,3.575-1.356c0.182-0.092,0.24-0.021,0.331,0.095c0.566,0.741,1.052,1.524,1.456,2.354
		c0.28,0.578,0.502,1.178,0.72,1.774c0.135,0.369,0.472,0.539,0.797,0.433C72.456,101.211,72.63,100.864,72.519,100.524z
		 M51.229,96.714c-0.067,0.195-0.13,0.249-0.35,0.187c-1.068-0.299-2.111-0.667-3.112-1.145c-0.176-0.083-0.227-0.137-0.066-0.295
		c1.745-1.735,3.802-2.968,6.203-3.656c0.035-0.011,0.075-0.008,0.186-0.014c-0.548,0.592-1.008,1.168-1.396,1.796
		C52.081,94.577,51.596,95.621,51.229,96.714z M57.274,94.549c0,0.98-0.005,1.958,0.004,2.936c0.002,0.21-0.029,0.297-0.286,0.287
		c-1.458-0.063-2.902-0.207-4.337-0.461c-0.271-0.048-0.316-0.137-0.222-0.388c0.566-1.493,1.261-2.92,2.374-4.115
		c0.604-0.648,1.297-1.167,2.175-1.429c0.229-0.067,0.301-0.045,0.297,0.212C57.266,92.577,57.274,93.563,57.274,94.549z
		 M63.225,97.278c-1.499,0.294-3.016,0.437-4.541,0.493c-0.202,0.007-0.194-0.093-0.194-0.23c0.003-1.004,0.001-2.009,0.001-3.018
		c0-0.986,0.006-1.974-0.004-2.962c-0.002-0.222,0.048-0.25,0.266-0.189c0.882,0.25,1.579,0.77,2.183,1.41
		c1.154,1.229,1.859,2.706,2.43,4.253C63.422,97.181,63.405,97.244,63.225,97.278z M67.939,95.789
		c-0.983,0.448-1.992,0.819-3.037,1.106c-0.215,0.06-0.299,0.025-0.373-0.189c-0.494-1.458-1.167-2.828-2.119-4.06
		c-0.224-0.294-0.468-0.571-0.763-0.855c0.313,0.01,0.566,0.109,0.816,0.194c2.12,0.724,3.971,1.86,5.542,3.421
		C68.245,95.644,68.246,95.649,67.939,95.789z"/>
</g>
<g>
	<path fill="#7D8589" d="M179.733,160.209c0-3.94-0.004-7.886,0.001-11.827c0.003-1.546,0.36-1.89,1.937-1.895
		c1.38-0.004,2.759-0.011,4.141-0.002c1.187,0.007,1.644,0.42,1.648,1.572c0.016,3.846,0.011,7.688-0.002,11.534
		c-0.001,0.317-0.07,0.649-0.18,0.955c-1.052,2.895-0.963,5.751-0.049,8.686c0.357,1.144,0.21,2.464,0.16,3.703
		c-0.026,0.665-0.604,0.976-1.271,0.977c-1.679,0.004-3.354,0.019-5.031-0.012c-0.942-0.018-1.349-0.53-1.351-1.66
		C179.728,168.229,179.733,164.221,179.733,160.209z"/>
	<path fill="#7D8589" d="M177.229,164.23c0,2.629,0.01,5.259-0.004,7.889c-0.005,1.453-0.35,1.782-1.82,1.79
		c-1.447,0.01-2.892,0.016-4.34,0.003c-1.118-0.012-1.571-0.43-1.573-1.553c-0.013-5.457-0.015-10.912,0.002-16.369
		c0.003-1.066,0.447-1.472,1.528-1.486c1.513-0.021,3.023-0.017,4.535-0.005c1.275,0.012,1.657,0.382,1.665,1.646
		c0.013,2.692,0.004,5.396,0.004,8.087C177.226,164.23,177.227,164.23,177.229,164.23z"/>
	<path fill="#7D8589" d="M194.562,144.681c2.517-3.22,4.964-6.351,7.417-9.488c-0.6-0.541-1.146-1.037-1.929-1.745
		c2.284-0.661,4.295-1.24,6.538-1.892c-0.2,2.309-0.381,4.397-0.589,6.798c-0.847-0.641-1.454-1.098-2.146-1.618
		c-0.228,0.277-0.456,0.54-0.669,0.819c-2.415,3.077-4.824,6.157-7.236,9.237c-0.925,1.18-1.444,1.21-2.554,0.142
		c-3.266-3.149-6.527-6.299-9.792-9.451c-0.232-0.226-0.471-0.435-0.777-0.716c-0.745,1.027-1.456,2.004-2.162,2.982
		c-2.1,2.905-4.198,5.809-6.295,8.711c-0.136,0.188-0.261,0.381-0.41,0.555c-0.495,0.595-1.104,0.74-1.728,0.265
		c-0.591-0.449-0.612-1.073-0.202-1.664c0.83-1.185,1.683-2.351,2.532-3.522c2.251-3.116,4.499-6.234,6.752-9.351
		c0.949-1.311,1.504-1.361,2.67-0.233c3.29,3.173,6.575,6.346,9.863,9.519C194.061,144.235,194.28,144.424,194.562,144.681z"/>
	<path fill="#7D8589" d="M207.868,156.792c-1.121-0.832-2.171-1.785-3.376-2.455c-1.102-0.614-2.357-0.966-3.578-1.321
		c-0.516-0.15-0.691-0.322-0.687-0.849c0.021-2.195-0.004-4.396,0.015-6.597c0.01-1.059,0.446-1.495,1.503-1.508
		c1.613-0.023,3.221-0.01,4.83-0.003c0.812,0.002,1.363,0.38,1.367,1.215c0.02,3.812,0,7.625-0.009,11.428
		C207.932,156.749,207.863,156.798,207.868,156.792z"/>
	<path fill="#7D8589" d="M197.707,152.582c-1.506,0.465-2.901,0.763-4.169,1.335c-1.228,0.563-2.323,1.408-3.542,2.172
		c0-1.623-0.045-3.249,0.019-4.872c0.027-0.748,0.553-1.181,1.323-1.189c1.676-0.011,3.353-0.014,5.027,0.005
		c0.872,0.013,1.319,0.495,1.339,1.366C197.715,151.819,197.707,152.245,197.707,152.582z"/>
	<path fill="#7D8589" d="M213.354,174.997c-2.05-1.292-4.089-2.607-6.133-3.912c3.891-6.212,1.146-12.171-2.444-14.737
		c-4.134-2.953-9.804-2.565-13.486,0.978c-3.598,3.464-4.257,9.156-1.523,13.272c1.432,2.156,3.375,3.666,5.879,4.381
		c3.258,0.932,6.291,0.347,9.123-1.52c0.221,0.341,0.401,0.61,0.577,0.89c1.17,1.819,2.317,3.657,3.51,5.473
		c0.858,1.299,2.273,1.839,3.673,1.479c1.441-0.366,2.456-1.513,2.574-3.008C215.219,176.848,214.571,175.771,213.354,174.997z
		 M198.87,173.116c-4.684,0.067-8.431-3.502-8.513-8.116c-0.083-4.525,3.593-8.273,8.187-8.333c4.515-0.061,8.215,3.548,8.304,8.106
		C206.936,169.223,203.272,173.051,198.87,173.116z"/>
</g>
<text transform="matrix(1 0 0 1 84.8127 29.0007)" fill="#FFFFFF" font-family="'MyriadPro-Semibold'" font-size="15">Coleta de Dados</text>
<g>
	<g>
		<path fill="#7D8589" d="M53.521,214.901c-0.942,0.006-1.739-0.202-2.409-0.768c-0.4-0.336-0.651-0.736-0.613-1.305
			c0.037-0.592,0.008-1.187,0.008-1.771c0.955,0.179,1.87,0.348,2.782,0.539c0.092,0.022,0.221,0.156,0.224,0.244
			C53.526,212.838,53.521,213.839,53.521,214.901z"/>
		<path fill="#7D8589" d="M43.883,187.342c-0.177,0.033-0.177,0.745,0,0.727c7.264-0.896,14.053-0.673,14.053-0.673v-0.595
			C57.935,186.801,50.077,186.416,43.883,187.342z"/>
		<path fill="#7D8589" d="M43.839,190.224c-0.085,0.012-0.432,0.488-0.346,0.479c7.801-0.83,14.617-0.377,14.617-0.377l-0.237-0.465
			C57.873,189.862,49.704,189.385,43.839,190.224z"/>
		<path fill="#7D8589" d="M74.387,191.249c-0.432-0.491-0.95-0.964-1.525-1.252c-1.048-0.53-2.14-0.997-3.261-1.356
			c-2.689-0.865-5.48-1.27-8.285-1.563c-1.152-0.121-2.31-0.188-3.489-0.284c0,0.245,0,0.418,0,0.61
			c0.251,0.028,0.361,0.04,0.342,0.038c2.167,0.292,4.338,0.526,6.494,0.883c1.661,0.279,3.293,0.733,4.778,1.558
			c0.566,0.317,1.061,0.777,1.535,1.233c0.229,0.218,0.355,0.569,0.161,0.874c-4.286-1.781-8.801-1.83-13.265-2.126
			c-0.153,0.419,0.042,0.455,0.334,0.474c1.953,0.126,3.919,0.183,5.86,0.435c1.823,0.231,3.622,0.667,5.422,1.059
			c0.504,0.112,0.969,0.394,1.605,0.663c-0.526,0.398-0.882,0.778-1.319,0.979c-1.024,0.473-2.062,0.948-3.143,1.261
			c-3.06,0.895-6.214,1.249-9.39,1.401c-4.84,0.243-9.655,0.072-14.418-0.896c-1.667-0.341-3.314-0.769-4.828-1.573
			c-0.501-0.266-0.948-0.631-1.475-0.985c0.777-0.656,1.588-0.955,2.417-1.14c1.454-0.311,2.924-0.558,4.387-0.805
			c0.563-0.097,0.566-0.071,0.514-0.508c-2.575,0.353-5.178,0.573-7.491,1.953c-0.213-0.403-0.128-0.801,0.146-1.09
			c0.342-0.377,0.712-0.801,1.161-1.002c1.143-0.521,2.318-0.983,3.513-1.377c0.881-0.288,1.811-0.436,2.716-0.642
			c0-0.243,0-0.447,0-0.727c-2.825,0.429-5.583,0.923-8.159,2.074c-0.847,0.377-1.668,0.886-2.363,1.496
			c-1.04,0.91-0.994,2.078-0.021,3.06c0.249,0.256,0.549,0.455,0.822,0.682c0.35,0.286,0.726,0.543,1.04,0.862
			c4.499,4.601,8.962,9.238,13.508,13.793c1.015,1.019,1.615,2.021,1.38,3.464c-0.135,0.844,0.331,1.425,0.973,1.883
			c1.338,0.95,3.969,0.954,5.315,0.006c0.641-0.453,1.066-1.021,0.995-1.878c-0.04-0.515-0.038-1.039,0.006-1.554
			c0.022-0.258,0.125-0.574,0.304-0.755c4.737-4.893,9.491-9.771,14.253-14.634c0.459-0.473,1.002-0.859,1.5-1.3
			c0.327-0.281,0.68-0.557,0.953-0.891C74.994,192.899,75.022,191.973,74.387,191.249z M36.101,195.804
			c-0.021-0.026-0.027-0.061-0.065-0.134c0.126,0.028,0.227,0.04,0.315,0.072c1.878,0.718,3.831,1.171,5.811,1.513
			c0.35,0.06,0.607,0.184,0.838,0.487c3.295,4.321,6.608,8.645,9.914,12.958c0.093,0.125,0.175,0.262,0.264,0.392
			c-0.029,0.034-0.061,0.07-0.093,0.105c-0.797-0.201-1.596-0.396-2.386-0.614c-0.176-0.055-0.349-0.177-0.478-0.311
			C45.51,205.451,40.806,200.625,36.101,195.804z M53.521,214.901c-0.942,0.006-1.739-0.202-2.409-0.768
			c-0.4-0.336-0.651-0.736-0.613-1.305c0.037-0.592,0.008-1.187,0.008-1.771c0.955,0.179,1.87,0.348,2.782,0.539
			c0.092,0.022,0.221,0.156,0.224,0.244C53.526,212.838,53.521,213.839,53.521,214.901z"/>
	</g>
	<rect x="54.699" y="170.414" fill="#C4C6C8" width="12.063" height="12.068"/>
	<rect x="47.673" y="177.908" fill="#A3A5A8" width="5.645" height="6.031"/>
	<rect x="47.673" y="187.295" fill="#C4C6C8" width="5.645" height="6.035"/>
	<rect x="43.148" y="185.142" fill="#A3A5A8" width="2.917" height="2.922"/>
	<rect x="56.652" y="187.668" fill="#D2D5D4" width="2.917" height="2.923"/>
	<rect x="53.537" y="193.036" fill="#C4C6C8" width="2.922" height="2.917"/>
	<rect x="55.168" y="216.544" fill="#A3A5A8" width="2.188" height="2.188"/>
	<rect x="52.823" y="218.633" fill="#C4C6C8" width="2.188" height="2.191"/>
	<rect x="55.656" y="220.017" fill="#D2D5D4" width="1.604" height="1.604"/>
	<rect x="51.206" y="216.06" fill="#C4C6C8" width="1.604" height="1.603"/>
</g>
<g>
	<g>
		
			<line fill="none" stroke="#BF1B00" stroke-width="0.75" stroke-miterlimit="10" x1="57.491" y1="124.041" x2="57.491" y2="160.503"/>
		<g>
			<path fill="#BF1B00" d="M57.491,159.156l2.702-1.643l0.062,0.092l-1.751,4.406c-0.337,1.534-0.675,3.069-1.013,4.604
				c-0.338-1.535-0.675-3.07-1.014-4.604l-1.75-4.406l0.046-0.092L57.491,159.156z"/>
		</g>
	</g>
</g>
<g>
	<path fill="#FFFFFF" d="M87.822,246.003c0.329,0.245,0.661,0.492,0.984,0.735c-0.32,0.237-0.653,0.478-0.984,0.714
		C87.822,246.972,87.822,246.488,87.822,246.003z"/>
	<path fill="#FFFFFF" d="M87.822,247.815c0.329,0.216,0.66,0.43,0.996,0.646c-0.334,0.243-0.667,0.49-0.996,0.729
		C87.822,248.739,87.822,248.276,87.822,247.815z"/>
	<path fill="#FFFFFF" d="M123.673,248.584c-0.138,0.083-0.247,0.162-0.358,0.225c-4.292,2.486-8.583,4.97-12.873,7.459
		c-0.188,0.11-0.329,0.165-0.552,0.036c-5.33-3.104-10.664-6.195-16-9.286c-0.084-0.045-0.164-0.104-0.278-0.173
		c0.116-0.078,0.209-0.141,0.305-0.197c1.004-0.585,2.005-1.162,3.009-1.742c0.481-0.284,0.483-0.604,0.001-0.883
		c-1.189-0.692-2.382-1.379-3.569-2.072c-0.113-0.063-0.227-0.136-0.377-0.225c0.103-0.071,0.173-0.123,0.248-0.169
		c2.964-1.721,5.93-3.438,8.892-5.168c0.202-0.113,0.349-0.117,0.555-0.004c6.896,4.011,13.799,8.013,20.698,12.014
		C123.465,248.449,123.554,248.507,123.673,248.584z M109.424,254.575c0.137-0.063,0.274-0.112,0.396-0.18
		c3.311-1.919,6.622-3.839,9.928-5.763c0.507-0.294,0.5-0.643-0.013-0.938c-3.832-2.224-7.663-4.442-11.493-6.669
		c-0.268-0.154-0.495-0.171-0.771-0.01c-3.316,1.933-6.64,3.855-9.958,5.782c-0.475,0.271-0.48,0.625-0.014,0.897
		c3.861,2.239,7.725,4.478,11.588,6.72C109.189,254.474,109.3,254.521,109.424,254.575z"/>
	<path fill="#FFFFFF" d="M89.146,245.866c0.977-0.563,1.904-1.101,2.888-1.669c0.072,0.538,0.138,1.034,0.202,1.529
		c0.021,0.161,0.072,0.33,0.06,0.498c-0.05,0.678,0.332,1.012,0.884,1.329c5.47,3.146,10.929,6.315,16.379,9.494
		c0.434,0.249,0.747,0.244,1.18-0.004c3.894-2.281,7.8-4.537,11.708-6.804c0.568-0.329,0.568-0.33,1.146,0.108
		c-0.115,0.07-0.227,0.146-0.337,0.208c-4.247,2.465-8.496,4.929-12.741,7.396c-0.185,0.108-0.322,0.133-0.521,0.018
		c-6.875-3.997-13.755-7.979-20.635-11.972C89.305,245.973,89.255,245.939,89.146,245.866z"/>
	<path fill="#FFFFFF" d="M89.163,247.621c0.541-0.409,0.541-0.409,1.03-0.127c6.515,3.772,13.028,7.545,19.538,11.334
		c0.375,0.219,0.655,0.21,1.022-0.006c3.917-2.287,7.851-4.553,11.764-6.85c0.427-0.249,0.713-0.216,1.053,0.109
		c-0.092,0.059-0.18,0.116-0.271,0.175c-4.271,2.477-8.539,4.95-12.805,7.434c-0.204,0.12-0.35,0.118-0.552-0.001
		c-6.825-3.967-13.654-7.922-20.479-11.88C89.372,247.758,89.282,247.697,89.163,247.621z"/>
	<path fill="#FFFFFF" d="M123.572,253.826c-0.106,0.065-0.217,0.134-0.326,0.202c-4.248,2.464-8.499,4.927-12.744,7.391
		c-0.182,0.105-0.319,0.15-0.522,0.025c-6.875-3.991-13.754-7.975-20.637-11.967c-0.049-0.029-0.099-0.068-0.148-0.103
		c0.368-0.4,0.5-0.427,0.932-0.182c6.526,3.788,13.053,7.563,19.57,11.361c0.384,0.222,0.668,0.218,1.055-0.004
		c3.904-2.284,7.829-4.542,11.73-6.831C122.905,253.476,123.22,253.463,123.572,253.826z"/>
	<path fill="#FFFFFF" d="M93.102,246.185c-0.156-1.256-0.299-2.443-0.456-3.711c1.174,0.684,2.273,1.32,3.425,1.982
		C95.071,245.041,94.12,245.594,93.102,246.185z"/>
	<g>
		<path fill="#7D8589" d="M87.822,245.714c0.172-0.125,0.333-0.268,0.517-0.377c1.103-0.643,2.208-1.292,3.321-1.927
			c0.197-0.105,0.273-0.222,0.23-0.45c-0.056-0.307-0.053-0.628-0.119-0.937c-0.083-0.377,0.043-0.601,0.377-0.79
			c3.18-1.828,6.354-3.673,9.527-5.51c0.105-0.064,0.216-0.113,0.313-0.183c0.281-0.213,0.538-0.169,0.834,0.005
			c3.367,1.962,6.739,3.911,10.114,5.864c3.81,2.212,7.619,4.419,11.433,6.629c0.104,0.058,0.21,0.111,0.31,0.187
			c0.305,0.207,0.301,0.527-0.013,0.729c-0.128,0.083-0.271,0.157-0.403,0.232c-0.136,0.085-0.265,0.162-0.424,0.258
			c0.282,0.167,0.533,0.309,0.78,0.46c0.426,0.261,0.432,0.604,0.011,0.86c-0.227,0.142-0.454,0.274-0.68,0.412
			c-0.007,0.005-0.007,0.019-0.021,0.063c0.215,0.133,0.443,0.257,0.667,0.396c0.438,0.27,0.436,0.612-0.011,0.88
			c-0.221,0.136-0.448,0.267-0.719,0.43c0.262,0.146,0.48,0.274,0.695,0.406c0.48,0.28,0.482,0.629-0.002,0.912
			c-1.752,1.021-3.507,2.038-5.263,3.051c-2.912,1.693-5.822,3.384-8.735,5.067c-0.07,0.039-0.13,0.1-0.198,0.148
			c-0.096,0-0.192,0-0.289,0c-0.095-0.067-0.188-0.146-0.288-0.202c-7.167-4.156-14.331-8.306-21.495-12.465
			c-0.174-0.101-0.313-0.252-0.47-0.381c0-0.099,0-0.191,0-0.293c0.33-0.238,0.662-0.485,0.996-0.729
			c-0.336-0.217-0.667-0.431-0.996-0.646c0-0.12,0-0.241,0-0.363c0.331-0.236,0.665-0.477,0.984-0.714
			c-0.324-0.243-0.655-0.49-0.984-0.735C87.822,245.909,87.822,245.813,87.822,245.714z M123.673,248.584
			c-0.118-0.077-0.208-0.135-0.302-0.187c-6.898-4.001-13.802-8.003-20.698-12.014c-0.207-0.113-0.354-0.109-0.555,0.004
			c-2.962,1.729-5.928,3.447-8.892,5.168c-0.075,0.046-0.146,0.098-0.248,0.169c0.151,0.089,0.264,0.162,0.377,0.225
			c1.188,0.693,2.38,1.38,3.569,2.072c0.482,0.277,0.48,0.599-0.001,0.883c-1.003,0.58-2.005,1.157-3.009,1.742
			c-0.096,0.058-0.188,0.119-0.305,0.197c0.115,0.068,0.194,0.128,0.278,0.173c5.335,3.091,10.669,6.184,16,9.286
			c0.224,0.129,0.364,0.074,0.552-0.036c4.29-2.489,8.582-4.973,12.873-7.459C123.426,248.746,123.535,248.667,123.673,248.584z
			 M89.146,245.866c0.108,0.073,0.159,0.106,0.21,0.135c6.88,3.992,13.76,7.975,20.635,11.972c0.198,0.115,0.336,0.092,0.521-0.018
			c4.245-2.469,8.494-4.933,12.741-7.396c0.11-0.063,0.222-0.138,0.337-0.208c-0.577-0.438-0.577-0.438-1.146-0.108
			c-3.908,2.267-7.814,4.521-11.708,6.804c-0.433,0.248-0.746,0.253-1.18,0.004c-5.45-3.179-10.909-6.35-16.379-9.494
			c-0.552-0.317-0.934-0.651-0.884-1.329c0.013-0.168-0.038-0.337-0.06-0.498c-0.064-0.495-0.129-0.991-0.202-1.529
			C91.051,244.766,90.123,245.302,89.146,245.866z M89.163,247.621c0.119,0.076,0.208,0.137,0.302,0.188
			c6.825,3.958,13.654,7.913,20.479,11.88c0.202,0.119,0.348,0.121,0.552,0.001c4.266-2.482,8.534-4.957,12.805-7.434
			c0.091-0.059,0.178-0.116,0.271-0.175c-0.34-0.325-0.626-0.358-1.053-0.109c-3.913,2.297-7.848,4.563-11.764,6.85
			c-0.368,0.216-0.647,0.225-1.022,0.006c-6.51-3.789-13.023-7.562-19.538-11.334C89.704,247.212,89.704,247.212,89.163,247.621z
			 M123.572,253.826c-0.352-0.363-0.667-0.351-1.091-0.104c-3.902,2.29-7.826,4.547-11.73,6.832
			c-0.387,0.221-0.671,0.225-1.055,0.003c-6.518-3.799-13.043-7.573-19.57-11.361c-0.432-0.245-0.563-0.22-0.932,0.182
			c0.05,0.033,0.101,0.072,0.148,0.103c6.882,3.992,13.762,7.976,20.637,11.967c0.203,0.125,0.341,0.08,0.522-0.025
			c4.246-2.464,8.496-4.927,12.744-7.391C123.355,253.96,123.465,253.892,123.572,253.826z M93.102,246.185
			c1.018-0.592,1.97-1.145,2.969-1.729c-1.151-0.662-2.25-1.3-3.425-1.982C92.802,243.741,92.945,244.929,93.102,246.185z"/>
		<path fill="#7D8589" d="M109.424,254.575c-0.124-0.054-0.233-0.102-0.337-0.158c-3.863-2.242-7.727-4.479-11.588-6.72
			c-0.467-0.272-0.461-0.626,0.014-0.897c3.318-1.927,6.642-3.851,9.958-5.782c0.275-0.161,0.503-0.146,0.771,0.01
			c3.83,2.227,7.661,4.445,11.493,6.669c0.513,0.296,0.52,0.645,0.013,0.938c-3.307,1.924-6.617,3.844-9.928,5.763
			C109.698,254.463,109.56,254.511,109.424,254.575z M107.007,245.072c0.479,0.275,0.923,0.538,1.371,0.787
			c0.061,0.03,0.166,0.021,0.226-0.009c0.346-0.189,0.683-0.393,1.034-0.593c-1.305-0.966-1.434-0.977-2.553-0.258
			C107.075,245.006,107.067,245.015,107.007,245.072z M107.612,246.435c-0.491-0.292-0.915-0.543-1.344-0.785
			c-0.065-0.035-0.171-0.067-0.228-0.041c-0.362,0.196-0.716,0.406-1.112,0.636c0.483,0.281,0.906,0.539,1.337,0.771
			c0.08,0.043,0.213,0.056,0.289,0.018C106.895,246.857,107.221,246.657,107.612,246.435z M118.819,248.166
			c-0.496-0.28-0.93-0.542-1.37-0.783c-0.062-0.032-0.169-0.046-0.226-0.018c-0.356,0.191-0.705,0.4-1.089,0.618
			c0.476,0.281,0.896,0.53,1.329,0.771c0.086,0.044,0.237,0.051,0.322,0.009C118.119,248.591,118.433,248.396,118.819,248.166z
			 M114.717,250.549c-0.489-0.282-0.91-0.531-1.339-0.769c-0.066-0.045-0.174-0.082-0.229-0.056
			c-0.362,0.194-0.715,0.409-1.116,0.642c0.496,0.288,0.917,0.541,1.35,0.773c0.077,0.046,0.212,0.051,0.287,0.007
			C114.008,250.97,114.335,250.772,114.717,250.549z M110.613,252.926c-0.479-0.276-0.901-0.527-1.331-0.771
			c-0.067-0.036-0.177-0.076-0.229-0.05c-0.365,0.194-0.719,0.407-1.118,0.637c0.491,0.291,0.913,0.538,1.345,0.78
			c0.078,0.039,0.215,0.046,0.288,0.008C109.908,253.352,110.236,253.149,110.613,252.926z M107.296,243.867
			c-0.485-0.284-0.927-0.541-1.375-0.796c-0.062-0.033-0.172-0.041-0.231-0.011c-0.344,0.188-0.68,0.395-1.075,0.626
			c0.508,0.293,0.958,0.557,1.413,0.813c0.051,0.025,0.145,0.017,0.194-0.019C106.566,244.291,106.908,244.089,107.296,243.867z
			 M102.563,244.874c0.486,0.281,0.928,0.541,1.373,0.794c0.049,0.027,0.13,0.063,0.167,0.038c0.37-0.203,0.735-0.411,1.145-0.646
			c-0.5-0.292-0.922-0.542-1.354-0.784c-0.069-0.036-0.19-0.05-0.256-0.019C103.289,244.442,102.949,244.646,102.563,244.874z
			 M103.168,246.231c-0.464-0.269-0.896-0.524-1.334-0.771c-0.061-0.033-0.173-0.056-0.229-0.025
			c-0.353,0.188-0.696,0.396-1.103,0.627c0.543,0.31,1.001,0.713,1.51,0.804c0.319,0.053,0.723-0.365,1.087-0.569
			C103.109,246.291,103.117,246.28,103.168,246.231z M112.03,246.615c-0.485-0.283-0.929-0.551-1.378-0.796
			c-0.063-0.033-0.171-0.035-0.233-0.003c-0.343,0.185-0.677,0.387-1.067,0.617c0.502,0.288,0.942,0.55,1.393,0.799
			c0.056,0.03,0.166,0.026,0.226-0.004C111.313,247.037,111.649,246.838,112.03,246.615z M109.979,247.803
			c-0.495-0.285-0.918-0.539-1.347-0.779c-0.066-0.036-0.174-0.07-0.229-0.036c-0.361,0.192-0.712,0.406-1.104,0.63
			c0.479,0.283,0.894,0.525,1.313,0.765c0.081,0.046,0.216,0.074,0.291,0.039C109.252,248.241,109.588,248.032,109.979,247.803z
			 M114.395,247.986c-0.484-0.281-0.925-0.548-1.375-0.793c-0.068-0.038-0.194-0.025-0.265,0.016
			c-0.334,0.18-0.658,0.374-1.033,0.596c0.491,0.284,0.929,0.547,1.38,0.798c0.057,0.033,0.169,0.034,0.226,0.002
			C113.672,248.417,114.011,248.214,114.395,247.986z M100.828,248.621c0.482,0.287,0.906,0.534,1.334,0.774
			c0.074,0.045,0.194,0.069,0.258,0.039c0.358-0.189,0.704-0.405,1.086-0.626c-0.474-0.281-0.898-0.529-1.331-0.769
			c-0.078-0.047-0.214-0.063-0.288-0.021C101.548,248.196,101.221,248.397,100.828,248.621z M107.903,248.978
			c-0.472-0.279-0.915-0.537-1.366-0.786c-0.059-0.037-0.167-0.032-0.229,0.007c-0.343,0.188-0.675,0.389-1.022,0.593
			c1.228,0.946,1.421,0.966,2.552,0.248C107.848,249.032,107.855,249.023,107.903,248.978z M103.196,249.999
			c0.504,0.289,0.948,0.552,1.396,0.8c0.057,0.037,0.164,0.03,0.225-0.007c0.346-0.19,0.686-0.392,1.063-0.61
			c-0.476-0.275-0.912-0.531-1.352-0.779c-0.066-0.034-0.173-0.063-0.229-0.036C103.943,249.555,103.599,249.771,103.196,249.999z
			 M98.457,247.251c0.488,0.282,0.908,0.534,1.338,0.774c0.073,0.038,0.195,0.065,0.259,0.034c0.354-0.188,0.699-0.396,1.09-0.624
			c-0.487-0.281-0.91-0.535-1.343-0.772c-0.077-0.04-0.213-0.05-0.287-0.013C99.173,246.827,98.845,247.026,98.457,247.251z
			 M110.298,250.368c-0.499-0.293-0.931-0.546-1.368-0.797c-0.063-0.033-0.171-0.047-0.227-0.016
			c-0.352,0.19-0.694,0.402-1.084,0.627c0.491,0.283,0.922,0.543,1.365,0.781c0.074,0.045,0.212,0.027,0.292-0.013
			C109.604,250.779,109.921,250.584,110.298,250.368z M109.984,251.557c0.486,0.277,0.92,0.536,1.36,0.781
			c0.063,0.035,0.174,0.056,0.229,0.025c0.353-0.192,0.697-0.396,1.092-0.626c-0.5-0.289-0.931-0.548-1.374-0.789
			c-0.073-0.038-0.209-0.023-0.288,0.016C110.676,251.14,110.355,251.337,109.984,251.557z M113.769,246.614
			c0.486,0.28,0.929,0.544,1.378,0.794c0.062,0.033,0.172,0.039,0.229,0.009c0.344-0.187,0.682-0.391,1.073-0.618
			c-0.499-0.292-0.939-0.554-1.387-0.802c-0.061-0.031-0.167-0.026-0.228,0.005C114.487,246.192,114.149,246.392,113.769,246.614z
			 M109.345,242.678c-0.525-0.306-0.977-0.717-1.482-0.796c-0.334-0.059-0.741,0.369-1.119,0.575
			c-0.01,0.005-0.016,0.018-0.048,0.054c0.459,0.271,0.91,0.534,1.368,0.794c0.06,0.028,0.169,0.016,0.231-0.02
			C108.632,243.101,108.956,242.899,109.345,242.678z M109.031,243.867c0.484,0.284,0.929,0.543,1.379,0.793
			c0.063,0.039,0.172,0.045,0.233,0.015c0.345-0.194,0.677-0.396,1.069-0.626c-0.498-0.287-0.939-0.547-1.39-0.799
			c-0.059-0.03-0.166-0.028-0.228,0.004C109.75,243.446,109.413,243.65,109.031,243.867z M112.35,249.174
			c-0.495-0.278-0.938-0.545-1.384-0.788c-0.059-0.038-0.169-0.043-0.226-0.008c-0.347,0.188-0.686,0.392-1.073,0.612
			c0.494,0.29,0.935,0.548,1.383,0.803c0.061,0.032,0.169,0.033,0.229,0.001C111.625,249.604,111.966,249.397,112.35,249.174z
			 M116.697,249.32c-0.415-0.242-0.867-0.512-1.331-0.765c-0.054-0.037-0.167-0.018-0.229,0.016
			c-0.337,0.188-0.667,0.382-1.048,0.601c0.17,0.104,0.313,0.164,0.432,0.264C115.256,250.049,115.977,250.131,116.697,249.32z
			 M105.567,251.374c0.494,0.281,0.916,0.54,1.348,0.775c0.07,0.037,0.191,0.05,0.257,0.017c0.351-0.184,0.689-0.389,1.075-0.608
			c-0.481-0.283-0.917-0.537-1.355-0.782c-0.072-0.041-0.194-0.051-0.263-0.018C106.289,250.94,105.96,251.138,105.567,251.374z
			 M114.081,245.425c-0.513-0.3-0.958-0.555-1.405-0.813c-0.046-0.024-0.123-0.032-0.162-0.011c-0.36,0.199-0.715,0.403-1.116,0.642
			c0.493,0.281,0.918,0.54,1.352,0.772c0.075,0.04,0.214,0.045,0.292,0.006C113.371,245.85,113.685,245.651,114.081,245.425z
			 M105.558,247.616c-0.488-0.277-0.931-0.547-1.38-0.792c-0.066-0.035-0.192-0.02-0.265,0.019
			c-0.333,0.181-0.658,0.379-1.032,0.593c0.487,0.286,0.931,0.546,1.378,0.802c0.063,0.033,0.17,0.035,0.23,0.005
			C104.835,248.049,105.168,247.849,105.558,247.616z"/>
	</g>
	<path fill="#FFFFFF" d="M107.007,245.072c0.061-0.058,0.068-0.066,0.077-0.071c1.119-0.719,1.248-0.708,2.553,0.258
		c-0.352,0.2-0.688,0.402-1.034,0.593c-0.06,0.03-0.165,0.039-0.226,0.009C107.929,245.61,107.486,245.348,107.007,245.072z"/>
	<path fill="#FFFFFF" d="M107.612,246.435c-0.392,0.223-0.718,0.423-1.058,0.598c-0.075,0.038-0.208,0.025-0.289-0.018
		c-0.431-0.231-0.854-0.489-1.337-0.771c0.396-0.229,0.75-0.438,1.112-0.636c0.056-0.026,0.161,0.006,0.228,0.041
		C106.697,245.892,107.122,246.143,107.612,246.435z"/>
	<path fill="#FFFFFF" d="M118.819,248.166c-0.386,0.229-0.7,0.425-1.032,0.598c-0.085,0.042-0.236,0.035-0.322-0.009
		c-0.434-0.24-0.854-0.489-1.328-0.771c0.383-0.218,0.73-0.427,1.088-0.618c0.056-0.028,0.164-0.016,0.226,0.019
		C117.889,247.624,118.323,247.885,118.819,248.166z"/>
	<path fill="#FFFFFF" d="M114.717,250.549c-0.382,0.225-0.709,0.422-1.048,0.599c-0.074,0.044-0.209,0.039-0.287-0.007
		c-0.432-0.232-0.854-0.485-1.35-0.773c0.401-0.23,0.754-0.446,1.116-0.642c0.054-0.026,0.162,0.011,0.229,0.056
		C113.806,250.017,114.227,250.266,114.717,250.549z"/>
	<path fill="#FFFFFF" d="M110.613,252.926c-0.376,0.225-0.705,0.427-1.044,0.604c-0.073,0.038-0.21,0.031-0.288-0.008
		c-0.432-0.242-0.854-0.489-1.345-0.78c0.398-0.229,0.753-0.44,1.118-0.637c0.052-0.026,0.161,0.014,0.229,0.05
		C109.711,252.397,110.135,252.648,110.613,252.926z"/>
	<path fill="#FFFFFF" d="M107.296,243.867c-0.388,0.222-0.729,0.424-1.074,0.614c-0.051,0.034-0.144,0.044-0.194,0.019
		c-0.455-0.257-0.905-0.521-1.413-0.813c0.396-0.231,0.731-0.438,1.075-0.626c0.06-0.03,0.17-0.022,0.231,0.011
		C106.369,243.326,106.81,243.583,107.296,243.867z"/>
	<path fill="#FFFFFF" d="M102.563,244.874c0.386-0.228,0.726-0.432,1.073-0.616c0.065-0.031,0.188-0.019,0.256,0.019
		c0.432,0.242,0.854,0.492,1.354,0.784c-0.408,0.234-0.774,0.442-1.145,0.646c-0.036,0.025-0.117-0.011-0.167-0.038
		C103.491,245.415,103.05,245.155,102.563,244.874z"/>
	<path fill="#FFFFFF" d="M103.168,246.231c-0.051,0.049-0.059,0.06-0.068,0.063c-0.365,0.204-0.768,0.622-1.087,0.569
		c-0.509-0.091-0.966-0.494-1.51-0.804c0.406-0.231,0.75-0.438,1.103-0.627c0.056-0.029,0.167-0.009,0.229,0.025
		C102.272,245.707,102.704,245.964,103.168,246.231z"/>
	<path fill="#FFFFFF" d="M112.03,246.615c-0.381,0.223-0.717,0.422-1.061,0.613c-0.06,0.031-0.17,0.034-0.226,0.004
		c-0.45-0.249-0.891-0.511-1.393-0.799c0.391-0.23,0.725-0.434,1.067-0.617c0.063-0.032,0.171-0.03,0.233,0.003
		C111.101,246.064,111.544,246.332,112.03,246.615z"/>
	<path fill="#FFFFFF" d="M109.979,247.803c-0.392,0.229-0.728,0.438-1.075,0.617c-0.074,0.035-0.21,0.007-0.291-0.039
		c-0.42-0.238-0.835-0.48-1.313-0.765c0.392-0.224,0.742-0.438,1.104-0.63c0.055-0.034,0.162,0,0.229,0.036
		C109.061,247.264,109.484,247.518,109.979,247.803z"/>
	<path fill="#FFFFFF" d="M114.395,247.986c-0.384,0.228-0.723,0.431-1.066,0.617c-0.057,0.032-0.169,0.03-0.226-0.002
		c-0.451-0.251-0.889-0.514-1.38-0.798c0.375-0.222,0.699-0.416,1.033-0.596c0.069-0.041,0.196-0.054,0.265-0.016
		C113.47,247.438,113.91,247.705,114.395,247.986z"/>
	<path fill="#FFFFFF" d="M100.828,248.621c0.394-0.224,0.72-0.425,1.061-0.601c0.073-0.043,0.209-0.026,0.289,0.021
		c0.432,0.238,0.856,0.486,1.33,0.769c-0.383,0.221-0.728,0.437-1.086,0.626c-0.063,0.03-0.185,0.006-0.258-0.039
		C101.733,249.155,101.31,248.908,100.828,248.621z"/>
	<path fill="#FFFFFF" d="M107.903,248.978c-0.048,0.046-0.055,0.055-0.065,0.062c-1.131,0.718-1.324,0.698-2.552-0.248
		c0.348-0.204,0.68-0.403,1.022-0.593c0.063-0.039,0.17-0.044,0.229-0.007C106.988,248.44,107.431,248.698,107.903,248.978z"/>
	<path fill="#FFFFFF" d="M103.196,249.999c0.402-0.228,0.747-0.443,1.104-0.634c0.056-0.027,0.162,0.002,0.229,0.036
		c0.439,0.248,0.875,0.504,1.352,0.779c-0.377,0.22-0.717,0.42-1.063,0.61c-0.061,0.037-0.168,0.044-0.225,0.007
		C104.144,250.551,103.701,250.288,103.196,249.999z"/>
	<path fill="#FFFFFF" d="M98.457,247.251c0.389-0.225,0.716-0.424,1.057-0.601c0.074-0.037,0.21-0.027,0.287,0.013
		c0.434,0.237,0.855,0.491,1.343,0.772c-0.391,0.228-0.735,0.438-1.09,0.624c-0.063,0.031-0.186,0.004-0.259-0.034
		C99.365,247.785,98.945,247.533,98.457,247.251z"/>
	<path fill="#FFFFFF" d="M110.298,250.368c-0.377,0.216-0.693,0.411-1.022,0.584c-0.08,0.04-0.217,0.059-0.292,0.013
		c-0.443-0.238-0.874-0.498-1.365-0.781c0.39-0.225,0.732-0.437,1.084-0.627c0.055-0.031,0.163-0.019,0.227,0.016
		C109.367,249.822,109.8,250.075,110.298,250.368z"/>
	<path fill="#FFFFFF" d="M109.984,251.557c0.371-0.221,0.69-0.417,1.021-0.593c0.078-0.038,0.215-0.054,0.288-0.016
		c0.443,0.241,0.874,0.5,1.374,0.789c-0.396,0.229-0.739,0.434-1.092,0.626c-0.055,0.029-0.167,0.01-0.229-0.025
		C110.905,252.094,110.47,251.835,109.984,251.557z"/>
	<path fill="#FFFFFF" d="M113.769,246.614c0.38-0.223,0.718-0.422,1.065-0.612c0.062-0.031,0.167-0.036,0.228-0.005
		c0.446,0.248,0.888,0.51,1.387,0.802c-0.393,0.229-0.729,0.433-1.073,0.618c-0.057,0.03-0.167,0.024-0.229-0.009
		C114.697,247.158,114.256,246.895,113.769,246.614z"/>
	<path fill="#FFFFFF" d="M109.345,242.678c-0.39,0.222-0.714,0.423-1.05,0.607c-0.063,0.034-0.173,0.048-0.231,0.02
		c-0.458-0.26-0.908-0.521-1.368-0.794c0.032-0.036,0.038-0.049,0.048-0.054c0.378-0.206,0.785-0.634,1.119-0.575
		C108.37,241.962,108.82,242.373,109.345,242.678z"/>
	<path fill="#FFFFFF" d="M109.031,243.867c0.381-0.217,0.718-0.421,1.065-0.613c0.062-0.032,0.169-0.034,0.228-0.004
		c0.45,0.252,0.892,0.512,1.39,0.799c-0.393,0.229-0.725,0.432-1.069,0.626c-0.062,0.03-0.169,0.024-0.233-0.015
		C109.96,244.41,109.516,244.151,109.031,243.867z"/>
	<path fill="#FFFFFF" d="M112.35,249.174c-0.385,0.225-0.726,0.432-1.071,0.62c-0.06,0.032-0.168,0.031-0.229-0.001
		c-0.448-0.255-0.889-0.513-1.383-0.803c0.388-0.222,0.727-0.426,1.073-0.612c0.056-0.035,0.167-0.03,0.226,0.008
		C111.413,248.629,111.855,248.895,112.35,249.174z"/>
	<path fill="#FFFFFF" d="M116.697,249.32c-0.72,0.811-1.441,0.729-2.175,0.114c-0.119-0.1-0.261-0.158-0.432-0.264
		c0.381-0.219,0.71-0.413,1.048-0.601c0.061-0.032,0.174-0.053,0.229-0.016C115.831,248.809,116.283,249.078,116.697,249.32z"/>
	<path fill="#FFFFFF" d="M105.567,251.374c0.394-0.235,0.722-0.434,1.062-0.616c0.067-0.033,0.19-0.023,0.263,0.018
		c0.439,0.245,0.875,0.499,1.355,0.782c-0.385,0.221-0.725,0.426-1.075,0.608c-0.065,0.033-0.188,0.021-0.257-0.017
		C106.482,251.914,106.061,251.655,105.567,251.374z"/>
	<path fill="#FFFFFF" d="M114.081,245.425c-0.396,0.228-0.71,0.426-1.04,0.597c-0.077,0.039-0.216,0.034-0.292-0.006
		c-0.434-0.232-0.858-0.491-1.352-0.772c0.4-0.237,0.756-0.44,1.116-0.642c0.039-0.021,0.116-0.015,0.162,0.011
		C113.123,244.87,113.568,245.125,114.081,245.425z"/>
	<path fill="#FFFFFF" d="M105.558,247.616c-0.39,0.232-0.723,0.433-1.068,0.625c-0.061,0.03-0.168,0.028-0.23-0.005
		c-0.447-0.256-0.891-0.516-1.378-0.802c0.374-0.214,0.698-0.412,1.032-0.593c0.072-0.037,0.198-0.054,0.265-0.019
		C104.628,247.069,105.07,247.339,105.558,247.616z"/>
</g>
<g>
	<g>
		<polyline fill="none" stroke="#BF1B00" stroke-width="0.75" stroke-miterlimit="10" points="54.883,223.501 54.883,231.813 
			73.333,231.813 73.333,252.186 80.921,252.186 		"/>
		<g>
			<path fill="#BF1B00" d="M79.575,252.186l-1.644-2.702l0.092-0.063l4.406,1.751c1.534,0.338,3.069,0.676,4.604,1.014
				c-1.535,0.338-3.07,0.676-4.604,1.014l-4.406,1.75l-0.092-0.046L79.575,252.186z"/>
		</g>
	</g>
</g>
<text transform="matrix(1 0 0 1 223.2429 29.0017)" fill="#FFFFFF" font-family="'MyriadPro-Semibold'" font-size="15">Anlise de Dados</text>
<text transform="matrix(1 0 0 1 163.6462 342.6677)" fill="#FFFFFF" font-family="'MyriadPro-CondIt'" font-size="21">FLUXO DE EXECUO</text>
<text transform="matrix(1 0 0 1 368.5271 29.0007)" fill="#FFFFFF" font-family="'MyriadPro-Semibold'" font-size="15">Recomendao</text>
<g>
	<path fill="#7D8589" d="M250.531,237.797c0,0.792,0,1.49,0,2.221c-0.745,0-1.441,0-2.217,0c0-0.7,0-1.412,0-2.223
		c-0.748,0-1.418,0.006-2.093-0.002c-0.913-0.012-1.324-0.416-1.324-1.345c-0.003-8.887-0.003-17.767,0-26.66
		c0-0.927,0.41-1.324,1.327-1.334c0.654-0.013,1.31-0.001,2.041-0.001c0-6.786,0-13.515,0-20.288c0.773,0,1.471,0,2.243,0
		c0,6.724,0,13.458,0,20.288c0.744,0,1.419-0.013,2.09,0.001c0.917,0.011,1.324,0.411,1.325,1.338
		c0.005,8.894,0.006,17.773,0.004,26.66c0,0.917-0.422,1.333-1.332,1.344C251.942,237.802,251.287,237.797,250.531,237.797z
		 M249.405,233.273c0.738,0,1.473,0,2.216,0c0-0.788,0-1.497,0-2.266c-0.76,0-1.477,0-2.197,0c-0.008-0.751-0.015-1.504-0.021-2.256
		c0.741,0,1.479,0,2.214,0c0-0.783,0-1.502,0-2.236c-0.771,0-1.495,0-2.218,0c0.01-0.747,0.019-1.499,0.029-2.253
		c0.736,0,1.471,0,2.185,0c0-0.817,0-1.524,0-2.26c-0.771,0-1.493,0-2.213,0c0.009-0.752,0.019-1.504,0.029-2.251
		c0.735,0,1.471,0,2.185,0c0-0.83,0-1.538,0-2.268c-0.771,0-1.494,0-2.214,0c0-0.756,0-1.521,0.001-2.279c0.742,0,1.48,0,2.217,0
		c0-0.788,0-1.498,0-2.237c-0.771,0-1.496,0-2.219,0c0-0.735,0-1.471,0-2.215c-0.783,0-1.492,0-2.195,0c0,0.759,0,1.467,0,2.194
		c0.772,0,1.493,0,2.215,0c0,0.759,0,1.52,0.001,2.277c-0.737,0-1.476,0-2.216,0c0,0.799,0,1.511,0,2.24c0.772,0,1.493,0,2.215,0
		c0.012,0.77,0.024,1.537,0.032,2.303c-0.747,0-1.489,0-2.252,0c0,0.753,0,1.467,0,2.21c0.771,0,1.496,0,2.22,0
		c0.012,0.771,0.023,1.536,0.032,2.307c-0.746,0-1.488,0-2.25,0c0,0.752,0,1.462,0,2.212c0.771,0,1.494,0,2.218,0
		c0.001,0.756,0.002,1.521,0.003,2.275c-0.74,0-1.482,0-2.213,0c0,0.807,0,1.517,0,2.216c0.783,0,1.508,0,2.235,0.001
		c-0.005,0.766-0.01,1.533-0.02,2.303c-0.737,0-1.477,0-2.227,0c0,0.781,0,1.489,0,2.196c0.756,0,1.466,0,2.208,0
		C249.405,234.719,249.405,233.998,249.405,233.273z"/>
	<path fill="#7D8589" d="M259.581,223.02c0-2.947,0-5.899,0-8.891c0.745,0,1.441,0,2.216,0c0,2.964,0,5.931,0,8.991
		c0.726,0,1.377-0.004,2.023,0.001c0.979,0.007,1.393,0.397,1.393,1.354c0.003,6.625,0.003,13.255,0,19.886
		c0,0.926-0.41,1.325-1.332,1.336c-0.61,0.009-1.22,0.008-1.833,0.013c-0.042,0.001-0.086,0.029-0.204,0.064
		c0,1.813,0,3.659,0,5.533c-0.774,0-1.47,0-2.244,0c0-1.834,0-3.68,0-5.608c-0.745,0-1.42,0.007-2.094-0.003
		c-0.912-0.011-1.321-0.416-1.322-1.343c-0.003-6.631-0.003-13.263,0-19.886c0.001-0.93,0.413-1.333,1.331-1.347
		c0.636-0.01,1.271-0.013,1.903-0.021C259.438,223.101,259.46,223.083,259.581,223.02z M260.707,241.175c0,0.737,0,1.479,0,2.22
		c0.788,0,1.498,0,2.199,0c0-0.755,0-1.467,0-2.199c-0.774,0-1.497,0-2.219,0c0.003-0.765,0.005-1.518,0.008-2.277
		c0.736,0,1.471,0,2.218,0c0-0.788,0-1.497,0-2.265c-0.764,0-1.48,0-2.199,0c0.001-0.743,0.002-1.487,0.003-2.229
		c0.734,0,1.473,0,2.188,0c0-0.818,0-1.529,0-2.264c-0.776,0-1.497,0-2.217,0c0.001-0.755,0.003-1.517,0.004-2.278
		c0.735,0,1.473,0,2.22,0c0-0.774,0-1.48,0-2.259c-0.763,0-1.48,0-2.199,0c0-0.737,0-1.476,0-2.187c-0.831,0-1.542,0-2.237,0
		c0,0.748,0,1.442,0,2.16c0.774,0,1.518,0,2.254,0.002c-0.005,0.772-0.012,1.537-0.019,2.31c-0.741,0-1.479,0-2.22,0
		c0,0.783,0,1.496,0,2.233c0.769,0,1.493,0,2.215,0c0.01,0.772,0.021,1.535,0.028,2.303c-0.759,0-1.516,0-2.26,0
		c0,0.777,0,1.47,0,2.188c0.775,0,1.518,0,2.254,0.002c-0.005,0.766-0.012,1.538-0.017,2.303c-0.742,0-1.481,0-2.225,0
		c0,0.787,0,1.494,0,2.238C259.259,241.175,259.984,241.175,260.707,241.175z"/>
	<path fill="#7D8589" d="M239.245,223.121c0,10.953,0,21.808,0,32.697c-0.747,0-1.444,0-2.214,0c0-10.854,0-21.724,0-32.697
		c-0.739,0-1.41,0.005-2.08-0.002c-0.926-0.009-1.337-0.406-1.34-1.329c-0.009-2.491-0.01-4.981,0-7.474
		c0.003-0.96,0.407-1.345,1.388-1.354c0.634-0.007,1.267-0.001,1.976-0.001c0-1.124,0-2.212,0-3.347c0.771,0,1.467,0,2.24,0
		c0,1.072,0,2.16,0,3.345c0.748,0,1.417-0.008,2.091,0.002c0.92,0.013,1.329,0.431,1.332,1.346c0.004,2.49,0.004,4.982-0.001,7.475
		c-0.003,0.932-0.405,1.33-1.328,1.339C240.654,223.127,239.999,223.121,239.245,223.121z M235.916,215.252c0,1.897,0,3.73,0,5.561
		c1.515,0,2.979,0,4.427,0c0-1.881,0-3.699,0-5.561C238.861,215.252,237.417,215.252,235.916,215.252z"/>
	<path fill="#7D8589" d="M273.089,199.417c0.778,0,1.435-0.007,2.089,0.001c0.892,0.012,1.319,0.411,1.32,1.275
		c0.006,5.178,0.006,10.347,0,15.521c-0.001,0.829-0.423,1.248-1.258,1.263c-0.679,0.011-1.354,0.003-2.11,0.003
		c0,4.901,0,9.747,0,14.639c-0.773,0-1.47,0-2.24,0c0-4.844,0-9.696,0-14.639c-0.747,0-1.421,0.005-2.091-0.002
		c-0.918-0.013-1.322-0.423-1.323-1.347c-0.005-5.124-0.005-10.245-0.002-15.368c0-0.915,0.422-1.338,1.333-1.347
		c0.65-0.008,1.308-0.002,2.039-0.002c0-1.504,0-2.976,0-4.474c0.772,0,1.467,0,2.243,0
		C273.089,196.396,273.089,197.86,273.089,199.417z M274.196,215.189c0-4.532,0-9.003,0-13.462c-1.516,0-2.982,0-4.427,0
		c0,4.516,0,8.971,0,13.462C271.254,215.189,272.701,215.189,274.196,215.189z"/>
	<path fill="#7D8589" d="M284.423,231.025c0,2.646,0,5.225,0,7.853c-0.765,0-1.477,0-2.269,0c0-2.595,0-5.188,0-7.854
		c-0.754,0-1.43,0.008-2.104-0.002c-0.875-0.012-1.286-0.43-1.289-1.314c-0.007-2.885-0.007-5.773,0-8.67
		c0.002-0.881,0.414-1.285,1.296-1.297c0.653-0.01,1.313-0.002,2.048-0.002c0-5.255,0-10.481,0-15.758c0.787,0,1.5,0,2.287,0
		c0,5.229,0,10.458,0,15.758c0.749,0,1.42-0.008,2.097,0.002c0.875,0.012,1.295,0.422,1.297,1.297c0.007,2.896,0.007,5.785,0,8.671
		c-0.002,0.882-0.419,1.303-1.29,1.314C285.822,231.033,285.15,231.025,284.423,231.025z M283.262,226.494c0.74,0,1.478,0,2.228,0
		c0-0.775,0-1.482,0-2.259c-0.763,0-1.482,0-2.201,0c0-0.737,0-1.472,0-2.188c-0.829,0-1.54,0-2.235,0c0,0.751,0,1.443,0,2.162
		c0.773,0,1.514,0,2.254,0.002c-0.008,0.771-0.015,1.534-0.022,2.301c-0.739,0-1.477,0-2.219,0c0,0.801,0,1.508,0,2.2
		c0.761,0,1.471,0,2.196,0C283.262,227.938,283.262,227.214,283.262,226.494z"/>
	<path fill="#7D8589" d="M295.682,206.269c0,3.35,0,6.679,0,10.045c-0.751,0-1.448,0-2.223,0c0-3.346,0-6.691,0-10.122
		c-0.723,0-1.372,0.004-2.023-0.001c-0.975-0.007-1.383-0.405-1.384-1.355c-0.005-5.129-0.008-10.253-0.003-15.384
		c0.002-0.903,0.428-1.319,1.348-1.321c2.117-0.005,4.232-0.005,6.349,0.003c0.924,0.004,1.33,0.412,1.331,1.34
		c0.004,5.125,0.004,10.252,0,15.378c-0.001,0.924-0.404,1.329-1.327,1.341c-0.61,0.008-1.224,0.007-1.834,0.012
		C295.873,206.202,295.829,206.226,295.682,206.269z M296.771,203.902c0-4.532,0-9.008,0-13.461c-1.515,0-2.979,0-4.426,0
		c0,4.516,0,8.969,0,13.461C293.833,203.902,295.278,203.902,296.771,203.902z"/>
	<path fill="#FFFFFF" d="M249.417,212.948c-0.722,0-1.441,0-2.215,0c0-0.729,0-1.437,0-2.194c0.703,0,1.412,0,2.195,0
		c0,0.744,0,1.479,0,2.216L249.417,212.948z"/>
	<path fill="#FFFFFF" d="M249.397,212.969c0.723,0,1.448,0,2.219,0c0,0.738,0,1.448,0,2.236c-0.735,0-1.475,0-2.217,0l0.019,0.021
		c0-0.758,0-1.52,0-2.277L249.397,212.969z"/>
	<path fill="#FFFFFF" d="M249.399,215.206c0,0.758,0,1.523-0.001,2.279l0.019-0.02c-0.722,0-1.442,0-2.215,0c0-0.729,0-1.441,0-2.24
		c0.74,0,1.479,0,2.216,0C249.418,215.226,249.399,215.206,249.399,215.206z"/>
	<path fill="#FFFFFF" d="M249.398,217.485c0.721,0,1.442,0,2.214,0c0,0.729,0,1.438,0,2.268c-0.714,0-1.449,0-2.187-0.001
		c-0.001-0.001,0.024,0.02,0.024,0.02c-0.01-0.768-0.021-1.535-0.034-2.305L249.398,217.485z"/>
	<path fill="#FFFFFF" d="M249.417,221.979c-0.724,0-1.447,0-2.22,0c0-0.743,0-1.457,0-2.21c0.763,0,1.505,0,2.253,0.001
		c0,0.001-0.025-0.02-0.024-0.019c-0.009,0.748-0.019,1.5-0.027,2.252L249.417,221.979z"/>
	<path fill="#FFFFFF" d="M249.399,222.004c0.72,0,1.44,0,2.213,0c0,0.734,0,1.441,0,2.26c-0.714,0-1.448,0-2.185-0.001
		c-0.002-0.001,0.023,0.024,0.023,0.024c-0.01-0.771-0.021-1.536-0.034-2.309L249.399,222.004z"/>
	<path fill="#FFFFFF" d="M249.417,226.497c-0.724,0-1.446,0-2.218,0c0-0.75,0-1.46,0-2.212c0.762,0,1.504,0,2.251,0.001
		c0.001,0.001-0.025-0.024-0.022-0.023c-0.011,0.755-0.02,1.507-0.029,2.254L249.417,226.497z"/>
	<path fill="#FFFFFF" d="M249.398,226.516c0.723,0,1.447,0,2.218,0c0,0.734,0,1.453,0,2.236c-0.733,0-1.473,0-2.214,0l0.019,0.02
		c-0.001-0.755-0.002-1.52-0.004-2.274L249.398,226.516z"/>
	<path fill="#FFFFFF" d="M249.402,228.753c0.007,0.752,0.014,1.505,0.021,2.258c-0.001,0.001,0.021-0.021,0.021-0.021
		c-0.729,0-1.454,0-2.237,0c0-0.699,0-1.409,0-2.216c0.73,0,1.473,0,2.213-0.001L249.402,228.753z"/>
	<path fill="#FFFFFF" d="M249.424,233.293c0.01-0.771,0.015-1.538,0.021-2.304c0-0.001-0.022,0.021-0.021,0.021
		c0.722-0.002,1.438-0.002,2.198-0.002c0,0.769,0,1.478,0,2.266c-0.743,0-1.478,0-2.216,0L249.424,233.293z"/>
	<path fill="#FFFFFF" d="M249.405,233.273c0,0.725,0,1.443,0,2.215c-0.742,0-1.452,0-2.208,0c0-0.707,0-1.415,0-2.196
		c0.75,0,1.489,0,2.227,0C249.424,233.293,249.405,233.273,249.405,233.273z"/>
	<path fill="#FFFFFF" d="M260.731,227.596c-0.739,0-1.481,0-2.256,0c0-0.718,0-1.412,0-2.16c0.696,0,1.407,0,2.237,0
		c0,0.711,0,1.447-0.001,2.188L260.731,227.596z"/>
	<path fill="#FFFFFF" d="M260.712,229.907c0.007-0.771,0.013-1.536,0.02-2.311c0.001-0.001-0.02,0.026-0.019,0.025
		c0.72-0.001,1.438-0.001,2.2-0.001c0,0.777,0,1.483,0,2.259c-0.748,0-1.483,0-2.22,0L260.712,229.907z"/>
	<path fill="#FFFFFF" d="M260.692,229.881c-0.001,0.763-0.003,1.523-0.004,2.278l0.019-0.019c-0.722,0-1.445,0-2.215,0
		c0-0.737,0-1.45,0-2.233c0.74,0,1.479,0,2.22,0L260.692,229.881z"/>
	<path fill="#FFFFFF" d="M260.688,232.159c0.721,0,1.44,0,2.217,0c0,0.733,0,1.444,0,2.264c-0.716,0-1.454,0-2.189-0.002
		c-0.001,0,0.021,0.024,0.021,0.024c-0.01-0.771-0.021-1.531-0.03-2.305L260.688,232.159z"/>
	<path fill="#FFFFFF" d="M260.731,236.632c-0.738,0-1.48,0-2.256,0c0-0.719,0-1.41,0-2.188c0.745,0,1.501,0,2.261,0.001
		c0.001,0.001-0.021-0.023-0.021-0.023c0,0.744-0.001,1.488-0.003,2.232L260.731,236.632z"/>
	<path fill="#FFFFFF" d="M260.714,238.937c0.006-0.766,0.012-1.538,0.018-2.305c0.001-0.001-0.02,0.021-0.019,0.021
		c0.72-0.001,1.438-0.001,2.2-0.001c0,0.768,0,1.477,0,2.265c-0.747,0-1.481,0-2.218,0L260.714,238.937z"/>
	<path fill="#FFFFFF" d="M260.695,238.917c-0.003,0.761-0.005,1.514-0.008,2.277l0.02-0.021c-0.723,0-1.448,0-2.218,0
		c0-0.744,0-1.451,0-2.238c0.743,0,1.483,0,2.225,0C260.714,238.937,260.695,238.917,260.695,238.917z"/>
	<path fill="#FFFFFF" d="M260.687,241.194c0.723,0,1.444,0,2.219,0c0,0.731,0,1.444,0,2.199c-0.702,0-1.411,0-2.199,0
		c0-0.741,0-1.481,0-2.22L260.687,241.194z"/>
	<path fill="#FFFFFF" d="M235.916,215.252c1.501,0,2.945,0,4.427,0c0,1.86,0,3.68,0,5.561c-1.447,0-2.912,0-4.427,0
		C235.916,218.982,235.916,217.149,235.916,215.252z"/>
	<path fill="#FFFFFF" d="M274.196,215.189c-1.495,0-2.942,0-4.427,0c0-4.491,0-8.946,0-13.462c1.444,0,2.911,0,4.427,0
		C274.196,206.187,274.196,210.657,274.196,215.189z"/>
	<path fill="#FFFFFF" d="M283.308,224.211c-0.741,0-1.481,0-2.255,0c0-0.719,0-1.411,0-2.162c0.695,0,1.406,0,2.235,0
		c0,0.716,0,1.449-0.002,2.188L283.308,224.211z"/>
	<path fill="#FFFFFF" d="M283.285,226.513c0.008-0.767,0.015-1.529,0.022-2.303c0,0-0.021,0.026-0.021,0.025
		c0.72-0.001,1.439-0.001,2.203-0.001c0,0.774,0,1.481,0,2.259c-0.75,0-1.487,0-2.228,0L283.285,226.513z"/>
	<path fill="#FFFFFF" d="M283.262,226.494c0,0.72,0,1.444,0,2.22c-0.727,0-1.437,0-2.196,0c0-0.692,0-1.399,0-2.2
		c0.742,0,1.479,0,2.219,0L283.262,226.494z"/>
	<path fill="#FFFFFF" d="M296.771,203.902c-1.494,0-2.939,0-4.426,0c0-4.492,0-8.945,0-13.461c1.446,0,2.911,0,4.426,0
		C296.771,194.895,296.771,199.37,296.771,203.902z"/>
</g>
<g>
	<g>
		<polyline fill="none" stroke="#BF1B00" stroke-width="0.75" stroke-miterlimit="10" points="131.913,252.892 179.14,252.892 
			179.14,192.722 193.667,192.722 193.667,186.392 		"/>
		<g>
			<path fill="#BF1B00" d="M193.667,187.738l-2.702,1.643l-0.062-0.092l1.751-4.406c0.337-1.534,0.675-3.069,1.013-4.604
				c0.338,1.535,0.675,3.07,1.015,4.604l1.75,4.406l-0.046,0.092L193.667,187.738z"/>
		</g>
	</g>
</g>
<g>
	<g>
		<polyline fill="none" stroke="#BF1B00" stroke-width="0.75" stroke-miterlimit="10" points="216.351,157.182 261.761,157.182 
			261.785,176.886 		"/>
		<g>
			<path fill="#BF1B00" d="M261.783,175.539l2.7-1.646l0.062,0.093l-1.745,4.408c-0.336,1.535-0.671,3.07-1.007,4.605
				c-0.34-1.535-0.679-3.068-1.02-4.604l-1.755-4.403l0.045-0.093L261.783,175.539z"/>
		</g>
	</g>
</g>
<g>
	<path fill="#FFFFFF" d="M526.649,190.039c-10.923,0-21.845-0.008-32.771,0.021c-0.646,0-0.769-0.142-0.768-0.827
		c0.022-16.688,0.022-33.373,0-50.061c-0.001-0.688,0.121-0.821,0.768-0.82c15.636,0.022,31.268,0.022,46.899,0
		c0.641-0.001,0.771,0.132,0.771,0.82c-0.024,16.688-0.024,33.371,0,50.061c0,0.687-0.13,0.833-0.771,0.827
		c-3.769-0.039-7.536-0.021-11.304-0.021c-0.063-0.1-0.06-0.188,0.017-0.277c0.882-0.503,1.864-0.744,2.688-1.407
		c1.795-1.438,2.827-3.297,2.884-5.7c0.018-0.764,0.247-1.349,0.755-1.87c0.883-0.901,1.742-1.827,2.594-2.77
		c0.926-1.01,0.927-1.876,0.027-2.881c-0.373-0.405-0.749-0.813-1.136-1.204c-0.883-0.897-1.724-0.942-2.679-0.137
		c-0.518,0.441-0.975,0.957-1.416,1.476c-0.572,0.664-1.115,0.756-1.906,0.332c-4.245-2.29-9.153,0.311-10.137,5.136
		c-0.723,3.547,1.233,7.346,4.436,8.563c0.354,0.131,0.737,0.2,1.035,0.462C526.718,189.851,526.721,189.939,526.649,190.039z"/>
	<path fill="#C4C6C8" d="M526.634,189.854c-3.013-0.716-4.945-2.688-5.643-5.87c-0.693-3.199,0.249-5.924,2.688-7.913
		c2.433-1.984,5.138-2.143,7.85-0.64c0.662,0.365,1.03,0.351,1.494-0.251c0.455-0.586,0.986-1.115,1.521-1.633
		c0.885-0.854,1.896-0.857,2.782-0.007c0.513,0.493,1.005,1.016,1.467,1.562c0.784,0.93,0.782,2.055-0.032,2.966
		c-0.929,1.045-1.883,2.056-2.854,3.051c-0.391,0.397-0.558,0.812-0.573,1.395c-0.104,3.669-2.437,6.581-5.83,7.348
		c-0.302,0.197-0.672-0.067-0.967,0.18c-0.314,0-0.623,0-0.938,0C527.306,189.79,526.931,190.061,526.634,189.854z"/>
	<path fill="#F1BC7D" d="M526.634,189.854c0.334-0.018,0.68-0.108,0.961,0.186c-0.313,0-0.63,0-0.945,0
		C526.665,189.969,526.659,189.91,526.634,189.854z"/>
	<path fill="#F1BC7D" d="M528.534,190.039c0.287-0.294,0.63-0.206,0.968-0.18c-0.027,0.055-0.033,0.111-0.025,0.18
		C529.164,190.039,528.85,190.039,528.534,190.039z"/>
	<path fill="#7D8589" d="M521.524,189.8c-0.45,0-0.633,0-0.815,0c-7.442,0-14.875,0.007-22.313,0
		c-2.207-0.004-2.075-1.159-2.077-3.525c-0.004-14.732,0.132-29.474,0.138-44.212c0.001-2.37-0.279-1.724,1.95-1.725
		c7.84-0.002,15.689,0.008,23.536-0.014c0.648-0.002,1.115,0.077,1.57,0.563c2.378,2.576,3.415,3.498,5.83,6.041
		c0.448,0.479,0.675,0.97,0.672,1.673c-0.021,7.703-0.017,15.413-0.004,23.117c0.002,0.646-0.028,1.063-0.798,0.686
		c0,0-0.6-0.623-0.592-1.703c0.053-6.601,0.015-13.196,0.042-19.797c0.006-0.831-0.607-2.182-1.397-2.151
		c-1.63,0.068-2.582,0.027-4.216,0.017c-1.063-0.007-0.304,0.317-0.308-0.826c-0.008-1.843-0.023-3.28,0.01-5.121
		c0.013-0.662-0.116-1.208-0.813-1.207c-7.066,0.026-15.895,0.025-22.955,0.002c-0.618-0.002-1.325,0.192-1.324,0.842
		c0.017,14.306,0.02,28.876-0.006,43.185c0,0.802,0.472,2.808,1.437,2.718c6.431-0.014,12.866,0.141,19.296,0.116
		c0.638-0.002,1.033,0.006,1.313,0.678C520.071,190.064,520.726,188.891,521.524,189.8z"/>
	<path fill="#7D8589" d="M508.067,153.45c2.043-0.495,3.966-0.929,5.866-1.444c0.629-0.162,0.754,0.092,0.836,0.631
		c0.574,3.891-2.018,7.633-5.802,8.385c-3.555,0.698-7.224-1.994-7.929-5.812c-0.898-4.883,2.662-9.271,7.283-8.97
		c1.244,0.081,1.258,0.098,0.989,1.381C508.913,149.526,508.498,151.428,508.067,153.45z"/>
	<path fill="#7D8589" d="M507.905,173.783c-1.474,0-2.942,0.012-4.41-0.004c-0.893-0.01-1.373-0.47-1.354-1.276
		c0.02-0.875,0.529-1.261,1.278-1.266c3.003-0.019,6.006-0.022,9.014,0.001c0.854,0.008,1.376,0.566,1.312,1.334
		c-0.068,0.846-0.561,1.215-1.339,1.213C510.908,173.779,509.405,173.783,507.905,173.783z"/>
	<path fill="#C4C6C8" d="M509.953,151.426c0.489-2.27,0.955-4.372,1.386-6.486c0.089-0.405,0.243-0.471,0.579-0.345
		c2.207,0.815,3.682,2.411,4.463,4.763c0.187,0.549-0.172,0.555-0.447,0.623C513.995,150.458,512.051,150.922,509.953,151.426z"/>
	<path fill="#7D8589" d="M507.247,178.578c-1.22,0-2.438,0.014-3.659-0.005c-0.96-0.021-1.452-0.479-1.45-1.306
		c0.002-0.816,0.5-1.291,1.459-1.297c2.439-0.018,4.882-0.019,7.322,0.001c0.955,0.007,1.449,0.487,1.445,1.307
		c-0.004,0.823-0.496,1.274-1.456,1.295C509.685,178.59,508.469,178.578,507.247,178.578z"/>
	<path fill="#7D8589" d="M504.512,166.492c0.406,0,0.813-0.021,1.214,0.005c0.687,0.049,1.129,0.431,1.158,1.188
		c0.029,0.786-0.375,1.28-1.104,1.329c-0.843,0.061-1.69,0.054-2.532,0c-0.685-0.039-1.104-0.463-1.104-1.228
		c-0.003-0.797,0.412-1.229,1.154-1.287C503.697,166.469,504.103,166.493,504.512,166.492z"/>
	<path fill="#FFFFFF" d="M537.405,176.271c0.008,0.538-0.209,0.778-0.43,1.019c-2.197,2.346-4.399,4.688-6.585,7.033
		c-0.531,0.58-0.989,0.561-1.516-0.025c-0.907-1.02-1.837-2.016-2.799-2.982c-0.633-0.636-0.55-1.188,0.02-1.785
		c0.688-0.719,1.055-0.745,1.747-0.042c0.433,0.437,0.884,0.865,1.253,1.353c0.421,0.558,0.691,0.417,1.095-0.023
		c1.667-1.82,3.368-3.606,5.048-5.406c0.331-0.354,0.715-0.663,1.156-0.345C536.844,175.388,537.306,175.78,537.405,176.271z"/>
</g>
<g>
	<g>
		<polyline fill="none" stroke="#BF1B00" stroke-width="0.75" stroke-miterlimit="10" points="298.909,230.174 354.318,230.174 
			354.342,210.47 		"/>
		<g>
			<path fill="#BF1B00" d="M354.34,211.816l-2.702,1.64l-0.063-0.093l1.756-4.403c0.34-1.535,0.679-3.068,1.02-4.604
				c0.337,1.535,0.672,3.071,1.008,4.605l1.744,4.409l-0.045,0.092L354.34,211.816z"/>
		</g>
	</g>
</g>
<g>
	<g>
		
			<line fill="none" stroke="#BF1B00" stroke-width="0.75" stroke-miterlimit="10" x1="400.088" y1="161.993" x2="471.287" y2="161.993"/>
		<g>
			<path fill="#BF1B00" d="M469.94,161.993l-1.643-2.702l0.092-0.062l4.406,1.751c1.534,0.338,3.069,0.675,4.604,1.013
				c-1.535,0.339-3.07,0.675-4.604,1.014l-4.406,1.75l-0.092-0.046L469.94,161.993z"/>
		</g>
	</g>
</g>
<rect x="397.829" y="145.773" fill="#FFFFFF" width="13.838" height="21.634"/>
<path fill="#C0DEED" d="M407.009,165.813c-0.581,0.926-1.431,1.365-2.509,1.3c-1.213-0.072-1.839-0.934-1.878-1.963
	c-0.191-5.168-0.299-10.34-0.381-15.511c-0.019-1.127,0.662-1.813,1.812-1.996c1.104-0.179,1.945,0.271,2.621,1.078
	C407.855,150.13,408.118,164.151,407.009,165.813z"/>
<path fill="#C0DEED" d="M403.374,233.771c-0.786,0.759-1.715,0.981-2.747,0.66c-1.159-0.361-1.561-1.349-1.352-2.356
	c1.054-5.063,2.189-10.109,3.352-15.149c0.253-1.099,1.078-1.601,2.237-1.503c1.114,0.094,1.824,0.73,2.287,1.677
	C407.958,218.75,404.849,232.425,403.374,233.771z"/>
<path fill="#C1DEED" d="M550.205,160.525c0,1.262,0.092,2.679-0.024,4.077c-0.126,1.52-0.825,2.776-2.534,2.862
	c-1.999,0.103-2.071-1.426-2.202-2.881c-0.356-3.985-0.825-7.964-1.1-11.956c-0.13-1.88,0.234-3.875,2.607-4.036
	c2.432-0.164,1.977,1.957,2.262,3.456C549.738,154.807,550.645,157.51,550.205,160.525z"/>
<path fill="#C2DEED" d="M549.112,199.365c-0.15,1.276-0.495,2.631-1.88,2.692c-1.474,0.064-2.91-0.825-2.814-2.519
	c0.297-5.188,0.75-10.373,1.25-15.547c0.107-1.124,1.049-1.659,2.213-1.457c1.078,0.188,1.917,0.867,2.076,1.911
	C550.23,186.223,550,191.849,549.112,199.365z"/>
<g>
	<path fill="#BEDBE4" d="M476.648,334.041c-20.299,0-40.598,0-60.896,0c-0.003,0.509-0.004,1.017-0.007,1.523
		c20.307,0,40.612,0,60.918,0C477.015,335.053,476.992,334.547,476.648,334.041z"/>
	<path fill="#BEDBE4" d="M476.648,334.041c0.004,0.509,0.01,1.017,0.015,1.523c0.222,0.906,0.176,2.344,0.714,2.613
		c1.437,0.719,1.355-0.751,1.458-1.589c0.118-0.962,0.111-1.954,0.024-2.923c-0.093-1.04,0.396-2.821-1.25-2.634
		C476.238,331.188,476.885,332.975,476.648,334.041z"/>
</g>
<path fill="#7D8589" d="M493.119,230.777c0.014,1.434,0.807,2.216,2.254,2.275c1.105,0.053,2.218,0.049,3.328,0.001
	c0.701-0.026,0.921,0.25,0.908,0.932c-0.038,1.737-0.03,3.469-0.001,5.211c0.005,0.322-0.081,0.541-0.24,0.722
	c-1.622,0.552-2.797,2.079-2.797,3.895c0,1.796,1.161,3.323,2.771,3.877c0.194,0.221,0.265,0.465,0.263,0.816
	c-0.022,4.2-0.03,8.402-0.042,12.604c0,0.236-0.015,0.481-0.032,0.718c-0.097,1.278,0.292,1.867,1.762,1.756
	c2.112-0.163,4.243-0.04,6.366-0.04c2.226,0,4.447,0.021,6.663-0.012c0.422-0.009,0.752,0.042,1.034,0.213
	c0.594,1.54,2.081,2.633,3.833,2.633c1.736,0,3.218-1.081,3.819-2.608c0.251-0.177,0.545-0.251,0.944-0.238
	c1.689,0.042,3.381,0.055,5.069-0.004c0.851-0.03,1.086,0.276,1.046,1.081c-0.053,1.06-0.051,2.125,0.004,3.184
	c0.073,1.431,0.877,2.228,2.306,2.24c3.523,0.031,7.045,0.033,10.569,0c1.5-0.015,2.303-0.854,2.313-2.372
	c0.023-3.478,0.021-6.95,0.001-10.428c-0.009-1.528-0.778-2.391-2.282-2.411c-3.523-0.049-7.045-0.046-10.569-0.004
	c-1.537,0.02-2.278,0.816-2.345,2.359c-0.04,0.963-0.081,1.938,0.008,2.894c0.087,1.014-0.334,1.227-1.244,1.193
	c-1.64-0.063-3.286-0.035-4.925-0.01c-0.291,0.005-0.544-0.008-0.77-0.091c-0.367-1.319-1.373-2.368-2.677-2.796
	c-0.175-0.516-0.15-1.118-0.125-1.752c0.065-1.393,0.053-2.797,0.002-4.192c-0.022-0.699,0.203-0.934,0.904-0.901
	c1.105,0.056,2.216,0.046,3.328,0.002c1.361-0.046,2.174-0.808,2.188-2.157c0.034-3.615,0.031-7.238,0-10.865
	c-0.012-1.307-0.766-2.1-2.076-2.114c-3.672-0.039-7.337-0.044-11.004,0.004c-1.315,0.021-2.018,0.831-2.059,2.146
	c-0.033,1.062-0.038,2.123-0.002,3.186c0.023,0.688-0.097,1.068-0.926,1.044c-1.783-0.06-3.577-0.043-5.359-0.005
	c-0.323,0.007-0.556-0.061-0.742-0.21c-0.389-1.202-1.322-2.166-2.512-2.595c-0.144-0.194-0.194-0.439-0.188-0.754
	c0.024-1.741,0.031-3.475-0.003-5.21c-0.021-0.689,0.209-0.959,0.908-0.934c1.062,0.045,2.123,0.045,3.186,0
	c1.553-0.057,2.31-0.78,2.326-2.345c0.042-3.479,0.041-6.945,0.004-10.425c-0.018-1.615-0.823-2.396-2.417-2.406
	c-3.475-0.02-6.951-0.021-10.431,0.001c-1.515,0.012-2.33,0.822-2.343,2.326C493.089,223.732,493.089,227.254,493.119,230.777z
	 M502.276,247.594c1.023-0.431,1.825-1.265,2.228-2.301c0.505-0.322,1.173-0.306,1.86-0.256c0.482,0.029,0.969-0.002,1.443,0.006
	c1.207,0.022,2.807-0.411,3.51,0.201c0.824,0.707,0.196,2.354,0.286,3.591c0.007,0.099-0.001,0.19,0.002,0.29
	c0.05,1.625,0.779,2.33,2.405,2.421c1.321,0.07,3.146-0.617,3.843,0.293c0.658,0.858,0.188,2.598,0.185,3.947
	c-0.005,0.872,0.14,1.8-0.111,2.573c-1.313,0.427-2.329,1.49-2.696,2.825c-0.141,0.049-0.304,0.069-0.488,0.068
	c-3.965-0.02-7.919-0.026-11.883,0.004c-0.771,0.007-0.998-0.264-0.978-1.009c0.04-1.932,0.014-3.86,0.014-5.795
	c0-0.963-0.014-1.932,0.003-2.896C501.921,250.2,501.612,248.729,502.276,247.594z"/>
<g>
	<g>
		
			<line fill="none" stroke="#BF1B00" stroke-width="0.75" stroke-miterlimit="10" x1="552.168" y1="161.131" x2="597.052" y2="161.131"/>
		<g>
			<path fill="#BF1B00" d="M595.706,161.131l-1.643-2.701l0.092-0.063l4.406,1.751c1.535,0.337,3.07,0.675,4.604,1.013
				c-1.534,0.339-3.069,0.677-4.604,1.015l-4.406,1.75l-0.092-0.046L595.706,161.131z"/>
		</g>
	</g>
</g>
<g>
	<g>
		
			<line fill="none" stroke="#BF1B00" stroke-width="0.75" stroke-miterlimit="10" x1="551.668" y1="241.91" x2="576.552" y2="241.91"/>
		<g>
			<path fill="#BF1B00" d="M575.206,241.91l-1.643-2.702l0.092-0.062l4.406,1.751c1.535,0.337,3.07,0.675,4.604,1.013
				c-1.534,0.338-3.069,0.676-4.604,1.014l-4.406,1.75l-0.092-0.046L575.206,241.91z"/>
		</g>
	</g>
</g>
<g>
	<g>
		
			<line fill="none" stroke="#BF1B00" stroke-width="0.75" stroke-miterlimit="10" x1="292.973" y1="239.051" x2="470.534" y2="239.051"/>
		<g>
			<path fill="#BF1B00" d="M469.188,239.051l-1.645-2.701l0.093-0.063l4.406,1.751c1.534,0.337,3.069,0.675,4.604,1.014
				c-1.535,0.338-3.07,0.676-4.604,1.014l-4.406,1.75l-0.093-0.046L469.188,239.051z"/>
		</g>
	</g>
</g>
<g>
	<g>
		
			<line fill="none" stroke="#BF1B00" stroke-width="0.75" stroke-miterlimit="10" x1="130.667" y1="257.797" x2="471.287" y2="257.797"/>
		<g>
			<path fill="#BF1B00" d="M469.94,257.797l-1.643-2.701l0.092-0.063l4.406,1.751c1.534,0.337,3.069,0.675,4.604,1.013
				c-1.535,0.339-3.07,0.677-4.604,1.015l-4.406,1.75l-0.092-0.046L469.94,257.797z"/>
		</g>
	</g>
</g>
<polygon fill="#BEDBE4" points="478.16,331.059 483.796,334.809 478.16,338.37 "/>
<rect x="313.834" y="240.903" fill="#FEFEFE" width="70.525" height="14.375"/>
<rect x="299.08" y="147.744" fill="#FEFEFE" width="89.109" height="41.385"/>
<g>
	<g>
		
			<linearGradient id="SVGID_1_" gradientUnits="userSpaceOnUse" x1="344.5544" y1="251.2205" x2="360.4822" y2="251.2205" gradientTransform="matrix(1 0 0 -1 -0.0151 366.3667)">
			<stop  offset="0" style="stop-color:#5B5B5B"/>
			<stop  offset="1" style="stop-color:#101010"/>
		</linearGradient>
		<path fill="url(#SVGID_1_)" d="M359.203,107.945c-0.233-0.489-0.596-0.882-0.97-1.262c-0.274-0.336-0.604-0.614-0.96-0.847
			c-0.271-0.267-0.603-0.438-0.932-0.608c-0.324-0.215-0.671-0.369-1.038-0.479c-0.24-0.127-0.499-0.203-0.767-0.242
			c-0.292-0.111-0.594-0.173-0.905-0.181l0,0c-0.192-0.081-0.396-0.06-0.599-0.063c-0.553-0.088-1.101-0.039-1.647,0.06
			c-0.267,0.002-0.524,0.058-0.779,0.137c-0.293,0.029-0.57,0.128-0.845,0.238c-0.171,0.024-0.335,0.087-0.476,0.183
			c-0.268,0.053-0.496,0.175-0.722,0.307c-0.378,0.167-0.726,0.376-1.025,0.645c-0.352,0.231-0.664,0.51-0.928,0.836
			c-0.391,0.392-0.713,0.833-0.953,1.327c-0.023,0.033-0.049,0.063-0.066,0.095c-0.849,1.567-1.211,3.235-0.987,5.009
			c0.136,1.101,0.46,2.146,1.054,3.097c0.27,0.521,0.629,0.979,0.979,1.443c0.273,0.45,0.58,0.886,0.907,1.307
			c0.293,0.475,0.617,0.937,0.956,1.383c0.246,0.383,0.492,0.753,0.782,1.104c0.148,0.277,0.338,0.537,0.54,0.778
			c0.277,0.454,0.582,0.89,0.909,1.313c0.271,0.438,0.571,0.869,0.896,1.281c0.266,0.394,0.534,0.793,0.806,1.185
			c0.104,0.158,0.143,0.079,0.163-0.053c0.325-0.401,0.645-0.812,0.894-1.269c0.114-0.155,0.249-0.301,0.355-0.463
			c0.225-0.345,0.505-0.656,0.678-1.036c0.335-0.397,0.64-0.813,0.894-1.265c0.317-0.465,0.695-0.879,0.962-1.385
			c0.339-0.398,0.618-0.831,0.9-1.268c0.039-0.063,0.083-0.13,0.128-0.194c0.303-0.397,0.614-0.795,0.851-1.246
			c0.348-0.417,0.655-0.861,0.941-1.324c0.145-0.24,0.306-0.467,0.415-0.716C360.846,113.091,360.773,110.478,359.203,107.945z
			 M355.239,113.227c-0.227,0.39-0.502,0.733-0.84,1.029c-0.306,0.199-0.624,0.365-0.966,0.49c-0.289,0.039-0.589,0.077-0.891,0.116
			c-0.005,0.003-0.008,0.008-0.012,0.01c0-0.002,0-0.005,0-0.009c-0.254-0.042-0.516-0.082-0.771-0.125
			c-0.289-0.139-0.573-0.277-0.858-0.417c-0.289-0.293-0.597-0.57-0.823-0.917c-0.074-0.11-0.13-0.221-0.15-0.345
			c-0.274-0.745-0.265-1.485,0.005-2.227c0.134-0.417,0.453-0.698,0.714-1.023c-0.012-0.007-0.021-0.015-0.027-0.021
			c0.021,0,0.045-0.001,0.063-0.002c0.246-0.189,0.518-0.354,0.787-0.508c0.479-0.172,0.975-0.241,1.484-0.204
			c0.115,0.021,0.239,0.042,0.359,0.061v-0.002c0.003,0.002,0.003,0.002,0.005,0.004c0.343,0.1,0.649,0.253,0.959,0.43
			c0.342,0.276,0.644,0.595,0.88,0.973C355.603,111.42,355.615,112.319,355.239,113.227z"/>
	</g>
	<g>
		
			<linearGradient id="SVGID_2_" gradientUnits="userSpaceOnUse" x1="363.3894" y1="251.2205" x2="379.3201" y2="251.2205" gradientTransform="matrix(1 0 0 -1 -0.0151 366.3667)">
			<stop  offset="0" style="stop-color:#5B5B5B"/>
			<stop  offset="1" style="stop-color:#101010"/>
		</linearGradient>
		<path fill="url(#SVGID_2_)" d="M378.036,107.945c-0.23-0.489-0.595-0.882-0.971-1.262c-0.274-0.336-0.602-0.615-0.961-0.847
			c-0.269-0.267-0.599-0.438-0.929-0.608c-0.324-0.214-0.673-0.369-1.038-0.479c-0.241-0.128-0.498-0.203-0.766-0.242
			c-0.29-0.11-0.595-0.173-0.903-0.181l0,0c-0.194-0.082-0.396-0.059-0.601-0.063c-0.554-0.086-1.101-0.039-1.646,0.06
			c-0.271,0.003-0.525,0.058-0.784,0.138c-0.288,0.028-0.567,0.127-0.834,0.238c-0.177,0.024-0.335,0.087-0.484,0.183
			c-0.267,0.054-0.493,0.174-0.722,0.307c-0.368,0.167-0.718,0.376-1.026,0.645c-0.349,0.231-0.659,0.51-0.918,0.836
			c-0.398,0.392-0.714,0.833-0.962,1.327c-0.021,0.033-0.046,0.063-0.064,0.094c-0.848,1.567-1.211,3.236-0.986,5.009
			c0.136,1.102,0.46,2.147,1.052,3.097c0.271,0.52,0.628,0.979,0.979,1.444c0.271,0.449,0.581,0.885,0.906,1.306
			c0.302,0.475,0.621,0.937,0.959,1.383c0.244,0.383,0.491,0.754,0.778,1.104c0.157,0.276,0.339,0.537,0.543,0.778
			c0.272,0.454,0.582,0.889,0.909,1.312c0.277,0.439,0.571,0.87,0.893,1.281c0.271,0.394,0.535,0.792,0.809,1.184
			c0.104,0.159,0.146,0.08,0.168-0.053c0.328-0.401,0.642-0.811,0.889-1.268c0.115-0.155,0.248-0.301,0.357-0.464
			c0.223-0.345,0.508-0.657,0.68-1.036c0.332-0.397,0.632-0.813,0.89-1.265c0.317-0.465,0.703-0.879,0.96-1.384
			c0.338-0.398,0.62-0.831,0.9-1.268c0.039-0.063,0.084-0.131,0.13-0.194c0.3-0.399,0.614-0.795,0.847-1.246
			c0.352-0.417,0.666-0.861,0.943-1.324c0.146-0.24,0.307-0.467,0.424-0.716C379.687,113.091,379.606,110.478,378.036,107.945z
			 M374.074,113.227c-0.229,0.389-0.501,0.733-0.843,1.029c-0.305,0.199-0.624,0.365-0.965,0.49
			c-0.293,0.039-0.589,0.077-0.89,0.116c-0.003,0.003-0.007,0.007-0.013,0.01c0-0.002,0-0.005,0-0.008
			c-0.254-0.042-0.516-0.083-0.769-0.125c-0.289-0.139-0.57-0.277-0.861-0.417c-0.289-0.294-0.588-0.571-0.825-0.917
			c-0.068-0.11-0.119-0.221-0.146-0.345c-0.274-0.745-0.263-1.485,0.004-2.227c0.132-0.417,0.456-0.697,0.721-1.023
			c-0.014-0.007-0.023-0.015-0.031-0.021c0.025,0,0.047-0.001,0.064-0.002c0.244-0.189,0.514-0.354,0.785-0.508
			c0.479-0.172,0.976-0.241,1.483-0.204c0.116,0.021,0.242,0.04,0.362,0.061c0-0.002,0-0.002,0-0.002
			c0.002,0,0.003,0.002,0.004,0.004c0.338,0.101,0.65,0.253,0.959,0.43c0.341,0.276,0.644,0.596,0.876,0.973
			C374.438,111.42,374.45,112.319,374.074,113.227z"/>
	</g>
	<g>
		<path fill="#7D8589" d="M339.723,157.366c-1.253,0-2.509-0.002-3.761,0.003c-0.633,0.002-1.251-0.073-1.86-0.229
			c-1.609-0.428-2.481-1.579-3.046-3.052c-0.957-2.491-0.506-4.457,1.459-6.279c0.453-0.421,0.95-0.772,1.449-1.129
			c0.197-0.138,0.317-0.119,0.508,0.042c1.251,1.057,2.618,1.885,4.267,2.153c1.939,0.32,3.643-0.252,5.198-1.384
			c0.283-0.206,0.54-0.449,0.794-0.687c0.107-0.109,0.189-0.141,0.333-0.042c1.276,0.919,2.417,1.945,3.158,3.385
			c0.973,1.906,0.176,4.888-0.989,5.938c-0.975,0.877-2.123,1.24-3.395,1.273C342.472,157.391,341.097,157.366,339.723,157.366z"/>
		<path fill="#7D8589" d="M333.912,142.13c-0.002-3.212,2.614-5.846,5.814-5.854c3.23-0.009,5.814,2.599,5.88,5.797
			c0.056,3.045-2.438,5.916-5.842,5.914C336.517,147.981,333.914,145.382,333.912,142.13z"/>
	</g>
	<g>
		<path fill="#7D8589" d="M385.561,157.128c-1.253,0-2.508-0.003-3.762,0.004c-0.635,0.005-1.255-0.077-1.859-0.233
			c-1.611-0.419-2.483-1.578-3.045-3.045c-0.965-2.49-0.506-4.457,1.455-6.28c0.455-0.418,0.945-0.771,1.448-1.131
			c0.194-0.14,0.319-0.121,0.512,0.042c1.244,1.058,2.62,1.885,4.259,2.16c1.938,0.315,3.651-0.256,5.203-1.392
			c0.284-0.205,0.536-0.446,0.79-0.688c0.117-0.106,0.195-0.141,0.33-0.034c1.283,0.911,2.426,1.942,3.162,3.376
			c0.979,1.908,0.178,4.889-0.982,5.941c-0.975,0.87-2.127,1.237-3.401,1.272C388.304,157.153,386.933,157.128,385.561,157.128z"/>
		<path fill="#7D8589" d="M379.749,141.891c-0.001-3.214,2.615-5.849,5.814-5.855c3.225-0.008,5.813,2.599,5.873,5.796
			c0.062,3.045-2.433,5.918-5.838,5.912C382.357,147.742,379.752,145.141,379.749,141.891z"/>
	</g>
	<g>
		<g>
			
				<line fill="none" stroke="#D25927" stroke-width="0.25" stroke-miterlimit="10" x1="356.443" y1="149.285" x2="366.83" y2="149.285"/>
			<g>
				<path fill="#D25927" d="M354.934,149.285c0.71,0.264,1.591,0.713,2.137,1.189l-0.43-1.189l0.43-1.188
					C356.525,148.572,355.644,149.022,354.934,149.285z"/>
			</g>
			<g>
				<path fill="#D25927" d="M368.338,149.285c-0.71,0.264-1.591,0.713-2.137,1.189l0.43-1.189l-0.43-1.188
					C366.748,148.572,367.628,149.022,368.338,149.285z"/>
			</g>
		</g>
	</g>
	<g>
		
			<linearGradient id="SVGID_3_" gradientUnits="userSpaceOnUse" x1="354.9509" y1="188.8953" x2="370.8806" y2="188.8953" gradientTransform="matrix(1 0 0 -1 -0.0151 366.3667)">
			<stop  offset="0" style="stop-color:#5B5B5B"/>
			<stop  offset="1" style="stop-color:#101010"/>
		</linearGradient>
		<path fill="url(#SVGID_3_)" d="M369.599,170.266c-0.24-0.482-0.596-0.881-0.974-1.26c-0.276-0.339-0.601-0.61-0.963-0.847
			c-0.267-0.266-0.594-0.438-0.93-0.604c-0.321-0.215-0.668-0.367-1.038-0.479c-0.235-0.135-0.497-0.205-0.762-0.244
			c-0.293-0.112-0.596-0.171-0.9-0.181l0,0c-0.202-0.082-0.404-0.063-0.604-0.065c-0.551-0.087-1.099-0.037-1.646,0.063
			c-0.269,0.003-0.527,0.057-0.784,0.14c-0.29,0.028-0.565,0.122-0.837,0.23c-0.171,0.026-0.329,0.089-0.482,0.187
			c-0.264,0.05-0.493,0.173-0.719,0.307c-0.373,0.173-0.717,0.378-1.026,0.644c-0.35,0.235-0.657,0.511-0.92,0.837
			c-0.4,0.39-0.711,0.834-0.961,1.33c-0.022,0.03-0.051,0.06-0.067,0.091c-0.848,1.571-1.203,3.238-0.987,5.014
			c0.138,1.098,0.463,2.145,1.051,3.091c0.276,0.521,0.631,0.982,0.982,1.442c0.276,0.457,0.58,0.896,0.907,1.309
			c0.303,0.479,0.615,0.937,0.962,1.385c0.239,0.384,0.49,0.757,0.772,1.104c0.163,0.283,0.342,0.538,0.543,0.786
			c0.276,0.45,0.587,0.889,0.908,1.305c0.283,0.438,0.572,0.873,0.896,1.278c0.268,0.395,0.534,0.794,0.81,1.188
			c0.103,0.157,0.146,0.073,0.165-0.053c0.32-0.404,0.64-0.813,0.892-1.271c0.115-0.149,0.242-0.299,0.352-0.459
			c0.229-0.349,0.509-0.662,0.688-1.036c0.324-0.396,0.628-0.818,0.884-1.267c0.318-0.467,0.707-0.881,0.962-1.387
			c0.338-0.393,0.62-0.83,0.897-1.263c0.042-0.069,0.085-0.133,0.13-0.192c0.308-0.405,0.615-0.804,0.853-1.255
			c0.351-0.415,0.662-0.856,0.943-1.318c0.141-0.24,0.304-0.47,0.423-0.721C371.246,175.417,371.167,172.804,369.599,170.266z
			 M365.634,175.549c-0.227,0.396-0.501,0.74-0.844,1.03c-0.302,0.198-0.625,0.362-0.963,0.491
			c-0.293,0.038-0.593,0.073-0.887,0.117c-0.006,0.003-0.011,0.005-0.016,0.008c0-0.003,0-0.004,0-0.008
			c-0.256-0.045-0.516-0.084-0.771-0.124c-0.285-0.142-0.568-0.281-0.854-0.418c-0.292-0.293-0.595-0.576-0.825-0.92
			c-0.068-0.108-0.119-0.22-0.146-0.348c-0.279-0.741-0.27-1.48,0.004-2.227c0.131-0.412,0.453-0.694,0.715-1.021
			c-0.016-0.007-0.022-0.013-0.031-0.019c0.019,0,0.044-0.003,0.063-0.004c0.251-0.189,0.518-0.353,0.788-0.509
			c0.482-0.169,0.978-0.234,1.487-0.201c0.113,0.019,0.235,0.04,0.356,0.059c0-0.001,0-0.002,0-0.002
			c0.001,0.001,0.003,0.002,0.003,0.005c0.343,0.102,0.653,0.258,0.959,0.433c0.348,0.273,0.646,0.593,0.878,0.969
			C366,173.747,366.013,174.64,365.634,175.549z"/>
	</g>
	<g>
		<g>
			
				<line fill="none" stroke="#D26527" stroke-width="0.25" stroke-miterlimit="10" x1="343.491" y1="160.104" x2="352.299" y2="168.913"/>
			<g>
				<path fill="#D26527" d="M353.366,169.98c-0.688-0.315-1.629-0.621-2.352-0.67l1.145-0.537l0.537-1.146
					C352.745,168.352,353.05,169.292,353.366,169.98z"/>
			</g>
		</g>
	</g>
	<g>
		<g>
			
				<line fill="none" stroke="#D26527" stroke-width="0.25" stroke-miterlimit="10" x1="343.491" y1="136.584" x2="352.299" y2="127.77"/>
			<g>
				<path fill="#D26527" d="M353.366,126.703c-0.315,0.688-0.62,1.629-0.67,2.353l-0.536-1.146l-1.146-0.536
					C351.737,127.324,352.677,127.019,353.366,126.703z"/>
			</g>
		</g>
	</g>
	<g>
		<g>
			
				<line fill="none" stroke="#D26527" stroke-width="0.25" stroke-miterlimit="10" x1="371.281" y1="169.98" x2="380.089" y2="161.172"/>
			<g>
				<path fill="#D26527" d="M381.156,160.104c-0.315,0.688-0.621,1.629-0.67,2.352l-0.537-1.145l-1.145-0.536
					C379.527,160.726,380.467,160.421,381.156,160.104z"/>
			</g>
		</g>
	</g>
	<g>
		<g>
			
				<line fill="none" stroke="#D26527" stroke-width="0.25" stroke-miterlimit="10" x1="371.984" y1="126.661" x2="380.797" y2="135.472"/>
			<g>
				<path fill="#D26527" d="M381.865,136.539c-0.688-0.314-1.629-0.621-2.352-0.67l1.145-0.537l0.536-1.145
					C381.244,134.91,381.548,135.851,381.865,136.539z"/>
			</g>
		</g>
	</g>
	<text transform="matrix(1 0 0 1 338.4031 155.363)" fill="#FFFFFF" font-family="'MyriadPro-Cond'" font-size="7.989">A</text>
	<text transform="matrix(1 0 0 1 384.3591 155.363)" fill="#FFFFFF" font-family="'MyriadPro-Cond'" font-size="7.989">B</text>
	<text transform="matrix(1 0 0 1 353.45 138.4753)" fill="#7D8589" font-family="'MyriadPro-Cond'" font-size="7.3322">usurios</text>
	<text transform="matrix(1 0 0 1 348.4861 147.2742)" fill="#7D8589" font-family="'MyriadPro-Cond'" font-size="7.3322">semelhantes</text>
	<text transform="matrix(1 0 0 1 339.1345 102.7097)" fill="#7D8589" font-family="'MyriadPro-Cond'" font-size="7.3322">visitado por ambos</text>
	<text transform="matrix(1 0 0 1 346.8279 193.4666)" fill="#7D8589" font-family="'MyriadPro-Cond'" font-size="7.3322">avaliado por </text>
	<text transform="matrix(1 0 0 1 375.7166 193.4666)" fill="#7D8589" font-family="'MyriadPro-BoldCond'" font-size="7.3322">A</text>
	<text transform="matrix(1 0 0 1 379.074 193.4666)" fill="#7D8589" font-family="'MyriadPro-Cond'" font-size="7.3322">,</text>
	<text transform="matrix(1 0 0 1 340.196 202.2664)" fill="#7D8589" font-family="'MyriadPro-Cond'" font-size="7.3322">recomendado para </text>
	<text transform="matrix(1 0 0 1 383.5876 202.2664)" fill="#7D8589" font-family="'MyriadPro-BoldCond'" font-size="7.3322">B</text>
</g>
</svg>
